<svg width="14" height="10" viewBox="0 0 14 10" fill="none" xmlns="http://www.w3.org/2000/svg">
<path fill-rule="evenodd" clip-rule="evenodd" d="M-2.91115e-08 4.69829C-1.30337e-08 4.37951 0.258419 4.12109 0.577194 4.12109L12.9456 4.12109C13.2644 4.12109 13.5228 4.37951 13.5228 4.69829C13.5228 5.01706 13.2644 5.27548 12.9456 5.27548L0.577194 5.27548C0.258419 5.27548 -4.51893e-08 5.01706 -2.91115e-08 4.69829Z" fill="white"/>
<path fill-rule="evenodd" clip-rule="evenodd" d="M9.2514 0.15726C9.48332 -0.0614386 9.84862 -0.0507171 10.0673 0.181207L9.64739 0.577196L9.22745 0.973185C9.00875 0.74126 9.01947 0.375958 9.2514 0.15726ZM9.64739 8.82283L9.22748 8.42681L9.38622 8.25811C9.48742 8.15041 9.63207 7.99629 9.80566 7.81074C10.1529 7.43953 10.6156 6.94297 11.0781 6.44086C11.5412 5.93806 12.0014 5.43245 12.3448 5.04217C12.4595 4.9119 12.5591 4.79669 12.6406 4.70001C12.5591 4.60334 12.4595 4.48813 12.3448 4.35786C12.0014 3.96758 11.5412 3.46197 11.0781 2.95917C10.6156 2.45705 10.1529 1.9605 9.80566 1.58929C9.63207 1.40373 9.48742 1.24961 9.38622 1.14192L9.22745 0.973185L9.64739 0.577196L10.0673 0.181207L10.2274 0.351367C10.3291 0.459597 10.4744 0.614359 10.6487 0.80064C10.9971 1.1731 11.462 1.67202 11.9272 2.17713C12.3918 2.68154 12.8592 3.19489 13.2115 3.59526C13.3869 3.79463 13.5382 3.97099 13.6475 4.10617C13.7011 4.17262 13.7513 4.23724 13.7904 4.29356C13.8092 4.32068 13.8332 4.35682 13.8547 4.39665C13.8654 4.4164 13.8811 4.44715 13.8954 4.48508C13.9061 4.51354 13.9351 4.59406 13.9351 4.70001C13.9351 4.80596 13.9061 4.88649 13.8954 4.91495C13.8811 4.95288 13.8654 4.98363 13.8547 5.00337C13.8332 5.04321 13.8092 5.07934 13.7904 5.10647C13.7513 5.16279 13.7011 5.2274 13.6475 5.29385C13.5382 5.42903 13.3869 5.6054 13.2115 5.80477C12.8592 6.20513 12.3918 6.71848 11.9272 7.2229C11.462 7.728 10.9971 8.22693 10.6487 8.59939C10.4744 8.78567 10.3291 8.94043 10.2274 9.04866L10.0674 9.21876L9.64739 8.82283ZM9.64739 8.82283L9.22748 8.42681C9.00878 8.65873 9.01947 9.02407 9.2514 9.24277C9.48332 9.46146 9.84868 9.45069 10.0674 9.21876L9.64739 8.82283Z" fill="white"/>
</svg>
