<svg width="136" height="101" viewBox="0 0 136 101" fill="none" xmlns="http://www.w3.org/2000/svg">
<path fill-rule="evenodd" clip-rule="evenodd" d="M108.125 14.313C114.195 16.0687 118.348 20.3228 122.413 24.9589C135.738 40.1784 136.922 59.2215 121.85 74.1267C98.4289 97.2302 54.5222 105.649 25.622 90.2335C19.2195 86.8284 10.3516 83.0709 5.64499 72.6712C1.26581 63.0007 3.8125 53.3227 8.81495 44.9829C13.9234 36.4273 21.5895 29.2483 27.3876 24.8378C52.7259 5.60416 97.3485 -6.81242 130.423 13.0072C131.106 13.3999 131.93 13.1935 132.301 12.5551C132.673 11.9167 132.478 11.0931 131.847 10.7128C97.8007 -9.6865 51.8088 2.90029 25.7298 22.6939C18.5124 28.1966 8.49207 37.8577 3.62933 49.1446C0.323561 56.8631 -0.609161 65.327 3.17232 73.7668C8.16426 84.8397 17.5516 88.9807 24.3466 92.6015C54.1814 108.52 99.5743 99.9026 123.729 76.0331C139.948 60.0172 138.766 39.5514 124.434 23.1904C120.072 18.1714 115.484 13.6421 108.896 11.7371C108.169 11.5275 107.409 11.9351 107.24 12.6562C107.019 13.365 107.452 14.1158 108.125 14.313Z" fill="#212121"/>
</svg>
