<svg width="63" height="17" viewBox="0 0 63 17" fill="none" xmlns="http://www.w3.org/2000/svg">
<path fill-rule="evenodd" clip-rule="evenodd" d="M28.9531 2.35739C28.2381 2.32041 27.0541 2.05669 25.9654 1.95484C25.0207 1.86658 24.1282 1.91351 23.5064 2.16262C22.8923 2.40774 22.4363 2.86431 22.1101 3.44339C21.7802 4.03418 21.5959 4.76672 21.425 5.33983C20.7079 7.74921 20.2132 10.2255 19.5702 12.6533C19.4038 13.273 19.7735 13.9126 20.3931 14.079C21.0166 14.2453 21.6524 13.8717 21.8188 13.2521C22.4583 10.8476 22.9494 8.39087 23.659 6.00488C23.7705 5.6306 23.8729 5.16706 24.0577 4.75686C24.133 4.5811 24.1965 4.39392 24.3664 4.32562C24.7179 4.18887 25.2194 4.22481 25.752 4.2759C26.8757 4.38117 28.0985 4.64825 28.8368 4.68492C29.478 4.71902 30.0265 4.22235 30.0568 3.58124C30.0909 2.94007 29.5982 2.39144 28.9531 2.35739Z" fill="#212121"/>
<path fill-rule="evenodd" clip-rule="evenodd" d="M28.4792 7.3916C26.7246 7.43072 24.9375 7.36537 23.1814 7.29578C22.5404 7.26945 21.9957 7.76996 21.9693 8.41102C21.9469 9.05591 22.4435 9.59672 23.0884 9.62299C24.8912 9.69583 26.7287 9.76051 28.53 9.72076C29.1744 9.70822 29.6836 9.17326 29.6672 8.52889C29.6547 7.88835 29.1198 7.3791 28.4792 7.3916Z" fill="#212121"/>
<path fill-rule="evenodd" clip-rule="evenodd" d="M31.4081 4.98652C31.3042 5.6325 31.1426 6.60156 31.0873 6.82363C30.612 8.72885 30.1367 10.6302 29.638 12.528C29.4716 13.1515 29.8451 13.7872 30.4647 13.9536C31.0882 14.1161 31.724 13.7464 31.8904 13.1228C32.3928 11.2134 32.8719 9.30424 33.3471 7.38738C33.4355 7.03283 33.7252 5.47183 33.8091 4.77952C33.8613 4.33226 33.7911 4.02647 33.7628 3.94143C33.6498 3.62453 33.4534 3.45241 33.2889 3.3459C32.9559 3.13292 32.5785 3.07588 32.1541 3.27574C32.0808 3.31167 31.6525 3.52321 31.411 4.33026C31.3441 4.55249 31.3471 4.77765 31.4081 4.98652Z" fill="#212121"/>
<path fill-rule="evenodd" clip-rule="evenodd" d="M36.6214 9.8592C38.27 9.1575 39.5062 7.52938 39.7733 6.01916C39.9464 5.03441 39.7397 4.10144 39.1282 3.38741C38.576 2.74636 37.6567 2.2422 36.2076 2.19178C35.4695 2.16676 34.7659 2.3976 34.0821 2.6592C33.2941 2.96491 32.4919 3.37565 31.8667 3.95487C31.395 4.39224 31.37 5.13036 31.8074 5.6021C32.2447 6.07384 32.9828 6.09884 33.4546 5.66148C33.8611 5.28324 34.4014 5.03519 34.919 4.83408C35.3092 4.68516 35.7028 4.50512 36.1302 4.52268C36.7984 4.54476 37.2388 4.6631 37.4219 4.99458C37.5772 5.27984 37.5044 5.64587 37.3693 6.00104C37.0766 6.7583 36.3953 7.48971 35.5487 7.77679C34.7524 8.0399 34.0409 7.97571 33.2287 7.9245C32.222 7.85649 32.0187 8.6203 31.9708 8.80733C31.9007 9.08397 31.8679 9.53095 32.3045 9.94833C32.3635 10.0019 32.4931 10.1089 32.6923 10.1994C32.8408 10.2712 33.153 10.3796 33.2859 10.4477C33.6377 10.6216 33.9976 10.8148 34.3229 11.0395C35.3498 11.7479 36.2933 12.609 36.9408 13.6914C37.2666 14.2423 37.9836 14.4229 38.5344 14.0932C39.0892 13.7673 39.2698 13.0505 38.9401 12.4996C38.3362 11.4826 37.5284 10.6081 36.6214 9.8592Z" fill="#212121"/>
<path fill-rule="evenodd" clip-rule="evenodd" d="M50.8765 2.30391C49.92 2.21581 48.4742 1.8275 47.1412 1.74835C45.9831 1.67849 44.902 1.84447 44.1131 2.37152C43.1817 2.99369 42.5504 3.98851 42.1272 5.14359C41.6142 6.55616 41.4192 8.22464 41.1365 9.43996C41.0008 10.0281 40.808 10.7063 40.8319 11.3312C40.852 11.96 41.0542 12.5515 41.5386 13.0575C42.1844 13.7284 43.1095 14.0886 44.1442 14.2184C45.35 14.3692 46.7069 14.2111 47.6615 14.1595C48.3056 14.1236 48.7952 13.5734 48.7593 12.9293C48.7236 12.2891 48.1733 11.7955 47.5331 11.8313C46.8192 11.872 45.85 11.9899 44.9214 11.9481C44.2647 11.9181 43.6153 11.853 43.2176 11.4428C43.0837 11.3048 43.1549 11.1136 43.1836 10.9346C43.2374 10.6038 43.3378 10.2685 43.4074 9.96469C43.6313 8.99867 43.7891 7.73455 44.1189 6.56131C44.3745 5.64923 44.7083 4.77493 45.4049 4.31124C45.9553 3.94272 46.7758 4.02881 47.5926 4.13043C48.7245 4.27054 49.8698 4.55021 50.6707 4.62098C51.3083 4.67842 51.8767 4.20484 51.9341 3.56724C51.9915 2.92576 51.5179 2.3613 50.8765 2.30391Z" fill="#212121"/>
<path fill-rule="evenodd" clip-rule="evenodd" d="M49.1662 7.05221C47.397 6.87796 45.6117 6.94078 43.8368 6.91805C43.1959 6.90725 42.667 7.42311 42.6562 8.06785C42.6493 8.70865 43.1651 9.23761 43.8059 9.24452C45.5147 9.26815 47.238 9.20226 48.9411 9.36964C49.5787 9.43096 50.1509 8.96112 50.2122 8.32347C50.2735 7.68194 49.8077 7.11348 49.1662 7.05221Z" fill="#212121"/>
<path fill-rule="evenodd" clip-rule="evenodd" d="M53.9306 10.9909C53.9408 10.8859 53.9618 10.7109 53.9875 10.6018C54.0718 10.2279 54.1873 9.86908 54.2267 9.62003C54.3925 8.66645 54.5589 7.46826 54.8856 6.34942C55.1566 5.42549 55.5176 4.54695 56.1822 4.01768C56.3551 3.87945 56.5953 3.83738 56.8589 3.80666C57.2814 3.7505 57.7553 3.76355 58.2335 3.79984C59.4189 3.88098 60.6252 4.06663 61.3853 3.99428C62.0252 3.9352 62.4952 3.36584 62.4361 2.72592C62.3731 2.08606 61.8038 1.6161 61.1638 1.67518C60.3417 1.75613 58.9321 1.46444 57.6737 1.44253C56.4968 1.41952 55.428 1.63973 54.7326 2.19271C53.9027 2.85234 53.3139 3.82326 52.9016 4.92771C52.3808 6.34039 52.1504 7.97051 51.9343 9.22377C51.8512 9.68698 51.5633 10.5141 51.5915 11.1621C51.6147 11.7326 51.8154 12.2192 52.1929 12.5752C52.8733 13.2146 53.798 13.5439 54.8169 13.6583C56.0186 13.7936 57.3559 13.6242 58.3414 13.5604C58.9854 13.5207 59.4712 12.9667 59.4314 12.3226C59.3918 11.6825 58.8377 11.1928 58.1976 11.2364C57.4526 11.2814 56.4875 11.4108 55.559 11.3767C54.9568 11.3576 54.3619 11.2996 53.9306 10.9909Z" fill="#212121"/>
<path fill-rule="evenodd" clip-rule="evenodd" d="M60.531 7.00283C58.5881 6.90081 56.6723 6.79069 54.7312 6.82455C54.0867 6.8371 53.5736 7.36823 53.5861 8.01265C53.5986 8.65319 54.1296 9.16638 54.774 9.15383C56.6608 9.1207 58.5222 9.22765 60.4068 9.32657C61.048 9.36067 61.5967 8.86798 61.6308 8.22682C61.6649 7.58177 61.1721 7.03304 60.531 7.00283Z" fill="#212121"/>
<path fill-rule="evenodd" clip-rule="evenodd" d="M6.99722 5.40322C5.53547 4.20165 4.35103 2.77072 3.46098 1.10357C3.28296 0.771516 2.86876 0.644852 2.53328 0.822862C2.20122 1.00087 2.07453 1.4151 2.25255 1.75058C3.23161 3.57519 4.52563 5.14306 6.12773 6.46103C6.41871 6.70066 6.85345 6.65957 7.09308 6.36859C7.33271 6.07419 7.2882 5.64285 6.99722 5.40322Z" fill="#212121"/>
<path fill-rule="evenodd" clip-rule="evenodd" d="M6.21232 0.723406C6.28763 2.10641 6.35611 3.48942 6.44169 4.87243C6.46566 5.24899 6.79087 5.53654 7.16743 5.51258C7.54399 5.48862 7.83154 5.16341 7.80758 4.78685C7.722 3.40726 7.65352 2.02769 7.57821 0.644677C7.55767 0.269142 7.23246 -0.0201271 6.8559 0.00109725C6.47934 0.0223216 6.18835 0.345817 6.21232 0.723406Z" fill="#212121"/>
<path fill-rule="evenodd" clip-rule="evenodd" d="M11.2964 1.0051C10.42 2.32649 9.42729 3.54516 8.42769 4.77754C8.18806 5.07195 8.23254 5.5033 8.52694 5.73951C8.82134 5.97914 9.2527 5.93462 9.4889 5.64022C10.5159 4.37703 11.536 3.12067 12.4398 1.76163C12.6486 1.44669 12.5596 1.02221 12.2446 0.813393C11.9331 0.604573 11.5052 0.690154 11.2964 1.0051Z" fill="#212121"/>
<path fill-rule="evenodd" clip-rule="evenodd" d="M14.6891 5.91712C12.3134 6.02325 9.79039 6.02667 7.41463 5.87605C7.03807 5.85551 6.71286 6.13964 6.6889 6.51963C6.66493 6.89619 6.95249 7.2214 7.32905 7.24536C9.75274 7.39599 12.3271 7.39256 14.7508 7.28644C15.1273 7.26932 15.4217 6.94755 15.4046 6.57098C15.3875 6.19442 15.0657 5.90001 14.6891 5.91712Z" fill="#212121"/>
<path fill-rule="evenodd" clip-rule="evenodd" d="M6.12437 6.35084C7.58953 8.14465 9.10607 9.90423 10.4651 11.7802C10.6876 12.0849 11.1156 12.1533 11.4237 11.9308C11.7283 11.7083 11.7968 11.2804 11.5743 10.9757C10.1981 9.07919 8.66448 7.29909 7.18219 5.48474C6.94256 5.19376 6.51121 5.14927 6.22023 5.3889C5.92583 5.62853 5.88474 6.05987 6.12437 6.35084Z" fill="#212121"/>
<path fill-rule="evenodd" clip-rule="evenodd" d="M6.56186 6.87172C6.94526 8.74083 7.05139 10.5278 7.07878 12.4209C7.0822 12.7974 7.39372 13.0987 7.77029 13.0953C8.15027 13.0884 8.45151 12.7803 8.44466 12.4003C8.41728 10.4182 8.30432 8.55255 7.9038 6.59443C7.82506 6.22472 7.46562 5.98507 7.09248 6.06381C6.72277 6.13912 6.48312 6.50201 6.56186 6.87172Z" fill="#212121"/>
<path fill-rule="evenodd" clip-rule="evenodd" d="M6.62436 6.72147C5.51521 8.93976 4.94352 11.4045 3.75564 13.5749C3.57421 13.9035 3.69742 14.3212 4.02948 14.5026C4.36154 14.684 4.77578 14.5608 4.95722 14.2321C6.15195 12.0481 6.73046 9.56964 7.84988 7.33423C8.01762 6.99533 7.88068 6.58453 7.5452 6.41337C7.2063 6.24562 6.79552 6.38256 6.62436 6.72147Z" fill="#212121"/>
<path fill-rule="evenodd" clip-rule="evenodd" d="M7.23825 6.21833C5.03023 6.60858 2.82563 6.78659 0.60392 7.05019C0.227358 7.09469 -0.0396583 7.4336 0.00484444 7.81017C0.0493472 8.18673 0.388284 8.45374 0.764846 8.40924C3.01052 8.14565 5.2425 7.96078 7.47791 7.56711C7.84762 7.49864 8.09752 7.14262 8.03248 6.7729C7.96401 6.39976 7.61139 6.14986 7.23825 6.21833Z" fill="#212121"/>
<path fill-rule="evenodd" clip-rule="evenodd" d="M8.7801 5.17837C8.32481 5.15783 7.89347 5.12701 7.44844 5.06197C7.07188 5.0072 6.72612 5.26737 6.67135 5.64051C6.61657 6.01365 6.87672 6.36283 7.24986 6.4176C7.74281 6.48949 8.21866 6.52372 8.71846 6.54426C9.09503 6.56138 9.4168 6.27039 9.43049 5.8904C9.44761 5.51384 9.15666 5.19549 8.7801 5.17837Z" fill="#212121"/>
</svg>
