<svg width="46" height="24" viewBox="0 0 46 24" fill="none" xmlns="http://www.w3.org/2000/svg">
<path fill-rule="evenodd" clip-rule="evenodd" d="M43.5521 3.47631C34.9185 19.5303 17.6721 26.0571 1.65383 17.0191C1.12058 16.7182 0.444355 16.9063 0.143402 17.433C-0.157551 17.969 0.0305644 18.6462 0.563816 18.9471C17.7332 28.6435 36.2502 21.731 45.5045 4.52964C45.7942 3.99357 45.592 3.31633 45.0531 3.02478C44.5142 2.74264 43.8418 2.94024 43.5521 3.47631Z" fill="#212121"/>
<path d="M15.1354 10.1341C16.9188 10.1341 18.3646 8.68833 18.3646 6.90492C18.3646 5.1215 16.9188 3.67578 15.1354 3.67578C13.352 3.67578 11.9062 5.1215 11.9062 6.90492C11.9062 8.68833 13.352 10.1341 15.1354 10.1341Z" fill="#212121"/>
<path d="M28.502 6.69924C30.2505 6.69924 31.668 5.28177 31.668 3.53321C31.668 1.78465 30.2505 0.367188 28.502 0.367188C26.7534 0.367188 25.3359 1.78465 25.3359 3.53321C25.3359 5.28177 26.7534 6.69924 28.502 6.69924Z" fill="#212121"/>
</svg>
