<svg width="235" height="99" viewBox="0 0 235 99" fill="none" xmlns="http://www.w3.org/2000/svg">
<path d="M124.069 2.21168C156.033 5.61668 184.338 14.29 204.261 25.53C214.223 31.1506 222.057 37.3948 227.21 43.9124C232.361 50.4263 234.804 57.1705 234.094 63.8362C233.385 70.4936 229.619 76.237 223.28 81.0229C216.931 85.8163 208.035 89.6192 197.179 92.3632C175.47 97.8502 146.101 99.059 114.115 95.6516C82.0775 92.2387 53.0345 87.7921 32.3826 80.764C22.0532 77.2489 13.8918 73.11 8.50523 68.1853C3.14451 63.2842 0.555568 57.6334 1.26198 51.0022C1.97344 44.3237 5.9369 37.5009 12.5858 31.105C19.2283 24.7153 28.5009 18.8025 39.7058 13.9487C62.1146 4.24163 92.1557 -1.18806 124.069 2.21168Z" stroke="#212121" stroke-width="1.5"/>
</svg>
