<svg width="72" height="44" viewBox="0 0 72 44" fill="none" xmlns="http://www.w3.org/2000/svg">
<path fill-rule="evenodd" clip-rule="evenodd" d="M9.16005 43.893C6.31614 42.6166 3.49157 41.379 0.686351 40.0205C0.0817783 39.7304 -0.169686 39.0101 0.120509 38.4106C0.410704 37.8063 1.13612 37.5548 1.73585 37.8449C4.52656 39.1937 7.32689 40.4217 10.1515 41.6884C10.7609 41.9639 11.0318 42.6795 10.761 43.2838C10.4853 43.893 9.76946 44.1686 9.16005 43.893Z" fill="#212121"/>
<path fill-rule="evenodd" clip-rule="evenodd" d="M30.0548 28.7945C25.9243 19.8554 22.2484 10.7131 18.3114 1.69177C18.0454 1.07777 18.326 0.367067 18.9354 0.101164C19.5496 -0.164738 20.2605 0.110853 20.5313 0.724846C24.4587 9.7317 28.1248 18.8594 32.2504 27.7792C32.5309 28.3884 32.265 29.1039 31.6604 29.3843C31.051 29.6648 30.3353 29.3989 30.0548 28.7945Z" fill="#212121"/>
<path fill-rule="evenodd" clip-rule="evenodd" d="M65.4923 26.4738C66.8127 18.255 68.3652 10.0603 69.5937 1.82703C69.6953 1.16952 70.3094 0.715141 70.9672 0.811833C71.6298 0.908524 72.0844 1.52728 71.9877 2.18478C70.7543 10.4278 69.2018 18.6321 67.8766 26.8606C67.7702 27.5181 67.1511 27.9677 66.4934 27.8614C65.8308 27.755 65.3859 27.1361 65.4923 26.4738Z" fill="#212121"/>
</svg>
