<svg width="50" height="54" viewBox="0 0 50 54" fill="none" xmlns="http://www.w3.org/2000/svg">
<path fill-rule="evenodd" clip-rule="evenodd" d="M16.3947 50.3934C11.7159 49.0727 6.81739 48.4064 2.0655 47.7961C1.04201 47.6681 0.0917735 48.3822 0.0186674 49.3881C-0.127545 50.3948 0.603945 51.3155 1.55432 51.4435C6.16001 52.031 10.9115 52.6597 15.371 53.9312C16.3213 54.2069 17.3452 53.6392 17.6377 52.6627C17.9301 51.6869 17.3451 50.6699 16.3947 50.3934Z" fill="#212121"/>
<path fill-rule="evenodd" clip-rule="evenodd" d="M30.5778 31.6672C23.0479 23.9378 14.5676 17.2034 7.18384 9.26662C6.52589 8.52538 5.35619 8.48567 4.62513 9.17764C3.89407 9.87035 3.82124 11.0352 4.55231 11.7764C11.936 19.7359 20.4163 26.4924 27.9463 34.2446C28.6773 34.9682 29.8467 34.9785 30.5778 34.2666C31.2358 33.5555 31.3089 32.3907 30.5778 31.6672Z" fill="#212121"/>
<path fill-rule="evenodd" clip-rule="evenodd" d="M44.6921 1.93823C44.9114 6.36215 45.1303 10.7861 45.3497 15.2107C45.3497 16.2241 46.2274 17.0065 47.2508 16.9572C48.2743 16.9072 49.005 16.0446 49.005 15.0306C48.7856 10.5993 48.5667 6.16875 48.3474 1.73821C48.2743 0.724886 47.3969 -0.0523894 46.3734 0.00276262C45.423 0.0579146 44.619 0.925642 44.6921 1.93823Z" fill="#212121"/>
</svg>
