<svg width="181" height="48" viewBox="0 0 181 48" fill="none" xmlns="http://www.w3.org/2000/svg">
<mask id="path-1-outside-1_283_4167" maskUnits="userSpaceOnUse" x="0" y="0" width="181" height="48" fill="black">
<rect fill="white" width="181" height="48"/>
<path d="M30.8185 1C31.1082 1.04737 31.3135 1.15395 31.4342 1.31975C31.579 1.46186 31.6515 1.62765 31.6515 1.81713C31.6515 2.00661 31.579 2.18425 31.4342 2.35005C31.3135 2.49216 31.1082 2.57505 30.8185 2.59874C28.7421 2.66979 26.6777 2.80006 24.6254 2.98954C22.5973 3.15534 20.5571 3.3685 18.5048 3.62904C18.7945 3.60535 19.0601 3.62904 19.3016 3.70009C19.5671 3.77115 19.7844 3.90142 19.9535 4.0909C20.0742 4.23301 20.1345 4.3988 20.1345 4.58828C20.1587 4.75408 20.1587 4.93172 20.1345 5.1212C20.1104 5.23962 20.0742 5.39358 20.0259 5.58306C19.9776 5.77254 19.9655 5.84359 19.9897 5.79622V5.76069C19.869 6.32913 19.7603 6.81468 19.6637 7.21732C19.5913 7.59628 19.5189 7.98709 19.4464 8.38973C19.374 8.76869 19.3016 9.17134 19.2291 9.59767C19.1808 10.024 19.1205 10.5569 19.048 11.1964C18.71 14.1097 18.5531 17.0229 18.5772 19.9362C18.6255 22.8495 18.6497 25.7746 18.6497 28.7115C18.6014 28.9247 18.5048 29.1023 18.3599 29.2444C18.2151 29.3628 18.0581 29.4339 17.8891 29.4576C17.7201 29.4576 17.5511 29.4102 17.3821 29.3155C17.2372 29.2207 17.1285 29.0549 17.0561 28.8181C17.032 26.3075 17.0078 23.8205 16.9837 21.3573C16.9595 18.8941 17.032 16.419 17.201 13.932C17.2734 12.9373 17.3579 11.978 17.4545 11.0543C17.5511 10.1069 17.6839 9.14765 17.8529 8.17657L18.4324 5.33436C17.8287 5.38173 17.2493 5.45279 16.6939 5.54753C16.1628 5.64227 15.5833 5.77254 14.9555 5.93833C13.5069 6.31729 12.0823 6.76731 10.682 7.28838C9.30572 7.80945 7.86912 8.17657 6.37216 8.38973C6.10657 8.4371 5.69611 8.49632 5.14079 8.56737C4.60961 8.61474 4.05428 8.62658 3.47481 8.6029C2.91949 8.57921 2.40038 8.49632 1.91749 8.35421C1.45875 8.18841 1.16901 7.91603 1.04829 7.53707C1 7.32391 0.987928 7.15811 1.01207 7.03968C1.03622 6.89757 1.10865 6.73178 1.22937 6.5423C1.76055 6.04491 2.34002 5.63043 2.96778 5.29883C3.61968 4.96724 4.29573 4.69487 4.99592 4.4817C5.72026 4.26854 6.44459 4.0909 7.16893 3.94879C7.89326 3.80668 8.60553 3.66457 9.30572 3.52246C12.855 2.81191 16.4163 2.25531 19.9897 1.85266C23.5872 1.42633 27.1968 1.14211 30.8185 1ZM16.8026 3.87773C16.8509 3.87773 16.8871 3.87773 16.9112 3.87773C16.9354 3.85405 16.9716 3.8422 17.0199 3.8422C14.4847 4.19748 11.9858 4.62381 9.52302 5.1212C8.50895 5.31068 7.48281 5.512 6.44459 5.72516C5.40638 5.93833 4.45267 6.30545 3.58346 6.82652C4.35609 6.87389 5.0925 6.87389 5.79269 6.82652C6.49288 6.75547 7.30172 6.60151 8.21921 6.36466C9.66789 5.9857 11.0924 5.53569 12.4928 5.01461C13.8932 4.49354 15.3298 4.11458 16.8026 3.87773Z"/>
<path d="M23.8657 5.76069C23.8657 5.47647 23.9382 5.25146 24.083 5.08567C24.252 4.91987 24.4331 4.82513 24.6263 4.80145C24.8194 4.77776 25.0005 4.83698 25.1695 4.97909C25.3385 5.09751 25.4472 5.29884 25.4955 5.58306C25.5921 8.85159 25.8697 12.1083 26.3285 15.3531C26.8114 18.5743 27.2218 21.8192 27.5598 25.0877C27.6081 25.7509 27.6564 26.4851 27.7047 27.2904C27.7771 28.0957 27.8375 28.8655 27.8858 29.5997C27.9582 30.3102 28.0186 30.9261 28.0669 31.4471C28.1152 31.9682 28.1634 32.2761 28.2117 32.3708C28.5498 31.8971 28.8274 31.4234 29.0447 30.9497C29.2862 30.4524 29.5518 29.9668 29.8415 29.4931C30.3002 28.8773 30.7348 28.2852 31.1453 27.7167C31.5558 27.1246 31.9662 26.5325 32.3767 25.9404C33.2217 24.7561 33.9581 24.01 34.5859 23.7021C35.2378 23.3942 35.8173 23.3824 36.3243 23.6666C36.8313 23.9271 37.278 24.4127 37.6643 25.1232C38.0506 25.8338 38.4007 26.6154 38.7146 27.468C39.0526 28.297 39.3665 29.126 39.6562 29.955C39.946 30.7603 40.2478 31.3998 40.5617 31.8735C40.6824 32.1577 40.7065 32.4064 40.6341 32.6195C40.5858 32.8327 40.4772 32.9985 40.3081 33.1169C40.1391 33.2117 39.946 33.2472 39.7287 33.2235C39.5355 33.1761 39.3544 33.034 39.1854 32.7972C38.8474 32.2524 38.5577 31.6366 38.3162 30.9497C38.0989 30.2629 37.8695 29.576 37.6281 28.8891C37.4108 28.2023 37.1573 27.5509 36.8675 26.9351C36.602 26.3193 36.2519 25.8101 35.8173 25.4074C35.5517 25.4311 35.2257 25.6561 34.8394 26.0825C34.4531 26.4851 34.0306 27.0062 33.5718 27.6457C33.1372 28.2615 32.6664 28.9365 32.1594 29.6707C31.6523 30.405 31.1574 31.1037 30.6745 31.7669C30.1916 32.4064 29.7087 32.963 29.2258 33.4367C28.7671 33.9104 28.3445 34.1946 27.9582 34.2893C27.596 34.4078 27.2701 34.2893 26.9804 33.9341C26.7148 33.5788 26.5216 32.8919 26.4009 31.8735C26.3043 31.1866 26.244 30.5234 26.2198 29.8839C26.2198 29.2444 26.1957 28.6049 26.1474 27.9654C26.0749 26.9707 25.9904 26.0232 25.8939 25.1232C25.7973 24.2232 25.6886 23.3113 25.5679 22.3876C25.3989 20.9665 25.2178 19.5691 25.0247 18.1953C24.8315 16.7979 24.6383 15.3887 24.4452 13.9676C24.2762 12.5701 24.1434 11.1964 24.0468 9.84636C23.9744 8.49632 23.914 7.13443 23.8657 5.76069Z"/>
<path d="M48.0223 28.6049C47.467 28.6049 46.972 28.5931 46.5374 28.5694C46.127 28.522 45.6924 28.3918 45.2336 28.1786C45.0405 28.1786 44.8594 28.1194 44.6904 28.0009C44.5455 27.8825 44.4369 27.7404 44.3644 27.5746C44.3161 27.4088 44.3161 27.2312 44.3644 27.0417C44.4369 26.8522 44.5938 26.6864 44.8352 26.5443C45.1008 26.4733 45.3544 26.4496 45.5958 26.4733C45.8614 26.497 46.127 26.5443 46.3926 26.6154C46.6582 26.6864 46.9237 26.7575 47.1893 26.8285C47.4549 26.8996 47.7326 26.9233 48.0223 26.8996C49.3261 26.7575 50.1953 26.5088 50.6299 26.1535C51.0887 25.7982 51.2456 25.4548 51.1007 25.1232C50.98 24.7679 50.6299 24.4719 50.0505 24.235C49.4951 23.9745 48.8432 23.8561 48.0948 23.8798C47.3704 23.9034 46.6099 24.1166 45.8131 24.5192C45.0405 24.9219 44.3886 25.5969 43.8574 26.5443C43.3745 27.397 43.2055 28.1549 43.3504 28.8181C43.4952 29.4813 43.8212 30.026 44.3282 30.4524C44.8594 30.8787 45.5234 31.1984 46.3201 31.4116C47.1169 31.6248 47.9378 31.7313 48.7829 31.7313C49.6279 31.7077 50.4368 31.5774 51.2094 31.3405C51.982 31.08 52.6098 30.701 53.0927 30.2037C53.31 30.0615 53.5152 30.0023 53.7084 30.026C53.9257 30.026 54.0947 30.0971 54.2154 30.2392C54.3361 30.3576 54.4086 30.5234 54.4327 30.7366C54.4568 30.9261 54.4206 31.1392 54.324 31.3761C53.7446 31.9682 52.9961 32.4301 52.0786 32.7616C51.1611 33.0695 50.1953 33.2472 49.1813 33.2946C48.1672 33.3419 47.1531 33.2709 46.139 33.0814C45.1491 32.8682 44.2799 32.5366 43.5314 32.0866C42.8071 31.6366 42.2639 31.0682 41.9017 30.3813C41.5395 29.6944 41.4792 28.901 41.7206 28.0009C41.8896 27.3851 42.0224 26.8996 42.119 26.5443C42.2397 26.189 42.3846 25.8811 42.5536 25.6206C42.7226 25.3601 42.9278 25.0877 43.1693 24.8035C43.4107 24.5192 43.7487 24.1403 44.1833 23.6666C45.0767 22.6955 46.0304 22.1271 47.0445 21.9613C48.0827 21.7718 49.0364 21.8428 49.9056 22.1744C50.7989 22.506 51.5354 23.0034 52.1148 23.6666C52.6943 24.3298 52.972 25.0166 52.9478 25.7272C52.9478 26.4141 52.5736 27.0417 51.8251 27.6101C51.0766 28.1549 49.809 28.4865 48.0223 28.6049Z"/>
<path d="M68.7233 24.9811C68.5302 24.839 68.3974 24.685 68.325 24.5192C68.2767 24.3298 68.2767 24.1521 68.325 23.9863C68.3974 23.8205 68.5181 23.6903 68.6871 23.5955C68.8561 23.5008 69.0614 23.4653 69.3028 23.4889C69.7857 23.6784 70.2082 23.9745 70.5704 24.3771C70.9326 24.7561 71.2585 25.1469 71.5482 25.5495C72.1519 26.3312 72.6589 27.0772 73.0693 27.7878C73.5039 28.4983 73.8782 29.197 74.1921 29.8839C74.4577 28.8418 74.7595 27.8233 75.0975 26.8285C75.4597 25.8338 75.8943 24.839 76.4013 23.8442C76.5462 23.5363 76.8238 23.0626 77.2343 22.4231C77.6689 21.7599 78.1518 21.1323 78.6829 20.5402C79.2383 19.948 79.7936 19.4862 80.3489 19.1546C80.9284 18.7993 81.4475 18.7875 81.9062 19.1191C82.1236 19.2612 82.3409 19.4033 82.5581 19.5454C82.7755 19.6875 82.9686 19.8651 83.1376 20.0783C83.5481 20.5757 83.8861 21.2507 84.1517 22.1034C84.4173 22.9324 84.5863 23.8087 84.6587 24.7324C84.7553 25.6324 84.7312 26.5088 84.5863 27.3615C84.4656 28.2141 84.2 28.9247 83.7895 29.4931L82.3409 31.4827C82.0994 31.7906 81.7372 32.0866 81.2543 32.3708C80.7956 32.6551 80.2886 32.8801 79.7332 33.0459C79.2021 33.2117 78.6588 33.2946 78.1035 33.2946C77.5723 33.2946 77.1136 33.1643 76.7272 32.9038C76.5824 32.7143 76.5099 32.5248 76.5099 32.3353C76.5099 32.1222 76.5582 31.9564 76.6548 31.8379C76.7755 31.6958 76.9325 31.6129 77.1256 31.5892C77.3188 31.5419 77.524 31.5656 77.7413 31.6603C77.9103 31.7787 78.0431 31.8261 78.1397 31.8024C78.2604 31.755 78.526 31.684 78.9365 31.5892C79.2986 31.3998 79.6729 31.2221 80.0592 31.0563C80.4455 30.8668 80.8077 30.6418 81.1457 30.3813C81.7735 29.8602 82.2563 29.1615 82.5944 28.2852C82.9565 27.3851 83.1497 26.4614 83.1738 25.514C83.198 24.5429 83.0531 23.6192 82.7392 22.7429C82.4254 21.8428 81.9304 21.1441 81.2543 20.6467C80.8922 20.7178 80.5542 20.8954 80.2403 21.1797C79.9505 21.4402 79.6729 21.7481 79.4073 22.1034C79.1658 22.435 78.9244 22.7902 78.6829 23.1692C78.4656 23.5245 78.2725 23.8561 78.1035 24.164C77.2826 25.514 76.6427 26.9351 76.184 28.4273C75.7253 29.8958 75.3752 31.4116 75.1337 32.9748C75.3752 34.1827 75.4838 35.4617 75.4597 36.8118C75.4355 38.1618 75.3631 39.725 75.2424 41.5014C75.1941 42.3067 75.182 43.1357 75.2061 43.9884C75.2303 44.841 75.1458 45.67 74.9526 46.4753C74.6387 47.0437 74.1921 47.1503 73.6126 46.795C73.347 46.4871 73.1659 46.0726 73.0693 45.5516C72.9728 45.0542 72.9124 44.5331 72.8883 43.9884C72.8641 43.4436 72.8641 42.9107 72.8883 42.3896C72.9366 41.8685 72.9607 41.4422 72.9607 41.1106C72.9848 39.7606 73.0331 38.4224 73.1056 37.096C73.2021 35.7696 73.347 34.4551 73.5402 33.1524C73.3229 32.0866 72.9607 31.0445 72.4537 30.026C71.9466 28.9839 71.2344 27.847 70.3169 26.6154C70.1237 26.3312 69.8943 26.0232 69.6287 25.6917C69.3632 25.3601 69.0614 25.1232 68.7233 24.9811Z"/>
<path d="M87.9426 23.6666C87.8701 23.5008 87.7977 23.3113 87.7253 23.0981C87.6528 22.8613 87.5804 22.6481 87.508 22.4586C87.4597 22.2692 87.4235 22.1152 87.3993 21.9968C87.3752 21.8784 87.3631 21.831 87.3631 21.8547C87.3631 21.5705 87.4355 21.3455 87.5804 21.1797C87.7494 21.0139 87.9305 20.931 88.1236 20.931C88.3168 20.9073 88.4979 20.9665 88.6669 21.1086C88.8359 21.227 88.9446 21.4284 88.9929 21.7126C88.9929 22.0678 89.0411 22.4586 89.1377 22.885C89.2584 23.2876 89.3912 23.7021 89.5361 24.1284C89.681 24.5311 89.8258 24.9456 89.9707 25.3719C90.1156 25.7746 90.2242 26.1654 90.2967 26.5443C90.9244 25.0048 91.7815 23.6429 92.8681 22.4586C93.9787 21.2507 95.367 20.2441 97.033 19.4388C97.2503 19.3678 97.4434 19.3796 97.6124 19.4743C97.8056 19.5691 97.9505 19.6993 98.0471 19.8651C98.1436 20.0309 98.1678 20.2204 98.1195 20.4336C98.0953 20.6231 97.9746 20.8007 97.7573 20.9665C95.367 22.1034 93.6165 23.6784 92.5059 25.6917C91.3952 27.7049 90.8037 30.0497 90.7313 32.7261V33.5788C90.7313 33.6972 90.7071 33.7801 90.6588 33.8275C90.5381 34.088 90.3691 34.2538 90.1518 34.3249C90.0552 34.3249 89.9586 34.3249 89.8621 34.3249C89.7655 34.3249 89.6689 34.3012 89.5723 34.2538H89.5361C89.512 34.2538 89.4757 34.2301 89.4275 34.1827L89.3188 34.0762L89.1015 33.6498V32.4774C89.1015 31.3405 89.0774 30.2273 89.0291 29.1378C88.9808 28.0483 88.8118 26.9825 88.522 25.9404C88.4013 25.3245 88.3168 24.8745 88.2685 24.5903C88.2202 24.2824 88.1116 23.9745 87.9426 23.6666Z"/>
<path d="M106.491 20.6112C106.853 20.6112 107.07 20.7533 107.143 21.0375C108.978 21.3455 110.45 21.8902 111.561 22.6718C112.672 23.4297 113.444 24.3061 113.879 25.3009C114.338 26.2719 114.47 27.2786 114.277 28.3207C114.108 29.3628 113.65 30.2984 112.901 31.1274C112.177 31.9327 111.187 32.5603 109.931 33.0103C108.676 33.4367 107.203 33.5433 105.513 33.3301C104.185 33.1406 103.086 32.7024 102.217 32.0156C101.372 31.305 100.744 30.4879 100.334 29.5642C99.9475 28.6168 99.7906 27.622 99.863 26.5798C99.9354 25.514 100.225 24.5429 100.732 23.6666C101.239 22.7902 101.976 22.0678 102.941 21.4994C103.907 20.9073 105.09 20.6112 106.491 20.6112ZM105.513 22.3165C104.619 22.4586 103.859 22.7784 103.231 23.2758C102.628 23.7495 102.169 24.3179 101.855 24.9811C101.565 25.6206 101.408 26.3075 101.384 27.0417C101.384 27.7759 101.541 28.4628 101.855 29.1023C102.169 29.7418 102.628 30.2984 103.231 30.7721C103.859 31.2221 104.644 31.5063 105.585 31.6248C107.13 31.7906 108.434 31.6958 109.497 31.3405C110.559 30.9853 111.368 30.4997 111.923 29.8839C112.479 29.2444 112.768 28.5339 112.792 27.7523C112.841 26.947 112.611 26.189 112.104 25.4785C111.621 24.7443 110.861 24.1166 109.823 23.5955C108.784 23.0508 107.481 22.7073 105.911 22.5652L105.513 22.3165Z"/>
<path d="M124.294 21.3218C124.632 21.4402 124.946 21.606 125.235 21.8192C125.549 22.0323 125.827 22.2929 126.068 22.6008C126.117 22.6008 126.165 22.6126 126.213 22.6363C126.262 22.66 126.322 22.6718 126.394 22.6718C126.805 22.9797 127.058 23.3232 127.155 23.7021C127.251 24.0811 127.276 24.5311 127.227 25.0522C127.179 25.3127 127.082 25.514 126.938 25.6561C126.793 25.7746 126.636 25.8456 126.467 25.8693C126.298 25.893 126.129 25.8575 125.96 25.7627C125.791 25.6443 125.67 25.4667 125.598 25.2298C125.308 24.2113 124.885 23.4889 124.33 23.0626C123.775 22.6126 123.171 22.3994 122.519 22.4231C121.867 22.4468 121.203 22.6481 120.527 23.0271C119.851 23.4061 119.248 23.8916 118.716 24.4837C118.209 25.0522 117.799 25.6917 117.485 26.4022C117.195 27.1128 117.087 27.8115 117.159 28.4983C117.231 29.1852 117.545 29.8129 118.101 30.3813C118.656 30.9261 119.513 31.3524 120.672 31.6603C121.324 31.7787 121.964 31.8498 122.592 31.8735C123.243 31.8971 123.883 31.8853 124.511 31.8379C124.897 31.7906 125.235 31.7432 125.525 31.6958C125.815 31.6484 126.08 31.5892 126.322 31.5182C126.587 31.4471 126.853 31.3642 127.119 31.2695C127.384 31.1511 127.698 31.0208 128.06 30.8787C128.398 30.7603 128.664 30.6418 128.857 30.5234C129.074 30.405 129.268 30.2984 129.437 30.2037C129.437 30.1089 129.449 30.0023 129.473 29.8839C129.497 29.7655 129.569 29.6471 129.69 29.5286C129.932 29.3628 130.125 29.2326 130.27 29.1378C130.439 29.0431 130.62 28.972 130.813 28.9247C131.344 28.7826 131.73 28.9602 131.972 29.4576C132.141 29.7418 132.141 30.0734 131.972 30.4524C131.272 31.0682 130.463 31.6366 129.545 32.1577C128.628 32.6551 127.722 32.9985 126.829 33.188C126.056 33.3064 125.332 33.413 124.656 33.5077C123.98 33.6261 123.231 33.6617 122.41 33.6143C121.952 33.5669 121.553 33.5196 121.215 33.4722C120.901 33.4011 120.588 33.3301 120.274 33.259C119.984 33.1643 119.682 33.0577 119.368 32.9393C119.079 32.8209 118.728 32.6787 118.318 32.513C117.28 32.1103 116.543 31.4945 116.109 30.6655C115.674 29.8365 115.481 28.9484 115.529 28.0009C115.578 27.0299 115.843 26.0706 116.326 25.1232C116.809 24.1521 117.437 23.3232 118.209 22.6363C119.006 21.9257 119.924 21.4283 120.962 21.1441C122 20.8599 123.111 20.9191 124.294 21.3218Z"/>
<path d="M139.307 28.6049C138.752 28.6049 138.257 28.5931 137.822 28.5694C137.412 28.522 136.977 28.3918 136.518 28.1786C136.325 28.1786 136.144 28.1194 135.975 28.0009C135.83 27.8825 135.722 27.7404 135.649 27.5746C135.601 27.4088 135.601 27.2312 135.649 27.0417C135.722 26.8522 135.879 26.6864 136.12 26.5443C136.386 26.4733 136.639 26.4496 136.881 26.4733C137.146 26.497 137.412 26.5443 137.677 26.6154C137.943 26.6864 138.208 26.7575 138.474 26.8285C138.74 26.8996 139.017 26.9233 139.307 26.8996C140.611 26.7575 141.48 26.5088 141.915 26.1535C142.373 25.7982 142.53 25.4548 142.385 25.1232C142.265 24.7679 141.915 24.4719 141.335 24.235C140.78 23.9745 140.128 23.8561 139.379 23.8798C138.655 23.9034 137.895 24.1166 137.098 24.5192C136.325 24.9219 135.673 25.5969 135.142 26.5443C134.659 27.397 134.49 28.1549 134.635 28.8181C134.78 29.4813 135.106 30.026 135.613 30.4524C136.144 30.8787 136.808 31.1984 137.605 31.4116C138.402 31.6248 139.223 31.7313 140.068 31.7313C140.913 31.7077 141.721 31.5774 142.494 31.3405C143.267 31.08 143.895 30.701 144.377 30.2037C144.595 30.0615 144.8 30.0023 144.993 30.026C145.21 30.026 145.379 30.0971 145.5 30.2392C145.621 30.3576 145.693 30.5234 145.717 30.7366C145.742 30.9261 145.705 31.1392 145.609 31.3761C145.029 31.9682 144.281 32.4301 143.363 32.7616C142.446 33.0695 141.48 33.2472 140.466 33.2946C139.452 33.3419 138.438 33.2709 137.424 33.0814C136.434 32.8682 135.565 32.5366 134.816 32.0866C134.092 31.6366 133.549 31.0682 133.186 30.3813C132.824 29.6944 132.764 28.901 133.005 28.0009C133.174 27.3851 133.307 26.8996 133.404 26.5443C133.524 26.189 133.669 25.8811 133.838 25.6206C134.007 25.3601 134.213 25.0877 134.454 24.8035C134.695 24.5192 135.033 24.1403 135.468 23.6666C136.361 22.6955 137.315 22.1271 138.329 21.9613C139.367 21.7718 140.321 21.8428 141.19 22.1744C142.084 22.506 142.82 23.0034 143.4 23.6666C143.979 24.3298 144.257 25.0166 144.233 25.7272C144.233 26.4141 143.858 27.0417 143.11 27.6101C142.361 28.1549 141.094 28.4865 139.307 28.6049Z"/>
<path d="M161.712 18.3019C161.93 18.5151 162.051 18.7283 162.075 18.9414C162.099 19.1546 162.051 19.3441 161.93 19.5099C161.809 19.652 161.64 19.7467 161.423 19.7941C161.205 19.8415 160.976 19.8059 160.735 19.6875C160.203 19.7349 159.708 19.7941 159.25 19.8651C158.839 19.9125 158.417 19.9836 157.982 20.0783C157.548 20.1494 157.161 20.2086 156.823 20.2559C156.195 20.3744 155.556 20.4809 154.904 20.5757C154.252 20.6704 153.588 20.7889 152.912 20.931C152.26 21.0731 151.62 21.2626 150.992 21.4994C150.365 21.7363 149.773 22.0323 149.218 22.3876C149.918 22.8139 150.666 23.1692 151.463 23.4534C152.284 23.714 153.105 23.9508 153.926 24.164C154.771 24.3535 155.604 24.5548 156.425 24.7679C157.27 24.9811 158.067 25.2535 158.815 25.5851C159.564 25.9167 160.252 26.343 160.88 26.8641C161.507 27.3851 162.038 28.0602 162.473 28.8891C162.594 29.2681 162.594 29.6352 162.473 29.9905C161.821 30.9853 161 31.7313 160.01 32.2287C159.045 32.7261 157.994 33.0577 156.859 33.2235C155.749 33.3656 154.614 33.4011 153.455 33.3301C152.296 33.2353 151.21 33.1169 150.196 32.9748C149.954 32.8801 149.773 32.7498 149.652 32.584C149.532 32.4182 149.471 32.2524 149.471 32.0866C149.471 31.8971 149.532 31.7313 149.652 31.5892C149.773 31.4471 149.954 31.3405 150.196 31.2695C150.944 31.3879 151.825 31.5063 152.839 31.6248C153.853 31.7195 154.868 31.7432 155.882 31.6958C156.896 31.6248 157.849 31.4234 158.743 31.0918C159.636 30.7603 160.324 30.2037 160.807 29.4221C160.493 28.7826 160.034 28.2378 159.431 27.7878C158.851 27.3378 158.175 26.9588 157.403 26.6509C156.63 26.3193 155.809 26.0469 154.94 25.8338C154.071 25.5969 153.202 25.3601 152.332 25.1232C151.463 24.8864 150.618 24.6258 149.797 24.3416C149 24.0574 148.288 23.714 147.66 23.3113C147.564 23.1455 147.491 23.0271 147.443 22.956C147.419 22.8613 147.407 22.731 147.407 22.5652C147.455 22.0678 147.805 21.5823 148.457 21.1086C149.133 20.6349 149.966 20.2086 150.956 19.8296C151.946 19.4506 153.02 19.1191 154.179 18.8348C155.338 18.5506 156.437 18.3375 157.475 18.1953C158.513 18.0532 159.419 17.994 160.191 18.0177C160.964 18.0177 161.471 18.1124 161.712 18.3019Z"/>
<path d="M179.149 18.3019C179.366 18.5151 179.487 18.7283 179.511 18.9414C179.535 19.1546 179.487 19.3441 179.366 19.5099C179.245 19.652 179.076 19.7467 178.859 19.7941C178.642 19.8415 178.413 19.8059 178.171 19.6875C177.64 19.7349 177.145 19.7941 176.686 19.8651C176.276 19.9125 175.853 19.9836 175.419 20.0783C174.984 20.1494 174.598 20.2086 174.26 20.2559C173.632 20.3744 172.992 20.4809 172.34 20.5757C171.688 20.6704 171.024 20.7889 170.348 20.931C169.696 21.0731 169.057 21.2626 168.429 21.4994C167.801 21.7363 167.209 22.0323 166.654 22.3876C167.354 22.8139 168.103 23.1692 168.9 23.4534C169.72 23.714 170.541 23.9508 171.362 24.164C172.207 24.3535 173.04 24.5548 173.861 24.7679C174.706 24.9811 175.503 25.2535 176.252 25.5851C177 25.9167 177.688 26.343 178.316 26.8641C178.944 27.3851 179.475 28.0602 179.909 28.8891C180.03 29.2681 180.03 29.6352 179.909 29.9905C179.258 30.9853 178.437 31.7313 177.447 32.2287C176.481 32.7261 175.431 33.0577 174.296 33.2235C173.185 33.3656 172.05 33.4011 170.891 33.3301C169.733 33.2353 168.646 33.1169 167.632 32.9748C167.391 32.8801 167.209 32.7498 167.089 32.584C166.968 32.4182 166.908 32.2524 166.908 32.0866C166.908 31.8971 166.968 31.7313 167.089 31.5892C167.209 31.4471 167.391 31.3405 167.632 31.2695C168.38 31.3879 169.262 31.5063 170.276 31.6248C171.29 31.7195 172.304 31.7432 173.318 31.6958C174.332 31.6248 175.286 31.4234 176.179 31.0918C177.072 30.7603 177.761 30.2037 178.243 29.4221C177.93 28.7826 177.471 28.2378 176.867 27.7878C176.288 27.3378 175.612 26.9588 174.839 26.6509C174.066 26.3193 173.246 26.0469 172.376 25.8338C171.507 25.5969 170.638 25.3601 169.769 25.1232C168.9 24.8864 168.054 24.6258 167.234 24.3416C166.437 24.0574 165.725 23.714 165.097 23.3113C165 23.1455 164.928 23.0271 164.879 22.956C164.855 22.8613 164.843 22.731 164.843 22.5652C164.892 22.0678 165.242 21.5823 165.894 21.1086C166.57 20.6349 167.403 20.2086 168.393 19.8296C169.382 19.4506 170.457 19.1191 171.616 18.8348C172.775 18.5506 173.873 18.3375 174.912 18.1953C175.95 18.0532 176.855 17.994 177.628 18.0177C178.4 18.0177 178.907 18.1124 179.149 18.3019Z"/>
</mask>
<path d="M30.8185 1C31.1082 1.04737 31.3135 1.15395 31.4342 1.31975C31.579 1.46186 31.6515 1.62765 31.6515 1.81713C31.6515 2.00661 31.579 2.18425 31.4342 2.35005C31.3135 2.49216 31.1082 2.57505 30.8185 2.59874C28.7421 2.66979 26.6777 2.80006 24.6254 2.98954C22.5973 3.15534 20.5571 3.3685 18.5048 3.62904C18.7945 3.60535 19.0601 3.62904 19.3016 3.70009C19.5671 3.77115 19.7844 3.90142 19.9535 4.0909C20.0742 4.23301 20.1345 4.3988 20.1345 4.58828C20.1587 4.75408 20.1587 4.93172 20.1345 5.1212C20.1104 5.23962 20.0742 5.39358 20.0259 5.58306C19.9776 5.77254 19.9655 5.84359 19.9897 5.79622V5.76069C19.869 6.32913 19.7603 6.81468 19.6637 7.21732C19.5913 7.59628 19.5189 7.98709 19.4464 8.38973C19.374 8.76869 19.3016 9.17134 19.2291 9.59767C19.1808 10.024 19.1205 10.5569 19.048 11.1964C18.71 14.1097 18.5531 17.0229 18.5772 19.9362C18.6255 22.8495 18.6497 25.7746 18.6497 28.7115C18.6014 28.9247 18.5048 29.1023 18.3599 29.2444C18.2151 29.3628 18.0581 29.4339 17.8891 29.4576C17.7201 29.4576 17.5511 29.4102 17.3821 29.3155C17.2372 29.2207 17.1285 29.0549 17.0561 28.8181C17.032 26.3075 17.0078 23.8205 16.9837 21.3573C16.9595 18.8941 17.032 16.419 17.201 13.932C17.2734 12.9373 17.3579 11.978 17.4545 11.0543C17.5511 10.1069 17.6839 9.14765 17.8529 8.17657L18.4324 5.33436C17.8287 5.38173 17.2493 5.45279 16.6939 5.54753C16.1628 5.64227 15.5833 5.77254 14.9555 5.93833C13.5069 6.31729 12.0823 6.76731 10.682 7.28838C9.30572 7.80945 7.86912 8.17657 6.37216 8.38973C6.10657 8.4371 5.69611 8.49632 5.14079 8.56737C4.60961 8.61474 4.05428 8.62658 3.47481 8.6029C2.91949 8.57921 2.40038 8.49632 1.91749 8.35421C1.45875 8.18841 1.16901 7.91603 1.04829 7.53707C1 7.32391 0.987928 7.15811 1.01207 7.03968C1.03622 6.89757 1.10865 6.73178 1.22937 6.5423C1.76055 6.04491 2.34002 5.63043 2.96778 5.29883C3.61968 4.96724 4.29573 4.69487 4.99592 4.4817C5.72026 4.26854 6.44459 4.0909 7.16893 3.94879C7.89326 3.80668 8.60553 3.66457 9.30572 3.52246C12.855 2.81191 16.4163 2.25531 19.9897 1.85266C23.5872 1.42633 27.1968 1.14211 30.8185 1ZM16.8026 3.87773C16.8509 3.87773 16.8871 3.87773 16.9112 3.87773C16.9354 3.85405 16.9716 3.8422 17.0199 3.8422C14.4847 4.19748 11.9858 4.62381 9.52302 5.1212C8.50895 5.31068 7.48281 5.512 6.44459 5.72516C5.40638 5.93833 4.45267 6.30545 3.58346 6.82652C4.35609 6.87389 5.0925 6.87389 5.79269 6.82652C6.49288 6.75547 7.30172 6.60151 8.21921 6.36466C9.66789 5.9857 11.0924 5.53569 12.4928 5.01461C13.8932 4.49354 15.3298 4.11458 16.8026 3.87773Z" fill="#212121"/>
<path d="M23.8657 5.76069C23.8657 5.47647 23.9382 5.25146 24.083 5.08567C24.252 4.91987 24.4331 4.82513 24.6263 4.80145C24.8194 4.77776 25.0005 4.83698 25.1695 4.97909C25.3385 5.09751 25.4472 5.29884 25.4955 5.58306C25.5921 8.85159 25.8697 12.1083 26.3285 15.3531C26.8114 18.5743 27.2218 21.8192 27.5598 25.0877C27.6081 25.7509 27.6564 26.4851 27.7047 27.2904C27.7771 28.0957 27.8375 28.8655 27.8858 29.5997C27.9582 30.3102 28.0186 30.9261 28.0669 31.4471C28.1152 31.9682 28.1634 32.2761 28.2117 32.3708C28.5498 31.8971 28.8274 31.4234 29.0447 30.9497C29.2862 30.4524 29.5518 29.9668 29.8415 29.4931C30.3002 28.8773 30.7348 28.2852 31.1453 27.7167C31.5558 27.1246 31.9662 26.5325 32.3767 25.9404C33.2217 24.7561 33.9581 24.01 34.5859 23.7021C35.2378 23.3942 35.8173 23.3824 36.3243 23.6666C36.8313 23.9271 37.278 24.4127 37.6643 25.1232C38.0506 25.8338 38.4007 26.6154 38.7146 27.468C39.0526 28.297 39.3665 29.126 39.6562 29.955C39.946 30.7603 40.2478 31.3998 40.5617 31.8735C40.6824 32.1577 40.7065 32.4064 40.6341 32.6195C40.5858 32.8327 40.4772 32.9985 40.3081 33.1169C40.1391 33.2117 39.946 33.2472 39.7287 33.2235C39.5355 33.1761 39.3544 33.034 39.1854 32.7972C38.8474 32.2524 38.5577 31.6366 38.3162 30.9497C38.0989 30.2629 37.8695 29.576 37.6281 28.8891C37.4108 28.2023 37.1573 27.5509 36.8675 26.9351C36.602 26.3193 36.2519 25.8101 35.8173 25.4074C35.5517 25.4311 35.2257 25.6561 34.8394 26.0825C34.4531 26.4851 34.0306 27.0062 33.5718 27.6457C33.1372 28.2615 32.6664 28.9365 32.1594 29.6707C31.6523 30.405 31.1574 31.1037 30.6745 31.7669C30.1916 32.4064 29.7087 32.963 29.2258 33.4367C28.7671 33.9104 28.3445 34.1946 27.9582 34.2893C27.596 34.4078 27.2701 34.2893 26.9804 33.9341C26.7148 33.5788 26.5216 32.8919 26.4009 31.8735C26.3043 31.1866 26.244 30.5234 26.2198 29.8839C26.2198 29.2444 26.1957 28.6049 26.1474 27.9654C26.0749 26.9707 25.9904 26.0232 25.8939 25.1232C25.7973 24.2232 25.6886 23.3113 25.5679 22.3876C25.3989 20.9665 25.2178 19.5691 25.0247 18.1953C24.8315 16.7979 24.6383 15.3887 24.4452 13.9676C24.2762 12.5701 24.1434 11.1964 24.0468 9.84636C23.9744 8.49632 23.914 7.13443 23.8657 5.76069Z" fill="#212121"/>
<path d="M48.0223 28.6049C47.467 28.6049 46.972 28.5931 46.5374 28.5694C46.127 28.522 45.6924 28.3918 45.2336 28.1786C45.0405 28.1786 44.8594 28.1194 44.6904 28.0009C44.5455 27.8825 44.4369 27.7404 44.3644 27.5746C44.3161 27.4088 44.3161 27.2312 44.3644 27.0417C44.4369 26.8522 44.5938 26.6864 44.8352 26.5443C45.1008 26.4733 45.3544 26.4496 45.5958 26.4733C45.8614 26.497 46.127 26.5443 46.3926 26.6154C46.6582 26.6864 46.9237 26.7575 47.1893 26.8285C47.4549 26.8996 47.7326 26.9233 48.0223 26.8996C49.3261 26.7575 50.1953 26.5088 50.6299 26.1535C51.0887 25.7982 51.2456 25.4548 51.1007 25.1232C50.98 24.7679 50.6299 24.4719 50.0505 24.235C49.4951 23.9745 48.8432 23.8561 48.0948 23.8798C47.3704 23.9034 46.6099 24.1166 45.8131 24.5192C45.0405 24.9219 44.3886 25.5969 43.8574 26.5443C43.3745 27.397 43.2055 28.1549 43.3504 28.8181C43.4952 29.4813 43.8212 30.026 44.3282 30.4524C44.8594 30.8787 45.5234 31.1984 46.3201 31.4116C47.1169 31.6248 47.9378 31.7313 48.7829 31.7313C49.6279 31.7077 50.4368 31.5774 51.2094 31.3405C51.982 31.08 52.6098 30.701 53.0927 30.2037C53.31 30.0615 53.5152 30.0023 53.7084 30.026C53.9257 30.026 54.0947 30.0971 54.2154 30.2392C54.3361 30.3576 54.4086 30.5234 54.4327 30.7366C54.4568 30.9261 54.4206 31.1392 54.324 31.3761C53.7446 31.9682 52.9961 32.4301 52.0786 32.7616C51.1611 33.0695 50.1953 33.2472 49.1813 33.2946C48.1672 33.3419 47.1531 33.2709 46.139 33.0814C45.1491 32.8682 44.2799 32.5366 43.5314 32.0866C42.8071 31.6366 42.2639 31.0682 41.9017 30.3813C41.5395 29.6944 41.4792 28.901 41.7206 28.0009C41.8896 27.3851 42.0224 26.8996 42.119 26.5443C42.2397 26.189 42.3846 25.8811 42.5536 25.6206C42.7226 25.3601 42.9278 25.0877 43.1693 24.8035C43.4107 24.5192 43.7487 24.1403 44.1833 23.6666C45.0767 22.6955 46.0304 22.1271 47.0445 21.9613C48.0827 21.7718 49.0364 21.8428 49.9056 22.1744C50.7989 22.506 51.5354 23.0034 52.1148 23.6666C52.6943 24.3298 52.972 25.0166 52.9478 25.7272C52.9478 26.4141 52.5736 27.0417 51.8251 27.6101C51.0766 28.1549 49.809 28.4865 48.0223 28.6049Z" fill="#212121"/>
<path d="M68.7233 24.9811C68.5302 24.839 68.3974 24.685 68.325 24.5192C68.2767 24.3298 68.2767 24.1521 68.325 23.9863C68.3974 23.8205 68.5181 23.6903 68.6871 23.5955C68.8561 23.5008 69.0614 23.4653 69.3028 23.4889C69.7857 23.6784 70.2082 23.9745 70.5704 24.3771C70.9326 24.7561 71.2585 25.1469 71.5482 25.5495C72.1519 26.3312 72.6589 27.0772 73.0693 27.7878C73.5039 28.4983 73.8782 29.197 74.1921 29.8839C74.4577 28.8418 74.7595 27.8233 75.0975 26.8285C75.4597 25.8338 75.8943 24.839 76.4013 23.8442C76.5462 23.5363 76.8238 23.0626 77.2343 22.4231C77.6689 21.7599 78.1518 21.1323 78.6829 20.5402C79.2383 19.948 79.7936 19.4862 80.3489 19.1546C80.9284 18.7993 81.4475 18.7875 81.9062 19.1191C82.1236 19.2612 82.3409 19.4033 82.5581 19.5454C82.7755 19.6875 82.9686 19.8651 83.1376 20.0783C83.5481 20.5757 83.8861 21.2507 84.1517 22.1034C84.4173 22.9324 84.5863 23.8087 84.6587 24.7324C84.7553 25.6324 84.7312 26.5088 84.5863 27.3615C84.4656 28.2141 84.2 28.9247 83.7895 29.4931L82.3409 31.4827C82.0994 31.7906 81.7372 32.0866 81.2543 32.3708C80.7956 32.6551 80.2886 32.8801 79.7332 33.0459C79.2021 33.2117 78.6588 33.2946 78.1035 33.2946C77.5723 33.2946 77.1136 33.1643 76.7272 32.9038C76.5824 32.7143 76.5099 32.5248 76.5099 32.3353C76.5099 32.1222 76.5582 31.9564 76.6548 31.8379C76.7755 31.6958 76.9325 31.6129 77.1256 31.5892C77.3188 31.5419 77.524 31.5656 77.7413 31.6603C77.9103 31.7787 78.0431 31.8261 78.1397 31.8024C78.2604 31.755 78.526 31.684 78.9365 31.5892C79.2986 31.3998 79.6729 31.2221 80.0592 31.0563C80.4455 30.8668 80.8077 30.6418 81.1457 30.3813C81.7735 29.8602 82.2563 29.1615 82.5944 28.2852C82.9565 27.3851 83.1497 26.4614 83.1738 25.514C83.198 24.5429 83.0531 23.6192 82.7392 22.7429C82.4254 21.8428 81.9304 21.1441 81.2543 20.6467C80.8922 20.7178 80.5542 20.8954 80.2403 21.1797C79.9505 21.4402 79.6729 21.7481 79.4073 22.1034C79.1658 22.435 78.9244 22.7902 78.6829 23.1692C78.4656 23.5245 78.2725 23.8561 78.1035 24.164C77.2826 25.514 76.6427 26.9351 76.184 28.4273C75.7253 29.8958 75.3752 31.4116 75.1337 32.9748C75.3752 34.1827 75.4838 35.4617 75.4597 36.8118C75.4355 38.1618 75.3631 39.725 75.2424 41.5014C75.1941 42.3067 75.182 43.1357 75.2061 43.9884C75.2303 44.841 75.1458 45.67 74.9526 46.4753C74.6387 47.0437 74.1921 47.1503 73.6126 46.795C73.347 46.4871 73.1659 46.0726 73.0693 45.5516C72.9728 45.0542 72.9124 44.5331 72.8883 43.9884C72.8641 43.4436 72.8641 42.9107 72.8883 42.3896C72.9366 41.8685 72.9607 41.4422 72.9607 41.1106C72.9848 39.7606 73.0331 38.4224 73.1056 37.096C73.2021 35.7696 73.347 34.4551 73.5402 33.1524C73.3229 32.0866 72.9607 31.0445 72.4537 30.026C71.9466 28.9839 71.2344 27.847 70.3169 26.6154C70.1237 26.3312 69.8943 26.0232 69.6287 25.6917C69.3632 25.3601 69.0614 25.1232 68.7233 24.9811Z" fill="#212121"/>
<path d="M87.9426 23.6666C87.8701 23.5008 87.7977 23.3113 87.7253 23.0981C87.6528 22.8613 87.5804 22.6481 87.508 22.4586C87.4597 22.2692 87.4235 22.1152 87.3993 21.9968C87.3752 21.8784 87.3631 21.831 87.3631 21.8547C87.3631 21.5705 87.4355 21.3455 87.5804 21.1797C87.7494 21.0139 87.9305 20.931 88.1236 20.931C88.3168 20.9073 88.4979 20.9665 88.6669 21.1086C88.8359 21.227 88.9446 21.4284 88.9929 21.7126C88.9929 22.0678 89.0411 22.4586 89.1377 22.885C89.2584 23.2876 89.3912 23.7021 89.5361 24.1284C89.681 24.5311 89.8258 24.9456 89.9707 25.3719C90.1156 25.7746 90.2242 26.1654 90.2967 26.5443C90.9244 25.0048 91.7815 23.6429 92.8681 22.4586C93.9787 21.2507 95.367 20.2441 97.033 19.4388C97.2503 19.3678 97.4434 19.3796 97.6124 19.4743C97.8056 19.5691 97.9505 19.6993 98.0471 19.8651C98.1436 20.0309 98.1678 20.2204 98.1195 20.4336C98.0953 20.6231 97.9746 20.8007 97.7573 20.9665C95.367 22.1034 93.6165 23.6784 92.5059 25.6917C91.3952 27.7049 90.8037 30.0497 90.7313 32.7261V33.5788C90.7313 33.6972 90.7071 33.7801 90.6588 33.8275C90.5381 34.088 90.3691 34.2538 90.1518 34.3249C90.0552 34.3249 89.9586 34.3249 89.8621 34.3249C89.7655 34.3249 89.6689 34.3012 89.5723 34.2538H89.5361C89.512 34.2538 89.4757 34.2301 89.4275 34.1827L89.3188 34.0762L89.1015 33.6498V32.4774C89.1015 31.3405 89.0774 30.2273 89.0291 29.1378C88.9808 28.0483 88.8118 26.9825 88.522 25.9404C88.4013 25.3245 88.3168 24.8745 88.2685 24.5903C88.2202 24.2824 88.1116 23.9745 87.9426 23.6666Z" fill="#212121"/>
<path d="M106.491 20.6112C106.853 20.6112 107.07 20.7533 107.143 21.0375C108.978 21.3455 110.45 21.8902 111.561 22.6718C112.672 23.4297 113.444 24.3061 113.879 25.3009C114.338 26.2719 114.47 27.2786 114.277 28.3207C114.108 29.3628 113.65 30.2984 112.901 31.1274C112.177 31.9327 111.187 32.5603 109.931 33.0103C108.676 33.4367 107.203 33.5433 105.513 33.3301C104.185 33.1406 103.086 32.7024 102.217 32.0156C101.372 31.305 100.744 30.4879 100.334 29.5642C99.9475 28.6168 99.7906 27.622 99.863 26.5798C99.9354 25.514 100.225 24.5429 100.732 23.6666C101.239 22.7902 101.976 22.0678 102.941 21.4994C103.907 20.9073 105.09 20.6112 106.491 20.6112ZM105.513 22.3165C104.619 22.4586 103.859 22.7784 103.231 23.2758C102.628 23.7495 102.169 24.3179 101.855 24.9811C101.565 25.6206 101.408 26.3075 101.384 27.0417C101.384 27.7759 101.541 28.4628 101.855 29.1023C102.169 29.7418 102.628 30.2984 103.231 30.7721C103.859 31.2221 104.644 31.5063 105.585 31.6248C107.13 31.7906 108.434 31.6958 109.497 31.3405C110.559 30.9853 111.368 30.4997 111.923 29.8839C112.479 29.2444 112.768 28.5339 112.792 27.7523C112.841 26.947 112.611 26.189 112.104 25.4785C111.621 24.7443 110.861 24.1166 109.823 23.5955C108.784 23.0508 107.481 22.7073 105.911 22.5652L105.513 22.3165Z" fill="#212121"/>
<path d="M124.294 21.3218C124.632 21.4402 124.946 21.606 125.235 21.8192C125.549 22.0323 125.827 22.2929 126.068 22.6008C126.117 22.6008 126.165 22.6126 126.213 22.6363C126.262 22.66 126.322 22.6718 126.394 22.6718C126.805 22.9797 127.058 23.3232 127.155 23.7021C127.251 24.0811 127.276 24.5311 127.227 25.0522C127.179 25.3127 127.082 25.514 126.938 25.6561C126.793 25.7746 126.636 25.8456 126.467 25.8693C126.298 25.893 126.129 25.8575 125.96 25.7627C125.791 25.6443 125.67 25.4667 125.598 25.2298C125.308 24.2113 124.885 23.4889 124.33 23.0626C123.775 22.6126 123.171 22.3994 122.519 22.4231C121.867 22.4468 121.203 22.6481 120.527 23.0271C119.851 23.4061 119.248 23.8916 118.716 24.4837C118.209 25.0522 117.799 25.6917 117.485 26.4022C117.195 27.1128 117.087 27.8115 117.159 28.4983C117.231 29.1852 117.545 29.8129 118.101 30.3813C118.656 30.9261 119.513 31.3524 120.672 31.6603C121.324 31.7787 121.964 31.8498 122.592 31.8735C123.243 31.8971 123.883 31.8853 124.511 31.8379C124.897 31.7906 125.235 31.7432 125.525 31.6958C125.815 31.6484 126.08 31.5892 126.322 31.5182C126.587 31.4471 126.853 31.3642 127.119 31.2695C127.384 31.1511 127.698 31.0208 128.06 30.8787C128.398 30.7603 128.664 30.6418 128.857 30.5234C129.074 30.405 129.268 30.2984 129.437 30.2037C129.437 30.1089 129.449 30.0023 129.473 29.8839C129.497 29.7655 129.569 29.6471 129.69 29.5286C129.932 29.3628 130.125 29.2326 130.27 29.1378C130.439 29.0431 130.62 28.972 130.813 28.9247C131.344 28.7826 131.73 28.9602 131.972 29.4576C132.141 29.7418 132.141 30.0734 131.972 30.4524C131.272 31.0682 130.463 31.6366 129.545 32.1577C128.628 32.6551 127.722 32.9985 126.829 33.188C126.056 33.3064 125.332 33.413 124.656 33.5077C123.98 33.6261 123.231 33.6617 122.41 33.6143C121.952 33.5669 121.553 33.5196 121.215 33.4722C120.901 33.4011 120.588 33.3301 120.274 33.259C119.984 33.1643 119.682 33.0577 119.368 32.9393C119.079 32.8209 118.728 32.6787 118.318 32.513C117.28 32.1103 116.543 31.4945 116.109 30.6655C115.674 29.8365 115.481 28.9484 115.529 28.0009C115.578 27.0299 115.843 26.0706 116.326 25.1232C116.809 24.1521 117.437 23.3232 118.209 22.6363C119.006 21.9257 119.924 21.4283 120.962 21.1441C122 20.8599 123.111 20.9191 124.294 21.3218Z" fill="#212121"/>
<path d="M139.307 28.6049C138.752 28.6049 138.257 28.5931 137.822 28.5694C137.412 28.522 136.977 28.3918 136.518 28.1786C136.325 28.1786 136.144 28.1194 135.975 28.0009C135.83 27.8825 135.722 27.7404 135.649 27.5746C135.601 27.4088 135.601 27.2312 135.649 27.0417C135.722 26.8522 135.879 26.6864 136.12 26.5443C136.386 26.4733 136.639 26.4496 136.881 26.4733C137.146 26.497 137.412 26.5443 137.677 26.6154C137.943 26.6864 138.208 26.7575 138.474 26.8285C138.74 26.8996 139.017 26.9233 139.307 26.8996C140.611 26.7575 141.48 26.5088 141.915 26.1535C142.373 25.7982 142.53 25.4548 142.385 25.1232C142.265 24.7679 141.915 24.4719 141.335 24.235C140.78 23.9745 140.128 23.8561 139.379 23.8798C138.655 23.9034 137.895 24.1166 137.098 24.5192C136.325 24.9219 135.673 25.5969 135.142 26.5443C134.659 27.397 134.49 28.1549 134.635 28.8181C134.78 29.4813 135.106 30.026 135.613 30.4524C136.144 30.8787 136.808 31.1984 137.605 31.4116C138.402 31.6248 139.223 31.7313 140.068 31.7313C140.913 31.7077 141.721 31.5774 142.494 31.3405C143.267 31.08 143.895 30.701 144.377 30.2037C144.595 30.0615 144.8 30.0023 144.993 30.026C145.21 30.026 145.379 30.0971 145.5 30.2392C145.621 30.3576 145.693 30.5234 145.717 30.7366C145.742 30.9261 145.705 31.1392 145.609 31.3761C145.029 31.9682 144.281 32.4301 143.363 32.7616C142.446 33.0695 141.48 33.2472 140.466 33.2946C139.452 33.3419 138.438 33.2709 137.424 33.0814C136.434 32.8682 135.565 32.5366 134.816 32.0866C134.092 31.6366 133.549 31.0682 133.186 30.3813C132.824 29.6944 132.764 28.901 133.005 28.0009C133.174 27.3851 133.307 26.8996 133.404 26.5443C133.524 26.189 133.669 25.8811 133.838 25.6206C134.007 25.3601 134.213 25.0877 134.454 24.8035C134.695 24.5192 135.033 24.1403 135.468 23.6666C136.361 22.6955 137.315 22.1271 138.329 21.9613C139.367 21.7718 140.321 21.8428 141.19 22.1744C142.084 22.506 142.82 23.0034 143.4 23.6666C143.979 24.3298 144.257 25.0166 144.233 25.7272C144.233 26.4141 143.858 27.0417 143.11 27.6101C142.361 28.1549 141.094 28.4865 139.307 28.6049Z" fill="#212121"/>
<path d="M161.712 18.3019C161.93 18.5151 162.051 18.7283 162.075 18.9414C162.099 19.1546 162.051 19.3441 161.93 19.5099C161.809 19.652 161.64 19.7467 161.423 19.7941C161.205 19.8415 160.976 19.8059 160.735 19.6875C160.203 19.7349 159.708 19.7941 159.25 19.8651C158.839 19.9125 158.417 19.9836 157.982 20.0783C157.548 20.1494 157.161 20.2086 156.823 20.2559C156.195 20.3744 155.556 20.4809 154.904 20.5757C154.252 20.6704 153.588 20.7889 152.912 20.931C152.26 21.0731 151.62 21.2626 150.992 21.4994C150.365 21.7363 149.773 22.0323 149.218 22.3876C149.918 22.8139 150.666 23.1692 151.463 23.4534C152.284 23.714 153.105 23.9508 153.926 24.164C154.771 24.3535 155.604 24.5548 156.425 24.7679C157.27 24.9811 158.067 25.2535 158.815 25.5851C159.564 25.9167 160.252 26.343 160.88 26.8641C161.507 27.3851 162.038 28.0602 162.473 28.8891C162.594 29.2681 162.594 29.6352 162.473 29.9905C161.821 30.9853 161 31.7313 160.01 32.2287C159.045 32.7261 157.994 33.0577 156.859 33.2235C155.749 33.3656 154.614 33.4011 153.455 33.3301C152.296 33.2353 151.21 33.1169 150.196 32.9748C149.954 32.8801 149.773 32.7498 149.652 32.584C149.532 32.4182 149.471 32.2524 149.471 32.0866C149.471 31.8971 149.532 31.7313 149.652 31.5892C149.773 31.4471 149.954 31.3405 150.196 31.2695C150.944 31.3879 151.825 31.5063 152.839 31.6248C153.853 31.7195 154.868 31.7432 155.882 31.6958C156.896 31.6248 157.849 31.4234 158.743 31.0918C159.636 30.7603 160.324 30.2037 160.807 29.4221C160.493 28.7826 160.034 28.2378 159.431 27.7878C158.851 27.3378 158.175 26.9588 157.403 26.6509C156.63 26.3193 155.809 26.0469 154.94 25.8338C154.071 25.5969 153.202 25.3601 152.332 25.1232C151.463 24.8864 150.618 24.6258 149.797 24.3416C149 24.0574 148.288 23.714 147.66 23.3113C147.564 23.1455 147.491 23.0271 147.443 22.956C147.419 22.8613 147.407 22.731 147.407 22.5652C147.455 22.0678 147.805 21.5823 148.457 21.1086C149.133 20.6349 149.966 20.2086 150.956 19.8296C151.946 19.4506 153.02 19.1191 154.179 18.8348C155.338 18.5506 156.437 18.3375 157.475 18.1953C158.513 18.0532 159.419 17.994 160.191 18.0177C160.964 18.0177 161.471 18.1124 161.712 18.3019Z" fill="#212121"/>
<path d="M179.149 18.3019C179.366 18.5151 179.487 18.7283 179.511 18.9414C179.535 19.1546 179.487 19.3441 179.366 19.5099C179.245 19.652 179.076 19.7467 178.859 19.7941C178.642 19.8415 178.413 19.8059 178.171 19.6875C177.64 19.7349 177.145 19.7941 176.686 19.8651C176.276 19.9125 175.853 19.9836 175.419 20.0783C174.984 20.1494 174.598 20.2086 174.26 20.2559C173.632 20.3744 172.992 20.4809 172.34 20.5757C171.688 20.6704 171.024 20.7889 170.348 20.931C169.696 21.0731 169.057 21.2626 168.429 21.4994C167.801 21.7363 167.209 22.0323 166.654 22.3876C167.354 22.8139 168.103 23.1692 168.9 23.4534C169.72 23.714 170.541 23.9508 171.362 24.164C172.207 24.3535 173.04 24.5548 173.861 24.7679C174.706 24.9811 175.503 25.2535 176.252 25.5851C177 25.9167 177.688 26.343 178.316 26.8641C178.944 27.3851 179.475 28.0602 179.909 28.8891C180.03 29.2681 180.03 29.6352 179.909 29.9905C179.258 30.9853 178.437 31.7313 177.447 32.2287C176.481 32.7261 175.431 33.0577 174.296 33.2235C173.185 33.3656 172.05 33.4011 170.891 33.3301C169.733 33.2353 168.646 33.1169 167.632 32.9748C167.391 32.8801 167.209 32.7498 167.089 32.584C166.968 32.4182 166.908 32.2524 166.908 32.0866C166.908 31.8971 166.968 31.7313 167.089 31.5892C167.209 31.4471 167.391 31.3405 167.632 31.2695C168.38 31.3879 169.262 31.5063 170.276 31.6248C171.29 31.7195 172.304 31.7432 173.318 31.6958C174.332 31.6248 175.286 31.4234 176.179 31.0918C177.072 30.7603 177.761 30.2037 178.243 29.4221C177.93 28.7826 177.471 28.2378 176.867 27.7878C176.288 27.3378 175.612 26.9588 174.839 26.6509C174.066 26.3193 173.246 26.0469 172.376 25.8338C171.507 25.5969 170.638 25.3601 169.769 25.1232C168.9 24.8864 168.054 24.6258 167.234 24.3416C166.437 24.0574 165.725 23.714 165.097 23.3113C165 23.1455 164.928 23.0271 164.879 22.956C164.855 22.8613 164.843 22.731 164.843 22.5652C164.892 22.0678 165.242 21.5823 165.894 21.1086C166.57 20.6349 167.403 20.2086 168.393 19.8296C169.382 19.4506 170.457 19.1191 171.616 18.8348C172.775 18.5506 173.873 18.3375 174.912 18.1953C175.95 18.0532 176.855 17.994 177.628 18.0177C178.4 18.0177 178.907 18.1124 179.149 18.3019Z" fill="#212121"/>
<path d="M30.8185 1C31.1082 1.04737 31.3135 1.15395 31.4342 1.31975C31.579 1.46186 31.6515 1.62765 31.6515 1.81713C31.6515 2.00661 31.579 2.18425 31.4342 2.35005C31.3135 2.49216 31.1082 2.57505 30.8185 2.59874C28.7421 2.66979 26.6777 2.80006 24.6254 2.98954C22.5973 3.15534 20.5571 3.3685 18.5048 3.62904C18.7945 3.60535 19.0601 3.62904 19.3016 3.70009C19.5671 3.77115 19.7844 3.90142 19.9535 4.0909C20.0742 4.23301 20.1345 4.3988 20.1345 4.58828C20.1587 4.75408 20.1587 4.93172 20.1345 5.1212C20.1104 5.23962 20.0742 5.39358 20.0259 5.58306C19.9776 5.77254 19.9655 5.84359 19.9897 5.79622V5.76069C19.869 6.32913 19.7603 6.81468 19.6637 7.21732C19.5913 7.59628 19.5189 7.98709 19.4464 8.38973C19.374 8.76869 19.3016 9.17134 19.2291 9.59767C19.1808 10.024 19.1205 10.5569 19.048 11.1964C18.71 14.1097 18.5531 17.0229 18.5772 19.9362C18.6255 22.8495 18.6497 25.7746 18.6497 28.7115C18.6014 28.9247 18.5048 29.1023 18.3599 29.2444C18.2151 29.3628 18.0581 29.4339 17.8891 29.4576C17.7201 29.4576 17.5511 29.4102 17.3821 29.3155C17.2372 29.2207 17.1285 29.0549 17.0561 28.8181C17.032 26.3075 17.0078 23.8205 16.9837 21.3573C16.9595 18.8941 17.032 16.419 17.201 13.932C17.2734 12.9373 17.3579 11.978 17.4545 11.0543C17.5511 10.1069 17.6839 9.14765 17.8529 8.17657L18.4324 5.33436C17.8287 5.38173 17.2493 5.45279 16.6939 5.54753C16.1628 5.64227 15.5833 5.77254 14.9555 5.93833C13.5069 6.31729 12.0823 6.76731 10.682 7.28838C9.30572 7.80945 7.86912 8.17657 6.37216 8.38973C6.10657 8.4371 5.69611 8.49632 5.14079 8.56737C4.60961 8.61474 4.05428 8.62658 3.47481 8.6029C2.91949 8.57921 2.40038 8.49632 1.91749 8.35421C1.45875 8.18841 1.16901 7.91603 1.04829 7.53707C1 7.32391 0.987928 7.15811 1.01207 7.03968C1.03622 6.89757 1.10865 6.73178 1.22937 6.5423C1.76055 6.04491 2.34002 5.63043 2.96778 5.29883C3.61968 4.96724 4.29573 4.69487 4.99592 4.4817C5.72026 4.26854 6.44459 4.0909 7.16893 3.94879C7.89326 3.80668 8.60553 3.66457 9.30572 3.52246C12.855 2.81191 16.4163 2.25531 19.9897 1.85266C23.5872 1.42633 27.1968 1.14211 30.8185 1ZM16.8026 3.87773C16.8509 3.87773 16.8871 3.87773 16.9112 3.87773C16.9354 3.85405 16.9716 3.8422 17.0199 3.8422C14.4847 4.19748 11.9858 4.62381 9.52302 5.1212C8.50895 5.31068 7.48281 5.512 6.44459 5.72516C5.40638 5.93833 4.45267 6.30545 3.58346 6.82652C4.35609 6.87389 5.0925 6.87389 5.79269 6.82652C6.49288 6.75547 7.30172 6.60151 8.21921 6.36466C9.66789 5.9857 11.0924 5.53569 12.4928 5.01461C13.8932 4.49354 15.3298 4.11458 16.8026 3.87773Z" stroke="#212121" stroke-width="0.4" mask="url(#path-1-outside-1_283_4167)"/>
<path d="M23.8657 5.76069C23.8657 5.47647 23.9382 5.25146 24.083 5.08567C24.252 4.91987 24.4331 4.82513 24.6263 4.80145C24.8194 4.77776 25.0005 4.83698 25.1695 4.97909C25.3385 5.09751 25.4472 5.29884 25.4955 5.58306C25.5921 8.85159 25.8697 12.1083 26.3285 15.3531C26.8114 18.5743 27.2218 21.8192 27.5598 25.0877C27.6081 25.7509 27.6564 26.4851 27.7047 27.2904C27.7771 28.0957 27.8375 28.8655 27.8858 29.5997C27.9582 30.3102 28.0186 30.9261 28.0669 31.4471C28.1152 31.9682 28.1634 32.2761 28.2117 32.3708C28.5498 31.8971 28.8274 31.4234 29.0447 30.9497C29.2862 30.4524 29.5518 29.9668 29.8415 29.4931C30.3002 28.8773 30.7348 28.2852 31.1453 27.7167C31.5558 27.1246 31.9662 26.5325 32.3767 25.9404C33.2217 24.7561 33.9581 24.01 34.5859 23.7021C35.2378 23.3942 35.8173 23.3824 36.3243 23.6666C36.8313 23.9271 37.278 24.4127 37.6643 25.1232C38.0506 25.8338 38.4007 26.6154 38.7146 27.468C39.0526 28.297 39.3665 29.126 39.6562 29.955C39.946 30.7603 40.2478 31.3998 40.5617 31.8735C40.6824 32.1577 40.7065 32.4064 40.6341 32.6195C40.5858 32.8327 40.4772 32.9985 40.3081 33.1169C40.1391 33.2117 39.946 33.2472 39.7287 33.2235C39.5355 33.1761 39.3544 33.034 39.1854 32.7972C38.8474 32.2524 38.5577 31.6366 38.3162 30.9497C38.0989 30.2629 37.8695 29.576 37.6281 28.8891C37.4108 28.2023 37.1573 27.5509 36.8675 26.9351C36.602 26.3193 36.2519 25.8101 35.8173 25.4074C35.5517 25.4311 35.2257 25.6561 34.8394 26.0825C34.4531 26.4851 34.0306 27.0062 33.5718 27.6457C33.1372 28.2615 32.6664 28.9365 32.1594 29.6707C31.6523 30.405 31.1574 31.1037 30.6745 31.7669C30.1916 32.4064 29.7087 32.963 29.2258 33.4367C28.7671 33.9104 28.3445 34.1946 27.9582 34.2893C27.596 34.4078 27.2701 34.2893 26.9804 33.9341C26.7148 33.5788 26.5216 32.8919 26.4009 31.8735C26.3043 31.1866 26.244 30.5234 26.2198 29.8839C26.2198 29.2444 26.1957 28.6049 26.1474 27.9654C26.0749 26.9707 25.9904 26.0232 25.8939 25.1232C25.7973 24.2232 25.6886 23.3113 25.5679 22.3876C25.3989 20.9665 25.2178 19.5691 25.0247 18.1953C24.8315 16.7979 24.6383 15.3887 24.4452 13.9676C24.2762 12.5701 24.1434 11.1964 24.0468 9.84636C23.9744 8.49632 23.914 7.13443 23.8657 5.76069Z" stroke="#212121" stroke-width="0.4" mask="url(#path-1-outside-1_283_4167)"/>
<path d="M48.0223 28.6049C47.467 28.6049 46.972 28.5931 46.5374 28.5694C46.127 28.522 45.6924 28.3918 45.2336 28.1786C45.0405 28.1786 44.8594 28.1194 44.6904 28.0009C44.5455 27.8825 44.4369 27.7404 44.3644 27.5746C44.3161 27.4088 44.3161 27.2312 44.3644 27.0417C44.4369 26.8522 44.5938 26.6864 44.8352 26.5443C45.1008 26.4733 45.3544 26.4496 45.5958 26.4733C45.8614 26.497 46.127 26.5443 46.3926 26.6154C46.6582 26.6864 46.9237 26.7575 47.1893 26.8285C47.4549 26.8996 47.7326 26.9233 48.0223 26.8996C49.3261 26.7575 50.1953 26.5088 50.6299 26.1535C51.0887 25.7982 51.2456 25.4548 51.1007 25.1232C50.98 24.7679 50.6299 24.4719 50.0505 24.235C49.4951 23.9745 48.8432 23.8561 48.0948 23.8798C47.3704 23.9034 46.6099 24.1166 45.8131 24.5192C45.0405 24.9219 44.3886 25.5969 43.8574 26.5443C43.3745 27.397 43.2055 28.1549 43.3504 28.8181C43.4952 29.4813 43.8212 30.026 44.3282 30.4524C44.8594 30.8787 45.5234 31.1984 46.3201 31.4116C47.1169 31.6248 47.9378 31.7313 48.7829 31.7313C49.6279 31.7077 50.4368 31.5774 51.2094 31.3405C51.982 31.08 52.6098 30.701 53.0927 30.2037C53.31 30.0615 53.5152 30.0023 53.7084 30.026C53.9257 30.026 54.0947 30.0971 54.2154 30.2392C54.3361 30.3576 54.4086 30.5234 54.4327 30.7366C54.4568 30.9261 54.4206 31.1392 54.324 31.3761C53.7446 31.9682 52.9961 32.4301 52.0786 32.7616C51.1611 33.0695 50.1953 33.2472 49.1813 33.2946C48.1672 33.3419 47.1531 33.2709 46.139 33.0814C45.1491 32.8682 44.2799 32.5366 43.5314 32.0866C42.8071 31.6366 42.2639 31.0682 41.9017 30.3813C41.5395 29.6944 41.4792 28.901 41.7206 28.0009C41.8896 27.3851 42.0224 26.8996 42.119 26.5443C42.2397 26.189 42.3846 25.8811 42.5536 25.6206C42.7226 25.3601 42.9278 25.0877 43.1693 24.8035C43.4107 24.5192 43.7487 24.1403 44.1833 23.6666C45.0767 22.6955 46.0304 22.1271 47.0445 21.9613C48.0827 21.7718 49.0364 21.8428 49.9056 22.1744C50.7989 22.506 51.5354 23.0034 52.1148 23.6666C52.6943 24.3298 52.972 25.0166 52.9478 25.7272C52.9478 26.4141 52.5736 27.0417 51.8251 27.6101C51.0766 28.1549 49.809 28.4865 48.0223 28.6049Z" stroke="#212121" stroke-width="0.4" mask="url(#path-1-outside-1_283_4167)"/>
<path d="M68.7233 24.9811C68.5302 24.839 68.3974 24.685 68.325 24.5192C68.2767 24.3298 68.2767 24.1521 68.325 23.9863C68.3974 23.8205 68.5181 23.6903 68.6871 23.5955C68.8561 23.5008 69.0614 23.4653 69.3028 23.4889C69.7857 23.6784 70.2082 23.9745 70.5704 24.3771C70.9326 24.7561 71.2585 25.1469 71.5482 25.5495C72.1519 26.3312 72.6589 27.0772 73.0693 27.7878C73.5039 28.4983 73.8782 29.197 74.1921 29.8839C74.4577 28.8418 74.7595 27.8233 75.0975 26.8285C75.4597 25.8338 75.8943 24.839 76.4013 23.8442C76.5462 23.5363 76.8238 23.0626 77.2343 22.4231C77.6689 21.7599 78.1518 21.1323 78.6829 20.5402C79.2383 19.948 79.7936 19.4862 80.3489 19.1546C80.9284 18.7993 81.4475 18.7875 81.9062 19.1191C82.1236 19.2612 82.3409 19.4033 82.5581 19.5454C82.7755 19.6875 82.9686 19.8651 83.1376 20.0783C83.5481 20.5757 83.8861 21.2507 84.1517 22.1034C84.4173 22.9324 84.5863 23.8087 84.6587 24.7324C84.7553 25.6324 84.7312 26.5088 84.5863 27.3615C84.4656 28.2141 84.2 28.9247 83.7895 29.4931L82.3409 31.4827C82.0994 31.7906 81.7372 32.0866 81.2543 32.3708C80.7956 32.6551 80.2886 32.8801 79.7332 33.0459C79.2021 33.2117 78.6588 33.2946 78.1035 33.2946C77.5723 33.2946 77.1136 33.1643 76.7272 32.9038C76.5824 32.7143 76.5099 32.5248 76.5099 32.3353C76.5099 32.1222 76.5582 31.9564 76.6548 31.8379C76.7755 31.6958 76.9325 31.6129 77.1256 31.5892C77.3188 31.5419 77.524 31.5656 77.7413 31.6603C77.9103 31.7787 78.0431 31.8261 78.1397 31.8024C78.2604 31.755 78.526 31.684 78.9365 31.5892C79.2986 31.3998 79.6729 31.2221 80.0592 31.0563C80.4455 30.8668 80.8077 30.6418 81.1457 30.3813C81.7735 29.8602 82.2563 29.1615 82.5944 28.2852C82.9565 27.3851 83.1497 26.4614 83.1738 25.514C83.198 24.5429 83.0531 23.6192 82.7392 22.7429C82.4254 21.8428 81.9304 21.1441 81.2543 20.6467C80.8922 20.7178 80.5542 20.8954 80.2403 21.1797C79.9505 21.4402 79.6729 21.7481 79.4073 22.1034C79.1658 22.435 78.9244 22.7902 78.6829 23.1692C78.4656 23.5245 78.2725 23.8561 78.1035 24.164C77.2826 25.514 76.6427 26.9351 76.184 28.4273C75.7253 29.8958 75.3752 31.4116 75.1337 32.9748C75.3752 34.1827 75.4838 35.4617 75.4597 36.8118C75.4355 38.1618 75.3631 39.725 75.2424 41.5014C75.1941 42.3067 75.182 43.1357 75.2061 43.9884C75.2303 44.841 75.1458 45.67 74.9526 46.4753C74.6387 47.0437 74.1921 47.1503 73.6126 46.795C73.347 46.4871 73.1659 46.0726 73.0693 45.5516C72.9728 45.0542 72.9124 44.5331 72.8883 43.9884C72.8641 43.4436 72.8641 42.9107 72.8883 42.3896C72.9366 41.8685 72.9607 41.4422 72.9607 41.1106C72.9848 39.7606 73.0331 38.4224 73.1056 37.096C73.2021 35.7696 73.347 34.4551 73.5402 33.1524C73.3229 32.0866 72.9607 31.0445 72.4537 30.026C71.9466 28.9839 71.2344 27.847 70.3169 26.6154C70.1237 26.3312 69.8943 26.0232 69.6287 25.6917C69.3632 25.3601 69.0614 25.1232 68.7233 24.9811Z" stroke="#212121" stroke-width="0.4" mask="url(#path-1-outside-1_283_4167)"/>
<path d="M87.9426 23.6666C87.8701 23.5008 87.7977 23.3113 87.7253 23.0981C87.6528 22.8613 87.5804 22.6481 87.508 22.4586C87.4597 22.2692 87.4235 22.1152 87.3993 21.9968C87.3752 21.8784 87.3631 21.831 87.3631 21.8547C87.3631 21.5705 87.4355 21.3455 87.5804 21.1797C87.7494 21.0139 87.9305 20.931 88.1236 20.931C88.3168 20.9073 88.4979 20.9665 88.6669 21.1086C88.8359 21.227 88.9446 21.4284 88.9929 21.7126C88.9929 22.0678 89.0411 22.4586 89.1377 22.885C89.2584 23.2876 89.3912 23.7021 89.5361 24.1284C89.681 24.5311 89.8258 24.9456 89.9707 25.3719C90.1156 25.7746 90.2242 26.1654 90.2967 26.5443C90.9244 25.0048 91.7815 23.6429 92.8681 22.4586C93.9787 21.2507 95.367 20.2441 97.033 19.4388C97.2503 19.3678 97.4434 19.3796 97.6124 19.4743C97.8056 19.5691 97.9505 19.6993 98.0471 19.8651C98.1436 20.0309 98.1678 20.2204 98.1195 20.4336C98.0953 20.6231 97.9746 20.8007 97.7573 20.9665C95.367 22.1034 93.6165 23.6784 92.5059 25.6917C91.3952 27.7049 90.8037 30.0497 90.7313 32.7261V33.5788C90.7313 33.6972 90.7071 33.7801 90.6588 33.8275C90.5381 34.088 90.3691 34.2538 90.1518 34.3249C90.0552 34.3249 89.9586 34.3249 89.8621 34.3249C89.7655 34.3249 89.6689 34.3012 89.5723 34.2538H89.5361C89.512 34.2538 89.4757 34.2301 89.4275 34.1827L89.3188 34.0762L89.1015 33.6498V32.4774C89.1015 31.3405 89.0774 30.2273 89.0291 29.1378C88.9808 28.0483 88.8118 26.9825 88.522 25.9404C88.4013 25.3245 88.3168 24.8745 88.2685 24.5903C88.2202 24.2824 88.1116 23.9745 87.9426 23.6666Z" stroke="#212121" stroke-width="0.4" mask="url(#path-1-outside-1_283_4167)"/>
<path d="M106.491 20.6112C106.853 20.6112 107.07 20.7533 107.143 21.0375C108.978 21.3455 110.45 21.8902 111.561 22.6718C112.672 23.4297 113.444 24.3061 113.879 25.3009C114.338 26.2719 114.47 27.2786 114.277 28.3207C114.108 29.3628 113.65 30.2984 112.901 31.1274C112.177 31.9327 111.187 32.5603 109.931 33.0103C108.676 33.4367 107.203 33.5433 105.513 33.3301C104.185 33.1406 103.086 32.7024 102.217 32.0156C101.372 31.305 100.744 30.4879 100.334 29.5642C99.9475 28.6168 99.7906 27.622 99.863 26.5798C99.9354 25.514 100.225 24.5429 100.732 23.6666C101.239 22.7902 101.976 22.0678 102.941 21.4994C103.907 20.9073 105.09 20.6112 106.491 20.6112ZM105.513 22.3165C104.619 22.4586 103.859 22.7784 103.231 23.2758C102.628 23.7495 102.169 24.3179 101.855 24.9811C101.565 25.6206 101.408 26.3075 101.384 27.0417C101.384 27.7759 101.541 28.4628 101.855 29.1023C102.169 29.7418 102.628 30.2984 103.231 30.7721C103.859 31.2221 104.644 31.5063 105.585 31.6248C107.13 31.7906 108.434 31.6958 109.497 31.3405C110.559 30.9853 111.368 30.4997 111.923 29.8839C112.479 29.2444 112.768 28.5339 112.792 27.7523C112.841 26.947 112.611 26.189 112.104 25.4785C111.621 24.7443 110.861 24.1166 109.823 23.5955C108.784 23.0508 107.481 22.7073 105.911 22.5652L105.513 22.3165Z" stroke="#212121" stroke-width="0.4" mask="url(#path-1-outside-1_283_4167)"/>
<path d="M124.294 21.3218C124.632 21.4402 124.946 21.606 125.235 21.8192C125.549 22.0323 125.827 22.2929 126.068 22.6008C126.117 22.6008 126.165 22.6126 126.213 22.6363C126.262 22.66 126.322 22.6718 126.394 22.6718C126.805 22.9797 127.058 23.3232 127.155 23.7021C127.251 24.0811 127.276 24.5311 127.227 25.0522C127.179 25.3127 127.082 25.514 126.938 25.6561C126.793 25.7746 126.636 25.8456 126.467 25.8693C126.298 25.893 126.129 25.8575 125.96 25.7627C125.791 25.6443 125.67 25.4667 125.598 25.2298C125.308 24.2113 124.885 23.4889 124.33 23.0626C123.775 22.6126 123.171 22.3994 122.519 22.4231C121.867 22.4468 121.203 22.6481 120.527 23.0271C119.851 23.4061 119.248 23.8916 118.716 24.4837C118.209 25.0522 117.799 25.6917 117.485 26.4022C117.195 27.1128 117.087 27.8115 117.159 28.4983C117.231 29.1852 117.545 29.8129 118.101 30.3813C118.656 30.9261 119.513 31.3524 120.672 31.6603C121.324 31.7787 121.964 31.8498 122.592 31.8735C123.243 31.8971 123.883 31.8853 124.511 31.8379C124.897 31.7906 125.235 31.7432 125.525 31.6958C125.815 31.6484 126.08 31.5892 126.322 31.5182C126.587 31.4471 126.853 31.3642 127.119 31.2695C127.384 31.1511 127.698 31.0208 128.06 30.8787C128.398 30.7603 128.664 30.6418 128.857 30.5234C129.074 30.405 129.268 30.2984 129.437 30.2037C129.437 30.1089 129.449 30.0023 129.473 29.8839C129.497 29.7655 129.569 29.6471 129.69 29.5286C129.932 29.3628 130.125 29.2326 130.27 29.1378C130.439 29.0431 130.62 28.972 130.813 28.9247C131.344 28.7826 131.73 28.9602 131.972 29.4576C132.141 29.7418 132.141 30.0734 131.972 30.4524C131.272 31.0682 130.463 31.6366 129.545 32.1577C128.628 32.6551 127.722 32.9985 126.829 33.188C126.056 33.3064 125.332 33.413 124.656 33.5077C123.98 33.6261 123.231 33.6617 122.41 33.6143C121.952 33.5669 121.553 33.5196 121.215 33.4722C120.901 33.4011 120.588 33.3301 120.274 33.259C119.984 33.1643 119.682 33.0577 119.368 32.9393C119.079 32.8209 118.728 32.6787 118.318 32.513C117.28 32.1103 116.543 31.4945 116.109 30.6655C115.674 29.8365 115.481 28.9484 115.529 28.0009C115.578 27.0299 115.843 26.0706 116.326 25.1232C116.809 24.1521 117.437 23.3232 118.209 22.6363C119.006 21.9257 119.924 21.4283 120.962 21.1441C122 20.8599 123.111 20.9191 124.294 21.3218Z" stroke="#212121" stroke-width="0.4" mask="url(#path-1-outside-1_283_4167)"/>
<path d="M139.307 28.6049C138.752 28.6049 138.257 28.5931 137.822 28.5694C137.412 28.522 136.977 28.3918 136.518 28.1786C136.325 28.1786 136.144 28.1194 135.975 28.0009C135.83 27.8825 135.722 27.7404 135.649 27.5746C135.601 27.4088 135.601 27.2312 135.649 27.0417C135.722 26.8522 135.879 26.6864 136.12 26.5443C136.386 26.4733 136.639 26.4496 136.881 26.4733C137.146 26.497 137.412 26.5443 137.677 26.6154C137.943 26.6864 138.208 26.7575 138.474 26.8285C138.74 26.8996 139.017 26.9233 139.307 26.8996C140.611 26.7575 141.48 26.5088 141.915 26.1535C142.373 25.7982 142.53 25.4548 142.385 25.1232C142.265 24.7679 141.915 24.4719 141.335 24.235C140.78 23.9745 140.128 23.8561 139.379 23.8798C138.655 23.9034 137.895 24.1166 137.098 24.5192C136.325 24.9219 135.673 25.5969 135.142 26.5443C134.659 27.397 134.49 28.1549 134.635 28.8181C134.78 29.4813 135.106 30.026 135.613 30.4524C136.144 30.8787 136.808 31.1984 137.605 31.4116C138.402 31.6248 139.223 31.7313 140.068 31.7313C140.913 31.7077 141.721 31.5774 142.494 31.3405C143.267 31.08 143.895 30.701 144.377 30.2037C144.595 30.0615 144.8 30.0023 144.993 30.026C145.21 30.026 145.379 30.0971 145.5 30.2392C145.621 30.3576 145.693 30.5234 145.717 30.7366C145.742 30.9261 145.705 31.1392 145.609 31.3761C145.029 31.9682 144.281 32.4301 143.363 32.7616C142.446 33.0695 141.48 33.2472 140.466 33.2946C139.452 33.3419 138.438 33.2709 137.424 33.0814C136.434 32.8682 135.565 32.5366 134.816 32.0866C134.092 31.6366 133.549 31.0682 133.186 30.3813C132.824 29.6944 132.764 28.901 133.005 28.0009C133.174 27.3851 133.307 26.8996 133.404 26.5443C133.524 26.189 133.669 25.8811 133.838 25.6206C134.007 25.3601 134.213 25.0877 134.454 24.8035C134.695 24.5192 135.033 24.1403 135.468 23.6666C136.361 22.6955 137.315 22.1271 138.329 21.9613C139.367 21.7718 140.321 21.8428 141.19 22.1744C142.084 22.506 142.82 23.0034 143.4 23.6666C143.979 24.3298 144.257 25.0166 144.233 25.7272C144.233 26.4141 143.858 27.0417 143.11 27.6101C142.361 28.1549 141.094 28.4865 139.307 28.6049Z" stroke="#212121" stroke-width="0.4" mask="url(#path-1-outside-1_283_4167)"/>
<path d="M161.712 18.3019C161.93 18.5151 162.051 18.7283 162.075 18.9414C162.099 19.1546 162.051 19.3441 161.93 19.5099C161.809 19.652 161.64 19.7467 161.423 19.7941C161.205 19.8415 160.976 19.8059 160.735 19.6875C160.203 19.7349 159.708 19.7941 159.25 19.8651C158.839 19.9125 158.417 19.9836 157.982 20.0783C157.548 20.1494 157.161 20.2086 156.823 20.2559C156.195 20.3744 155.556 20.4809 154.904 20.5757C154.252 20.6704 153.588 20.7889 152.912 20.931C152.26 21.0731 151.62 21.2626 150.992 21.4994C150.365 21.7363 149.773 22.0323 149.218 22.3876C149.918 22.8139 150.666 23.1692 151.463 23.4534C152.284 23.714 153.105 23.9508 153.926 24.164C154.771 24.3535 155.604 24.5548 156.425 24.7679C157.27 24.9811 158.067 25.2535 158.815 25.5851C159.564 25.9167 160.252 26.343 160.88 26.8641C161.507 27.3851 162.038 28.0602 162.473 28.8891C162.594 29.2681 162.594 29.6352 162.473 29.9905C161.821 30.9853 161 31.7313 160.01 32.2287C159.045 32.7261 157.994 33.0577 156.859 33.2235C155.749 33.3656 154.614 33.4011 153.455 33.3301C152.296 33.2353 151.21 33.1169 150.196 32.9748C149.954 32.8801 149.773 32.7498 149.652 32.584C149.532 32.4182 149.471 32.2524 149.471 32.0866C149.471 31.8971 149.532 31.7313 149.652 31.5892C149.773 31.4471 149.954 31.3405 150.196 31.2695C150.944 31.3879 151.825 31.5063 152.839 31.6248C153.853 31.7195 154.868 31.7432 155.882 31.6958C156.896 31.6248 157.849 31.4234 158.743 31.0918C159.636 30.7603 160.324 30.2037 160.807 29.4221C160.493 28.7826 160.034 28.2378 159.431 27.7878C158.851 27.3378 158.175 26.9588 157.403 26.6509C156.63 26.3193 155.809 26.0469 154.94 25.8338C154.071 25.5969 153.202 25.3601 152.332 25.1232C151.463 24.8864 150.618 24.6258 149.797 24.3416C149 24.0574 148.288 23.714 147.66 23.3113C147.564 23.1455 147.491 23.0271 147.443 22.956C147.419 22.8613 147.407 22.731 147.407 22.5652C147.455 22.0678 147.805 21.5823 148.457 21.1086C149.133 20.6349 149.966 20.2086 150.956 19.8296C151.946 19.4506 153.02 19.1191 154.179 18.8348C155.338 18.5506 156.437 18.3375 157.475 18.1953C158.513 18.0532 159.419 17.994 160.191 18.0177C160.964 18.0177 161.471 18.1124 161.712 18.3019Z" stroke="#212121" stroke-width="0.4" mask="url(#path-1-outside-1_283_4167)"/>
<path d="M179.149 18.3019C179.366 18.5151 179.487 18.7283 179.511 18.9414C179.535 19.1546 179.487 19.3441 179.366 19.5099C179.245 19.652 179.076 19.7467 178.859 19.7941C178.642 19.8415 178.413 19.8059 178.171 19.6875C177.64 19.7349 177.145 19.7941 176.686 19.8651C176.276 19.9125 175.853 19.9836 175.419 20.0783C174.984 20.1494 174.598 20.2086 174.26 20.2559C173.632 20.3744 172.992 20.4809 172.34 20.5757C171.688 20.6704 171.024 20.7889 170.348 20.931C169.696 21.0731 169.057 21.2626 168.429 21.4994C167.801 21.7363 167.209 22.0323 166.654 22.3876C167.354 22.8139 168.103 23.1692 168.9 23.4534C169.72 23.714 170.541 23.9508 171.362 24.164C172.207 24.3535 173.04 24.5548 173.861 24.7679C174.706 24.9811 175.503 25.2535 176.252 25.5851C177 25.9167 177.688 26.343 178.316 26.8641C178.944 27.3851 179.475 28.0602 179.909 28.8891C180.03 29.2681 180.03 29.6352 179.909 29.9905C179.258 30.9853 178.437 31.7313 177.447 32.2287C176.481 32.7261 175.431 33.0577 174.296 33.2235C173.185 33.3656 172.05 33.4011 170.891 33.3301C169.733 33.2353 168.646 33.1169 167.632 32.9748C167.391 32.8801 167.209 32.7498 167.089 32.584C166.968 32.4182 166.908 32.2524 166.908 32.0866C166.908 31.8971 166.968 31.7313 167.089 31.5892C167.209 31.4471 167.391 31.3405 167.632 31.2695C168.38 31.3879 169.262 31.5063 170.276 31.6248C171.29 31.7195 172.304 31.7432 173.318 31.6958C174.332 31.6248 175.286 31.4234 176.179 31.0918C177.072 30.7603 177.761 30.2037 178.243 29.4221C177.93 28.7826 177.471 28.2378 176.867 27.7878C176.288 27.3378 175.612 26.9588 174.839 26.6509C174.066 26.3193 173.246 26.0469 172.376 25.8338C171.507 25.5969 170.638 25.3601 169.769 25.1232C168.9 24.8864 168.054 24.6258 167.234 24.3416C166.437 24.0574 165.725 23.714 165.097 23.3113C165 23.1455 164.928 23.0271 164.879 22.956C164.855 22.8613 164.843 22.731 164.843 22.5652C164.892 22.0678 165.242 21.5823 165.894 21.1086C166.57 20.6349 167.403 20.2086 168.393 19.8296C169.382 19.4506 170.457 19.1191 171.616 18.8348C172.775 18.5506 173.873 18.3375 174.912 18.1953C175.95 18.0532 176.855 17.994 177.628 18.0177C178.4 18.0177 178.907 18.1124 179.149 18.3019Z" stroke="#212121" stroke-width="0.4" mask="url(#path-1-outside-1_283_4167)"/>
</svg>
