<svg width="29" height="29" viewBox="0 0 29 29" fill="none" xmlns="http://www.w3.org/2000/svg">
<path fill-rule="evenodd" clip-rule="evenodd" d="M6.68557 16.106C6.57561 15.9981 6.46484 15.8901 6.35327 15.783C5.21583 14.6927 4.08724 13.6012 3.02834 12.4319C2.77177 12.1487 2.29005 11.5994 1.80631 11.3166C1.46033 11.1144 1.10224 11.0298 0.774784 11.0717C0.566145 11.0983 0.261255 11.2034 0.108199 11.6034C0.0824216 11.6707 0.0518173 11.7862 0.039734 11.9337C0.0204007 12.1721 0.039322 12.5999 0.0453636 12.6591C0.129947 13.5218 0.214527 14.3467 0.369597 15.2002C0.51218 15.9856 0.609648 16.7771 0.763107 17.5613C0.99269 18.7346 1.28834 19.864 1.71931 20.9813C1.87921 21.3961 2.34603 21.6027 2.76089 21.4428C3.17535 21.2829 3.38238 20.8165 3.22247 20.4017C2.82574 19.3726 2.55548 18.3326 2.34442 17.2519C2.19217 16.475 2.0959 15.6904 1.95453 14.9122C1.86269 14.4059 1.79744 13.9101 1.74185 13.4099L1.83409 13.5133C2.91877 14.7108 4.07355 15.8293 5.23838 16.9458C5.67419 17.3639 6.09509 17.7941 6.53775 18.2053C6.57359 18.2577 6.73912 18.4977 6.82048 18.5799C6.95581 18.7169 7.10203 18.7934 7.22931 18.8312C7.55274 18.9279 7.88101 18.8921 8.16779 18.5296C8.38247 18.2581 8.5061 17.8372 8.49684 17.3345C8.48435 16.6437 8.22217 15.7331 8.16658 15.3134C7.81455 12.6579 7.24503 10.0128 7.09358 7.33436C7.06861 6.8905 6.68798 6.55054 6.24412 6.57551C5.80026 6.60089 5.4599 6.98151 5.48527 7.42537C5.63873 10.1441 6.2119 12.8295 6.56916 15.5252C6.5885 15.6686 6.63441 15.8728 6.68557 16.106Z" fill="#212121"/>
<path fill-rule="evenodd" clip-rule="evenodd" d="M13.7271 5.09916C12.8136 5.34123 11.8985 5.55228 11.1646 6.17981C10.397 6.83674 10.0067 7.79093 9.86772 8.85426C9.69049 10.2108 9.92813 11.7498 10.0755 12.8466C10.1521 13.4145 10.1847 14.206 10.3502 14.9072C10.4928 15.5102 10.7357 16.0503 11.1058 16.4285C11.6875 17.0226 12.58 17.0826 13.4955 16.712C14.5532 16.2839 15.6065 15.2959 15.8929 14.7199C16.091 14.322 15.9287 13.8378 15.5304 13.6401C15.1324 13.4419 14.6487 13.6042 14.4505 14.0022C14.2689 14.3675 13.562 14.9471 12.891 15.219C12.7411 15.2794 12.5929 15.3245 12.4527 15.3358C12.3798 15.3418 12.3069 15.3523 12.2574 15.3019C12.0145 15.0534 11.9291 14.6494 11.8586 14.2414C11.76 13.6727 11.7326 13.0786 11.6725 12.6315C11.5404 11.6507 11.3068 10.2761 11.4651 9.0629C11.5501 8.41242 11.7422 7.80624 12.2123 7.40427C12.7576 6.93785 13.4601 6.83675 14.1396 6.65671C14.5693 6.54312 14.8259 6.10168 14.7119 5.67191C14.5983 5.24215 14.1569 4.98558 13.7271 5.09916Z" fill="#212121"/>
<path fill-rule="evenodd" clip-rule="evenodd" d="M13.6626 9.34207C12.955 9.72752 12.1985 10.1238 11.4401 10.3961C11.0216 10.5463 10.8037 11.008 10.9536 11.4264C11.1038 11.8449 11.5654 12.0628 11.9839 11.9126C12.8192 11.6129 13.6542 11.1815 14.4331 10.7574C14.8234 10.5448 14.968 10.055 14.7554 9.66468C14.5427 9.27398 14.0533 9.1298 13.6626 9.34207Z" fill="#212121"/>
<path fill-rule="evenodd" clip-rule="evenodd" d="M23.3854 9.77196C22.7974 9.06065 22.1759 8.36063 21.5194 7.72102C21.4658 7.66906 20.8036 7.1237 20.4101 6.91989C20.1447 6.78254 19.9095 6.75757 19.7717 6.77087C19.3709 6.80953 19.1265 7.02663 19.0262 7.39799C18.9303 7.75405 18.8957 8.12501 18.8957 8.50362C18.3 7.38671 17.755 6.238 17.4239 5.02845C17.3965 4.92856 17.3744 4.88184 17.3708 4.87338C17.2592 4.62688 17.1009 4.54309 17.0445 4.51006C16.7674 4.34734 16.5177 4.37475 16.307 4.4694C16.2812 4.48068 15.7133 4.73281 15.8491 5.37685C15.8599 5.42881 15.9526 5.79896 15.9796 5.94355C16.0033 6.06922 16.0549 6.1824 16.127 6.27826C16.682 7.87245 17.5311 9.37845 18.3459 10.849C18.5219 11.1668 18.6592 11.4942 18.7499 11.8459C18.7765 11.9486 18.7873 12.181 18.8107 12.2949C18.8506 12.4879 18.9295 12.6172 18.9798 12.6832C19.2417 13.0272 19.5643 13.0623 19.8619 12.974C19.9892 12.9366 20.2442 12.8508 20.3992 12.4814C20.748 11.6517 20.7086 10.7354 20.6075 9.81223C20.5777 9.53914 20.5406 9.26606 20.5181 8.9962C21.2346 9.70831 21.9052 10.4937 22.5356 11.2787C22.6049 11.3649 23.3065 12.1496 23.493 12.2664C23.9594 12.5596 24.3215 12.3393 24.4766 12.2079C24.713 12.0074 24.8991 11.663 24.9748 11.2244C25.0723 10.6569 24.9953 9.87586 24.9877 9.56169C24.9365 7.44711 24.86 5.23669 24.3851 3.17205C24.2856 2.73866 23.8531 2.46798 23.4197 2.56746C22.9863 2.66695 22.7156 3.09995 22.8151 3.53293C23.2658 5.49366 23.3282 7.59334 23.377 9.60078C23.3782 9.6471 23.3814 9.7051 23.3854 9.77196Z" fill="#212121"/>
<path fill-rule="evenodd" clip-rule="evenodd" d="M26.6045 2.63515C26.8965 4.04689 27.1889 5.44572 27.3798 6.89733C27.4378 7.33837 27.8426 7.64933 28.2836 7.59133C28.7243 7.53333 29.0352 7.12853 28.9772 6.68749C28.7082 4.64017 28.2426 2.69637 27.8527 0.676845C27.7025 -0.103738 26.9605 0.00542591 26.915 0.0134815C26.8147 0.0312037 26.2682 0.147605 26.25 0.787619C26.2488 0.826689 26.275 1.10297 26.2794 1.21011C26.2891 1.4554 26.2843 1.69507 26.2718 1.94076C26.2573 2.22391 26.3906 2.48048 26.6045 2.63515Z" fill="#212121"/>
<path fill-rule="evenodd" clip-rule="evenodd" d="M28.6959 10.9608C28.7777 10.7119 28.7362 10.4275 28.5606 10.2072C28.2831 9.8596 27.776 9.8028 27.4284 10.0803C27.1074 10.3365 27.0474 10.6486 27.0905 11.0305C27.1404 11.4723 27.54 11.7905 27.9818 11.7402C28.3858 11.6946 28.6863 11.3563 28.6959 10.9608Z" fill="#212121"/>
<path fill-rule="evenodd" clip-rule="evenodd" d="M13.4892 26.4995C13.407 26.3255 13.341 26.1881 13.3253 26.1587C12.5769 24.7591 11.7649 23.3779 10.8808 22.0597C10.6331 21.6903 10.1325 21.5916 9.76311 21.8393C9.39376 22.087 9.29508 22.5877 9.54279 22.9571C10.3971 24.2306 11.1813 25.5659 11.9047 26.9184C11.9598 27.0215 12.3276 27.9378 12.5902 28.32C12.8282 28.666 13.1271 28.7897 13.2983 28.8151C13.5702 28.8553 13.9955 28.7579 14.3407 28.2971C14.7914 27.6957 15.3758 26.0891 15.4721 25.8224C15.6485 25.3318 15.7979 24.8171 15.9365 24.3164C16.1991 23.3667 16.3501 22.4 16.4851 21.4261C16.5463 20.9854 16.2382 20.5786 15.7975 20.5174C15.3573 20.4566 14.9501 20.7647 14.8893 21.205C14.764 22.1084 14.6274 23.0058 14.3838 23.8867C14.2557 24.3486 14.1187 24.8243 13.956 25.2771C13.9069 25.4128 13.716 25.9734 13.4892 26.4995Z" fill="#212121"/>
</svg>
