<svg width="26" height="30" viewBox="0 0 26 30" fill="none" xmlns="http://www.w3.org/2000/svg">
<path d="M23.9768 0.782672C23.7393 0.307737 23.2619 0 22.6852 0H20.4075C19.7605 0 19.2516 0.27139 19.0142 0.748748L15.6484 5.64348L18.5732 9.65619L23.7078 2.31167C24.2821 1.63319 24.0785 1.02256 23.9768 0.782672Z" fill="#212121"/>
<path d="M6.27152 0.716057C5.76266 0.0351557 5.08177 0.0351563 4.8443 0.0351563H2.6344C2.05527 0.0351563 1.61426 0.306547 1.37679 0.74998C1.13932 1.22492 1.17325 1.77012 1.51249 2.27898L9.70753 13.6338L0.288803 26.7914C-0.0504361 27.3003 -0.0843594 27.8455 0.153108 28.2865C0.390575 28.7275 0.867932 29.0013 1.41071 29.0013H3.68846C4.26759 29.0013 4.77645 28.696 5.04784 28.2186L15.5885 13.6677L6.27152 0.716057Z" fill="#212121"/>
<path d="M25.0881 26.8947L18.4924 17.8516L15.6016 21.8304L20.804 28.7654L20.9397 28.8332C21.1772 28.935 21.3807 28.9689 21.5867 28.9689H23.7966C24.3418 28.9689 24.7828 28.7314 25.0542 28.3219C25.3595 27.9488 25.3595 27.406 25.0881 26.8947Z" fill="#212121"/>
</svg>
