<svg width="21" height="23" viewBox="0 0 21 23" fill="none" xmlns="http://www.w3.org/2000/svg">
<path fill-rule="evenodd" clip-rule="evenodd" d="M8.27941 4.53041C8.2178 4.16487 8.1714 3.80348 8.14141 3.44206C8.09623 2.89991 8.12417 2.35363 8.10815 1.81148C8.10117 1.58148 8.07364 0.981847 8.08473 0.895597C8.18536 0.14399 8.79198 0.0289759 8.96941 0.00844021C9.05525 -0.00388122 9.93664 -0.102409 10.1268 0.875092C10.3601 2.07027 10.4348 3.27365 10.3523 4.4524C10.5449 5.45454 10.8743 6.45255 11.3093 7.35613C13.04 10.9499 16.338 11.299 19.9112 11.2661C20.4608 11.2579 20.9171 11.6892 20.9459 12.2354C20.9746 12.7858 20.5655 13.2622 20.0185 13.3115C18.0212 13.5045 14.4775 15.1063 13.2523 16.7738C12.996 17.1229 12.847 17.9649 12.6498 18.7904C12.3746 19.9363 12.0473 21.0699 11.6805 21.5463C11.6255 21.6203 10.9564 22.376 10.7568 22.4869C10.2771 22.7497 9.89311 22.5977 9.67502 22.4581C9.45693 22.3185 9.21009 22.0433 9.11152 21.5874C9.00843 21.111 9.0955 20.1334 9.07948 19.924C9.02116 19.1642 8.86921 17.6733 8.55912 16.3918C8.39196 15.7018 8.2137 15.0652 7.91881 14.749C6.82713 13.5784 5.08159 13.751 3.61165 13.944C3.44284 13.9645 3.27404 13.9892 3.10565 14.0097C2.50724 14.1863 1.87185 14.3177 1.20033 14.3958C0.186276 14.5149 0.0195375 13.5826 0.0105017 13.521C-0.00839112 13.3854 -0.0786306 12.6872 0.685709 12.4079C0.769084 12.3792 1.38434 12.2436 1.62132 12.1902C1.95154 12.1163 2.28544 12.0588 2.62058 12.0054C6.08249 10.9294 7.96275 7.90648 8.27941 4.53041ZM9.46761 8.26384C10.7745 10.9663 12.7578 12.2724 15.1088 12.8638C13.6409 13.6319 12.3052 14.5929 11.5976 15.5581C11.329 15.9237 11.0825 16.6588 10.8603 17.4844C10.74 16.7163 10.5774 15.899 10.3626 15.2008C10.1182 14.404 9.78919 13.7428 9.42201 13.3485C8.71312 12.5887 7.82351 12.1656 6.86695 11.9562C8.01203 10.9417 8.88029 9.67669 9.46761 8.26384Z" fill="#212121"/>
</svg>
