<svg width="26" height="26" viewBox="0 0 26 26" fill="none" xmlns="http://www.w3.org/2000/svg">
<path fill-rule="evenodd" clip-rule="evenodd" d="M11.7991 9.31377C9.33237 7.24255 7.33361 4.77598 5.83163 1.90224C5.53123 1.32985 4.83226 1.11151 4.26612 1.41836C3.70577 1.72521 3.49199 2.43923 3.79238 3.01752C5.44456 6.1627 7.62825 8.86531 10.3318 11.1372C10.8228 11.5502 11.5565 11.4794 11.9609 10.9778C12.3652 10.4703 12.2901 9.72683 11.7991 9.31377Z" fill="black"/>
<path fill-rule="evenodd" clip-rule="evenodd" d="M10.4867 1.24697C10.6138 3.63094 10.7294 6.0149 10.8738 8.39886C10.9142 9.04796 11.463 9.54363 12.0985 9.50233C12.7339 9.46102 13.2192 8.90044 13.1787 8.25134C13.0343 5.87328 12.9188 3.49523 12.7917 1.11126C12.757 0.463935 12.2082 -0.0346942 11.5728 0.00189138C10.9373 0.038477 10.4463 0.596103 10.4867 1.24697Z" fill="black"/>
<path fill-rule="evenodd" clip-rule="evenodd" d="M19.0622 1.73038C17.5833 4.00813 15.9081 6.10883 14.2212 8.23315C13.8169 8.74063 13.8919 9.48417 14.3887 9.89134C14.8855 10.3044 15.6135 10.2277 16.0121 9.72019C17.7451 7.54276 19.4666 5.37712 20.9917 3.03446C21.3441 2.49158 21.1938 1.75989 20.6624 1.39993C20.1367 1.03998 19.4146 1.1875 19.0622 1.73038Z" fill="black"/>
<path fill-rule="evenodd" clip-rule="evenodd" d="M24.7919 10.1976C20.7828 10.3805 16.5252 10.3864 12.5161 10.1268C11.8807 10.0914 11.3319 10.5812 11.2914 11.2362C11.251 11.8853 11.7362 12.4459 12.3717 12.4872C16.4617 12.7468 20.8059 12.7409 24.8959 12.558C25.5314 12.5285 26.0281 11.9738 25.9993 11.3247C25.9704 10.6756 25.4274 10.1681 24.7919 10.1976Z" fill="black"/>
<path fill-rule="evenodd" clip-rule="evenodd" d="M10.3329 10.948C12.8054 14.04 15.3646 17.0731 17.658 20.3068C18.0335 20.832 18.7556 20.95 19.2755 20.5664C19.7897 20.1829 19.9052 19.4452 19.5297 18.92C17.2074 15.6509 14.6194 12.5825 12.118 9.45501C11.7136 8.95343 10.9857 8.87674 10.4947 9.2898C9.99788 9.70287 9.92854 10.4464 10.3329 10.948Z" fill="black"/>
<path fill-rule="evenodd" clip-rule="evenodd" d="M11.08 11.8442C11.727 15.0661 11.9061 18.1464 11.9523 21.4096C11.9581 22.0587 12.4838 22.578 13.1192 22.5721C13.7604 22.5603 14.2688 22.0292 14.2572 21.3742C14.211 17.9576 14.0204 14.7416 13.3445 11.3663C13.2117 10.729 12.6051 10.3159 11.9754 10.4516C11.3515 10.5814 10.9471 11.2069 11.08 11.8442Z" fill="black"/>
<path fill-rule="evenodd" clip-rule="evenodd" d="M11.1855 11.5842C9.31379 15.4079 8.34905 19.6566 6.34448 23.3978C6.03831 23.9642 6.24623 24.6841 6.80659 24.9969C7.36694 25.3096 8.06599 25.0972 8.37216 24.5307C10.3883 20.7659 11.3645 16.4937 13.2536 12.6404C13.5366 12.0562 13.3056 11.3481 12.7394 11.0531C12.1675 10.7639 11.4743 11 11.1855 11.5842Z" fill="black"/>
<path fill-rule="evenodd" clip-rule="evenodd" d="M12.2147 10.7167C8.4886 11.3894 4.7683 11.6963 1.01912 12.1507C0.38367 12.2274 -0.066924 12.8116 0.00817506 13.4607C0.0832741 14.1098 0.655236 14.57 1.29069 14.4933C5.0803 14.039 8.8468 13.7203 12.6191 13.0417C13.243 12.9237 13.6647 12.31 13.5549 11.6727C13.4394 11.0295 12.8443 10.5987 12.2147 10.7167Z" fill="black"/>
<path fill-rule="evenodd" clip-rule="evenodd" d="M14.8052 8.92414C14.0369 8.88873 13.309 8.83561 12.558 8.72349C11.9226 8.62908 11.3391 9.07755 11.2467 9.72075C11.1542 10.3639 11.5932 10.9658 12.2229 11.0603C13.0548 11.1842 13.8578 11.2432 14.7012 11.2786C15.3367 11.3081 15.8797 10.8065 15.9028 10.1515C15.9317 9.5024 15.4407 8.95364 14.8052 8.92414Z" fill="black"/>
</svg>
