<svg width="34" height="24" viewBox="0 0 34 24" fill="none" xmlns="http://www.w3.org/2000/svg">
<g clip-path="url(#clip0_283_4179)">
<mask id="mask0_283_4179" style="mask-type:luminance" maskUnits="userSpaceOnUse" x="0" y="0" width="34" height="24">
<path d="M0 0.00195312H34V23.9997H0V0.00195312Z" fill="white"/>
</mask>
<g mask="url(#mask0_283_4179)">
<path d="M34 11.4641V12.5353C33.9894 12.5934 33.9759 12.6504 33.9689 12.7083C33.911 13.1743 33.8735 13.6432 33.7935 14.1057C33.5321 15.6088 32.9671 17.006 32.1276 18.2978C30.8527 20.2592 29.1292 21.7549 26.9633 22.7763C25.7132 23.3686 24.3653 23.7493 22.9795 23.9013C22.6717 23.9354 22.3642 23.9659 22.0563 23.9983H10.1119C10.0517 23.9876 9.9918 23.9704 9.93108 23.967C8.72667 23.8944 7.56787 23.6317 6.46336 23.1692C4.05873 22.1622 2.26583 20.5302 1.0922 18.2839C0.573591 17.2931 0.237972 16.2239 0.100181 15.1236C0.066321 14.8561 0.0333004 14.5888 0 14.3215V13.2822C0.0114733 13.2246 0.0291029 13.167 0.0327407 13.1092C0.095144 12.1105 0.309218 11.1408 0.686156 10.2089C1.70056 7.70119 3.46884 5.8413 5.98176 4.63753C7.28551 4.01275 8.67518 3.68442 10.1286 3.61158C10.8403 3.57623 11.5513 3.61426 12.2587 3.70504C12.3228 3.71334 12.4152 3.68603 12.4597 3.64238C13.4769 2.64803 14.6351 1.84034 15.9411 1.22814C17.2079 0.634423 18.5411 0.251734 19.9444 0.0985512C20.2746 0.0623979 20.6057 0.0326719 20.9364 0H21.9548C22.0214 0.00990868 22.0882 0.0211564 22.1548 0.0286548C22.6594 0.0848933 23.1667 0.120243 23.6665 0.200316C25.2258 0.450711 26.6773 0.986315 28.0205 1.78196C30.0801 3.00206 31.6497 4.6536 32.722 6.73281C33.3422 7.9297 33.7403 9.2206 33.8987 10.5479C33.9351 10.8535 33.9661 11.159 34 11.4641ZM14.9894 4.53255C15.0098 4.55826 15.0148 4.57031 15.0235 4.57433C15.7228 4.9042 16.3912 5.29099 17.0213 5.73043C17.061 5.75801 17.1595 5.7465 17.2076 5.71758C18.9393 4.66752 20.8164 4.30519 22.8329 4.64744C24.8088 4.98273 26.4167 5.92753 27.6452 7.4366C29.0363 9.14437 29.5666 11.0755 29.1826 13.2241C28.9252 14.664 28.3224 15.9559 27.2979 17.0381C25.4286 19.011 23.0878 19.827 20.3323 19.4815C18.6359 19.2689 17.1715 18.5686 15.9596 17.3964C14.404 15.8927 12.8383 14.3989 11.2782 12.8992C11.0703 12.6994 10.8389 12.5388 10.5394 12.5037C10.0164 12.4424 9.54183 12.6922 9.316 13.1419C9.11452 13.5433 9.14054 13.9959 9.57765 14.4072C11.3168 16.0411 13.0406 17.6899 14.7778 19.3254C15.0752 19.6067 15.394 19.8664 15.7318 20.1023C17.0008 20.9842 18.4316 21.4718 19.9811 21.6681C21.1973 21.8219 22.4039 21.7889 23.6013 21.5313C25.8853 21.0404 27.7773 19.9247 29.2674 18.2033C30.4979 16.7808 31.2419 15.1461 31.5014 13.3108C31.6517 12.2643 31.6203 11.2012 31.4084 10.1644C31.0628 8.46924 30.3135 6.95241 29.1127 5.66134C26.8217 3.19943 23.9394 2.10037 20.5094 2.34568C19.19 2.43995 17.9419 2.81085 16.7675 3.39921C16.1337 3.71434 15.5375 4.09434 14.9894 4.53255ZM14.1502 21.719C14.103 21.6772 14.0559 21.6351 14.0091 21.5929C13.2981 20.9504 12.5831 20.312 11.8804 19.6612C11.7444 19.5354 11.6193 19.474 11.4268 19.4783C10.7152 19.4949 10.003 19.4979 9.30173 19.3463C5.81498 18.5916 3.79037 14.9637 5.07537 11.7715C6.08894 9.25444 8.89485 7.72154 11.6619 8.19421C12.9021 8.40604 13.9907 8.90844 14.8842 9.79031C15.9738 10.8669 17.096 11.9126 18.1974 12.9782C18.4481 13.2209 18.7361 13.3315 19.0834 13.2841C19.5322 13.2227 19.8896 13.0181 20.0519 12.5969C20.2108 12.1823 20.1339 11.7897 19.8059 11.4718C18.6499 10.3511 17.5213 9.20222 16.3186 8.12913C13.9859 6.04697 11.2351 5.42781 8.19274 6.31317C4.10071 7.50301 1.70588 11.5468 2.64081 15.5371C3.49291 19.1728 6.81539 21.7244 10.7031 21.7276C11.7886 21.7287 12.8744 21.7281 13.9599 21.7276C14.0136 21.7276 14.0673 21.723 14.1502 21.719Z" fill="#212121"/>
</g>
</g>
<defs>
<clipPath id="clip0_283_4179">
<rect width="34" height="24" fill="white"/>
</clipPath>
</defs>
</svg>
