<svg width="54" height="54" viewBox="0 0 54 54" fill="none" xmlns="http://www.w3.org/2000/svg">
<rect width="54" height="54" rx="27" fill="#212121"/>
<path fill-rule="evenodd" clip-rule="evenodd" d="M16 21.75C16 18.5744 18.5744 16 21.75 16H31.75C34.9256 16 37.5 18.5744 37.5 21.75V31.75C37.5 34.9256 34.9256 37.5 31.75 37.5H21.75C18.5744 37.5 16 34.9256 16 31.75V21.75ZM22 31.75C22 32.1642 22.3358 32.5 22.75 32.5C23.1642 32.5 23.5 32.1642 23.5 31.75V28.75C23.5 28.3358 23.1642 28 22.75 28C22.3358 28 22 28.3358 22 28.75V31.75ZM26.75 32.5C26.3358 32.5 26 32.1642 26 31.75V21.75C26 21.3358 26.3358 21 26.75 21C27.1642 21 27.5 21.3358 27.5 21.75V31.75C27.5 32.1642 27.1642 32.5 26.75 32.5ZM30 31.75C30 32.1642 30.3358 32.5 30.75 32.5C31.1642 32.5 31.5 32.1642 31.5 31.75V24.75C31.5 24.3358 31.1642 24 30.75 24C30.3358 24 30 24.3358 30 24.75V31.75Z" fill="white"/>
</svg>
