<svg width="56" height="56" viewBox="0 0 56 56" fill="none" xmlns="http://www.w3.org/2000/svg">
<path d="M28 56C43.464 56 56 43.464 56 28C56 12.536 43.464 0 28 0C12.536 0 0 12.536 0 28C0 43.464 12.536 56 28 56Z" fill="#212121"/>
<path fill-rule="evenodd" clip-rule="evenodd" d="M18.9073 15.4727H37.0828C38.9819 15.4727 40.5214 17.0122 40.5214 18.9113V31.2968L40.5566 31.2572V44.0963L32.6868 40.5253H18.9073C17.0083 40.5253 15.4688 38.9858 15.4688 37.0867V18.9113C15.4688 17.0122 17.0083 15.4727 18.9073 15.4727ZM20.9744 33.9804C20.6153 33.7889 20.169 33.9247 19.9775 34.2838C19.786 34.6429 19.9218 35.0892 20.2809 35.2807C25.4099 38.0162 30.5822 38.0162 35.7112 35.2807C36.0703 35.0892 36.2061 34.6429 36.0146 34.2838C35.8231 33.9247 35.3768 33.7889 35.0177 33.9804C30.3221 36.4847 25.6699 36.4847 20.9744 33.9804Z" fill="white"/>
</svg>
