<svg width="22" height="22" viewBox="0 0 22 22" fill="none" xmlns="http://www.w3.org/2000/svg">
<path fill-rule="evenodd" clip-rule="evenodd" d="M11.2245 21.5508H10.7755C4.82436 21.5508 0 16.7264 0 10.7753C0 4.82412 4.82436 -0.000238419 10.7755 -0.000238419H11.2245C17.1756 -0.000238419 22 4.82412 22 10.7753C22 16.7264 17.1756 21.5508 11.2245 21.5508ZM13.2048 14.2422H8.94583C8.78198 14.2422 8.65104 14.3732 8.65104 14.537V15.225C8.65104 15.3888 8.7821 15.5198 8.94583 15.5198H13.2048C13.3687 15.5198 13.4996 15.3887 13.4996 15.225V14.537C13.4996 14.3732 13.3685 14.2422 13.2048 14.2422ZM11.3963 5.74392C11.5437 5.80939 11.6748 5.92411 11.7567 6.07151L13.9681 9.90464C14.1155 10.1503 14.1646 10.4452 14.0992 10.7237L13.5749 13.3282C13.5423 13.4756 13.4275 13.5738 13.2801 13.5738H8.90651C8.75911 13.5738 8.64451 13.4592 8.61171 13.3282L8.08747 10.7237C8.022 10.4452 8.07113 10.1503 8.21853 9.90464L10.4135 6.07157C10.5118 5.9405 10.6265 5.82578 10.7739 5.7603L10.7739 9.26576C10.4299 9.39684 10.1678 9.74077 10.1678 10.1339C10.1678 10.6417 10.5773 11.0512 11.0851 11.0512C11.5929 11.0512 12.0024 10.6417 12.0024 10.1339C12.0024 9.74074 11.7567 9.39682 11.3963 9.26576L11.3963 5.74392Z" fill="#212121"/>
</svg>
