<svg width="22" height="22" viewBox="0 0 22 22" fill="none" xmlns="http://www.w3.org/2000/svg">
<path fill-rule="evenodd" clip-rule="evenodd" d="M10.7755 21.5508H11.2245C17.1756 21.5508 22 16.7264 22 10.7753C22 4.82412 17.1756 -0.000238419 11.2245 -0.000238419H10.7755C4.82436 -0.000238419 0 4.82412 0 10.7753C0 16.7264 4.82436 21.5508 10.7755 21.5508ZM8.7261 6.11458C7.28188 6.11458 6.11111 7.28535 6.11111 8.72957V13.2774C6.11111 14.7216 7.28188 15.8924 8.7261 15.8924H13.2739C14.7181 15.8924 15.8889 14.7216 15.8889 13.2774V8.72957C15.8889 7.28535 14.7181 6.11458 13.2739 6.11458H8.7261ZM8.5589 11.4611L8.30366 11.2111L8.5589 10.961L9.90772 9.63973C10.0458 9.50446 10.2674 9.50675 10.4027 9.64483C10.5379 9.78292 10.5357 10.0045 10.3976 10.1398L9.30398 11.2111L10.3976 12.2823C10.5357 12.4176 10.5379 12.6392 10.4027 12.7773C10.2674 12.9154 10.0458 12.9176 9.90772 12.7824L8.5589 11.4611ZM13.5461 11.4611L13.8014 11.2111L13.5461 10.961L12.1973 9.63973C12.0592 9.50446 11.8376 9.50675 11.7024 9.64483C11.5671 9.78292 11.5694 10.0045 11.7075 10.1398L12.8011 11.2111L11.7075 12.2823C11.5694 12.4176 11.5671 12.6392 11.7024 12.7773C11.8376 12.9154 12.0592 12.9176 12.1973 12.7824L13.5461 11.4611Z" fill="#212121"/>
</svg>
