<svg width="120" height="46" viewBox="0 0 120 46" fill="none" xmlns="http://www.w3.org/2000/svg">
<path d="M82.9968 34.2543C82.9968 34.2543 82.4534 32.2853 84.5231 28.5706C86.5927 24.856 88.1719 26.8493 88.1719 26.8493C88.1719 26.8493 89.9465 28.7675 87.9277 31.6195C85.9089 34.4715 82.9968 34.2584 82.9968 34.2584M67.1641 36.9642C64.7973 43.1147 59.0768 40.6038 59.0768 40.6038C59.0768 40.6038 58.4357 38.3709 60.31 32.2407C62.1843 26.1104 66.525 28.5016 66.525 28.5016C66.525 28.5016 69.5329 30.8157 67.1661 36.9622M62.8762 11.136C62.8762 11.136 66.4274 1.83918 67.3126 6.3658C68.1979 10.8924 59.8155 24.3221 59.8155 24.3221C59.9132 21.3219 62.8742 11.138 62.8742 11.138M11.8289 34.2786C11.9775 28.327 15.8726 25.7187 17.2544 26.9975C18.6362 28.2763 18.1416 31.1303 15.5286 32.8516C13.0133 34.6217 11.8289 34.2786 11.8289 34.2786ZM119.984 33.2942C119.786 31.2765 117.961 32.0153 117.961 32.0153C117.961 32.0153 115.051 34.2787 112.466 34.033C109.882 33.7874 110.741 28.0814 110.741 28.0814C110.741 28.0814 111.284 22.818 109.805 22.3978C108.278 21.9553 106.451 23.7781 106.451 23.7781C106.451 23.7781 104.131 26.3357 103.048 29.5835L102.753 29.681C102.753 29.681 103.099 23.9973 102.704 22.6454C102.409 22.006 99.6456 22.0365 99.204 23.1874C98.7623 24.3383 96.5584 32.3381 96.3956 35.732C96.3956 35.732 92.0548 39.3716 88.3083 40.011C84.5109 40.62 83.6236 38.241 83.6236 38.241C83.6236 38.241 93.8802 35.387 93.5343 27.2187C93.1883 19.0505 85.2516 22.0527 84.3603 22.7429C83.473 23.3823 78.8656 26.1855 77.5021 33.8605C77.4533 34.1041 77.3536 35.2875 77.3536 35.2875C77.3536 35.2875 73.3588 37.9263 71.1874 38.6327C71.1874 38.6327 77.3536 28.254 69.8035 23.5304C66.4009 21.464 63.6373 25.7938 63.6373 25.7938C63.6373 25.7938 73.8472 14.4792 71.5781 4.88602C70.4934 0.310678 68.2243 -0.180551 66.0835 0.556295C62.8782 1.83512 61.6938 3.65592 61.6938 3.65592C61.6938 3.65592 57.5505 9.60752 56.6143 18.5146C55.6782 27.4217 54.2476 38.0928 54.2476 38.0928C54.2476 38.0928 52.2736 40.011 50.499 40.1105C48.6735 40.2079 49.512 34.7476 49.512 34.7476C49.512 34.7476 50.8958 26.4332 50.7941 25.0082C50.6923 23.5832 50.5967 22.8443 48.9218 22.3694C47.2938 21.8781 45.4704 23.9933 45.4704 23.9933C45.4704 23.9933 40.688 31.2237 40.2912 32.3076L40.047 32.7501L39.8028 32.4558C39.8028 32.4558 43.1565 22.617 39.9513 22.4688C36.7461 22.3206 34.6256 25.9602 34.6256 25.9602C34.6256 25.9602 30.9767 32.1107 30.8282 32.8009L30.584 32.5066C30.584 32.5066 32.1102 25.3736 31.8172 23.6035C31.5242 21.8335 29.8432 22.2232 29.8432 22.2232C29.8432 22.2232 27.7227 21.9796 27.1976 23.3538C26.6726 24.7281 24.6335 33.7062 24.3893 36.5379C24.3893 36.5379 19.1124 40.3257 15.6385 40.3257C12.1871 40.3744 12.531 38.0928 12.531 38.0928C12.531 38.0928 25.2542 33.7631 21.8027 25.1544C20.2235 22.9215 18.4489 22.2516 15.8848 22.3003C13.3206 22.3491 10.3128 23.9242 8.24111 28.4996C7.25411 30.7325 6.85727 32.7786 6.85727 34.3538C6.85727 34.3538 4.4905 34.7963 3.25522 33.8118C2.01995 32.8273 1.3321 33.8118 1.3321 33.8118C1.3321 33.8118 -0.788431 36.8119 1.28325 37.5995C3.35494 38.3871 6.51334 39.1747 6.51334 39.1747C6.80842 40.4535 7.64687 42.6174 10.1622 44.4869C13.9108 47.3409 21.1596 44.0444 21.1596 44.0444L24.1186 42.2743C24.1186 42.2743 24.2163 44.9132 26.3877 45.3252C28.5591 45.7373 29.4464 45.2765 33.2458 36.1746L35.6126 31.7494L35.8568 31.7007C35.8568 31.7007 34.1311 40.6037 34.8393 43.0152C35.5475 45.4267 38.3396 45.1791 38.3396 45.1791C38.3396 45.1791 39.9188 45.7211 41.1479 41.2919C42.43 36.8667 44.7968 32.2386 44.7968 32.2386H45.0919C45.0919 32.2386 44.0743 41.1417 45.6352 44.0444C47.2633 46.9471 51.4046 44.9294 51.4046 44.9294C51.4046 44.9294 54.3147 43.407 54.7584 42.9604C54.7584 42.9604 58.2098 45.8632 63.0939 45.3212C73.9937 43.1573 77.8888 40.2546 77.8888 40.2546C77.8888 40.2546 79.761 44.9781 85.5813 45.4207C92.24 45.9119 95.838 41.7303 95.838 41.7303C95.838 41.7303 95.7891 44.4362 98.1071 45.3699C100.425 46.3036 102.004 41.3101 102.004 41.3101L105.901 30.9314H106.247C106.247 30.9314 106.445 37.5731 110.291 38.6551C114.137 39.737 119.119 35.9005 119.119 35.9005C119.119 35.9005 120.204 35.3585 119.957 33.3429" fill="#212121"/>
</svg>
