<svg width="54" height="54" viewBox="0 0 54 54" fill="none" xmlns="http://www.w3.org/2000/svg">
<rect width="54" height="54" rx="27" fill="#212121"/>
<path fill-rule="evenodd" clip-rule="evenodd" d="M26.8571 19C22.2857 19 18.8571 22.4286 16 27C18.8571 31.5714 22.2857 35 26.8571 35C31.4286 35 34.8571 31.5714 37.7143 27C34.8571 22.4286 31.4286 19 26.8571 19ZM22.6286 27C22.6286 24.6646 24.5218 22.7714 26.8571 22.7714C29.1925 22.7714 31.0857 24.6646 31.0857 27C31.0857 29.3354 29.1925 31.2286 26.8571 31.2286C24.5218 31.2286 22.6286 29.3354 22.6286 27Z" fill="#F0F4F8"/>
<path fill-rule="evenodd" clip-rule="evenodd" d="M26.8571 29.8569C28.4351 29.8569 29.7143 28.5777 29.7143 26.9997C29.7143 26.9492 29.713 26.899 29.7104 26.8491C29.5432 26.9449 29.3494 26.9997 29.1429 26.9997C28.5117 26.9997 28 26.488 28 25.8569C28 25.3867 28.2839 24.9829 28.6895 24.8075C28.1935 24.3924 27.5545 24.1426 26.8571 24.1426C25.2792 24.1426 24 25.4218 24 26.9997C24 28.5777 25.2792 29.8569 26.8571 29.8569Z" fill="#F0F4F8"/>
</svg>
