<svg width="54" height="54" viewBox="0 0 54 54" fill="none" xmlns="http://www.w3.org/2000/svg">
<rect width="54" height="54" rx="27" fill="#212121"/>
<path fill-rule="evenodd" clip-rule="evenodd" d="M21.5076 18C19.0181 18 17 20.0181 17 22.5076V30.9924C17 33.4819 19.0181 35.5 21.5076 35.5H32.1136C34.6031 35.5 36.6212 33.4819 36.6212 30.9924V26.2197C36.6212 23.7302 34.6031 21.7121 32.1136 21.7121H29.5086C28.2242 21.7121 27.0188 21.0918 26.2722 20.0466C25.3731 18.7879 24.7579 18 23.5823 18H21.5076ZM26.8106 30.7273C26.3713 30.7273 26.0152 31.0834 26.0152 31.5227C26.0152 31.962 26.3713 32.3182 26.8106 32.3182H33.1742C33.6136 32.3182 33.9697 31.962 33.9697 31.5227C33.9697 31.0834 33.6136 30.7273 33.1742 30.7273H26.8106Z" fill="white"/>
<path d="M25.75 19.3374V23.0379H35.3065C34.4903 22.2189 33.3612 21.7121 32.1136 21.7121H29.5086C28.2242 21.7121 27.0188 21.0918 26.2722 20.0466C26.0887 19.7897 25.917 19.5524 25.75 19.3374Z" fill="white"/>
<path d="M26.9358 18.2652C27.1393 18.5222 27.3235 18.7807 27.4956 19.0221L27.5668 19.1219C28.0147 19.749 28.738 20.1212 29.5086 20.1212H32.1136C33.6618 20.1212 35.0753 20.6981 36.1507 21.6487C35.5559 19.6903 33.736 18.2652 31.5833 18.2652H26.9358Z" fill="white"/>
</svg>
