<svg width="21" height="31" viewBox="0 0 21 31" fill="none" xmlns="http://www.w3.org/2000/svg">
<g clip-path="url(#clip0_283_4169)">
<path d="M5.24895 31.0013C8.14637 31.0013 10.4979 28.6866 10.4979 25.8346V20.668H5.24895C2.35153 20.668 0 22.9826 0 25.8346C0 28.6866 2.35153 31.0013 5.24895 31.0013Z" fill="#212121"/>
<path d="M0 15.4987C0 12.6467 2.35153 10.332 5.24895 10.332H10.4979V20.6654H5.24895C2.35153 20.6654 0 18.3507 0 15.4987Z" fill="#212121"/>
<path d="M0 5.16667C0 2.31467 2.35153 0 5.24895 0H10.4979V10.3333H5.24895C2.35153 10.3333 0 8.01867 0 5.16667Z" fill="#212121"/>
<path d="M10.5 0H15.749C18.6464 0 20.9979 2.31467 20.9979 5.16667C20.9979 8.01867 18.6464 10.3333 15.749 10.3333H10.5V0Z" fill="#212121" fill-opacity="0.7"/>
<path d="M20.9979 15.4987C20.9979 18.3507 18.6464 20.6654 15.749 20.6654C12.8515 20.6654 10.5 18.3507 10.5 15.4987C10.5 12.6467 12.8515 10.332 15.749 10.332C18.6464 10.332 20.9979 12.6467 20.9979 15.4987Z" fill="#212121"/>
</g>
<defs>
<clipPath id="clip0_283_4169">
<rect width="21" height="31" fill="white"/>
</clipPath>
</defs>
</svg>
