<svg width="54" height="54" viewBox="0 0 54 54" fill="none" xmlns="http://www.w3.org/2000/svg">
<rect width="54" height="54" rx="27" fill="#212121"/>
<path fill-rule="evenodd" clip-rule="evenodd" d="M27.4784 22.6826H32.7123C33.0361 24.0044 33.2177 25.462 33.2177 27.0003C33.2177 28.5387 33.0361 29.9963 32.7123 31.3179H27.4784V22.6826ZM26.5218 22.6826H21.2879C20.964 24.0044 20.7825 25.462 20.7825 27.0003C20.7825 28.5387 20.964 29.9963 21.2879 31.3179H26.5218V22.6826ZM27.4784 38C29.5639 37.7028 31.4399 35.4828 32.4449 32.277H27.4784V38ZM26.5218 38C24.4361 37.7028 22.5603 35.4828 21.5553 32.277H26.5218V38ZM27.4784 16C29.5639 16.2974 31.4399 18.5175 32.4449 21.723H27.4784V16ZM26.5218 16C24.4361 16.2974 22.5603 18.5175 21.5553 21.723H26.5218V16ZM37.1259 31.3174C37.6887 29.9912 38 28.5321 38 26.9997C38 25.4675 37.6887 24.0083 37.1259 22.6821H33.695C34.0043 24.0219 34.1738 25.4778 34.1738 26.9997C34.1738 28.5219 34.0043 29.9778 33.695 31.3174H37.1259ZM36.6627 32.2769C35.3468 34.6962 33.1542 36.5667 30.5131 37.4592C31.7765 36.2705 32.8028 34.4607 33.4439 32.2769H36.6627ZM16.8739 31.3174C16.3113 29.9912 16 28.5321 16 26.9997C16 25.4675 16.3113 24.0083 16.8739 22.6821H20.305C19.9957 24.0219 19.826 25.4778 19.826 26.9997C19.826 28.5219 19.9957 29.9778 20.305 31.3174H16.8739ZM17.3371 32.2769C18.653 34.6962 20.8456 36.5667 23.4867 37.4592C22.2235 36.2705 21.197 34.4607 20.5561 32.2769H17.3371ZM36.6626 21.7228C35.3467 19.3034 33.1541 17.4329 30.513 16.5406C31.7765 17.7293 32.8028 19.5393 33.4438 21.7228H36.6626ZM17.3371 21.7228C18.653 19.3034 20.8456 17.4329 23.4867 16.5406C22.2235 17.7293 21.197 19.5393 20.5561 21.7228H17.3371Z" fill="white"/>
</svg>
