<svg width="9" height="8" viewBox="0 0 9 8" fill="none" xmlns="http://www.w3.org/2000/svg">
<path fill-rule="evenodd" clip-rule="evenodd" d="M5.98971 3.00299C5.81571 3.08516 5.67836 3.15121 5.64896 3.16692C4.2493 3.91528 2.86818 4.72729 1.54989 5.61139C1.18054 5.8591 1.08186 6.35973 1.32957 6.72908C1.57728 7.09843 2.07794 7.19711 2.44729 6.9494C3.72087 6.09511 5.05609 5.31092 6.40861 4.58753C6.51172 4.53235 7.42804 4.1646 7.81027 3.90199C8.15626 3.66395 8.27991 3.36509 8.30529 3.19391C8.34557 2.92204 8.24809 2.4967 7.78731 2.15152C7.18596 1.70081 5.57929 1.11639 5.31265 1.02013C4.82207 0.843713 4.30731 0.694276 3.80666 0.555721C2.85691 0.293109 1.89023 0.142068 0.916317 0.0071373C0.475678 -0.0540848 0.0688796 0.254028 0.00765736 0.694667C-0.0531621 1.1349 0.254975 1.54211 0.695212 1.60293C1.59864 1.7282 2.49601 1.86474 3.37689 2.10842C3.83888 2.2365 4.31457 2.37345 4.76729 2.53618C4.90303 2.58531 5.46368 2.77623 5.98971 3.00299Z" fill="#212121"/>
</svg>
