<svg width="78" height="46" viewBox="0 0 78 46" fill="none" xmlns="http://www.w3.org/2000/svg">
<path fill-rule="evenodd" clip-rule="evenodd" d="M56.2374 43.7617C63.2015 43.9282 70.3183 43.5953 76.977 45.9562C77.3739 46.0954 77.8105 45.8926 77.954 45.4991C78.0944 45.1056 77.8899 44.6728 77.493 44.5306C70.6785 42.1152 63.4 42.4179 56.2741 42.2484C55.8528 42.2363 55.5017 42.5692 55.4925 42.9869C55.4803 43.4046 55.8161 43.7496 56.2374 43.7617Z" fill="#212121"/>
<path fill-rule="evenodd" clip-rule="evenodd" d="M55.6159 33.7388C57.7866 31.7587 60.1558 30.2753 63.0196 29.5401C63.4287 29.4353 63.6729 29.0222 63.5691 28.6178C63.4623 28.2134 63.044 27.9704 62.638 28.0751C59.5238 28.8742 56.944 30.4729 54.5839 32.6246C54.2725 32.9073 54.2512 33.3865 54.5381 33.694C54.8221 34.0012 55.3075 34.0215 55.6159 33.7388Z" fill="#212121"/>
<path fill-rule="evenodd" clip-rule="evenodd" d="M49.5746 12.1197C50.5699 8.73731 52.53 6.09132 55.5342 4.18053C55.8884 3.95503 55.9922 3.4865 55.7632 3.13509C55.5373 2.78368 55.064 2.68137 54.7099 2.90686C51.385 5.02257 49.2113 7.95066 48.1091 11.6957C47.99 12.0964 48.2251 12.5171 48.6281 12.634C49.0342 12.7511 49.4586 12.5205 49.5746 12.1197Z" fill="#212121"/>
<path fill-rule="evenodd" clip-rule="evenodd" d="M15.273 7.52955C14.6807 8.22056 14.1495 8.96514 13.6976 9.75785C13.4961 10.1108 13.1419 10.8608 13.087 11.504C13.0259 12.1892 13.261 12.7674 13.8655 13.0719C14.6685 13.4756 15.3096 13.4336 15.8042 13.1893C16.2805 12.9547 16.653 12.4937 16.8881 11.8757C17.3369 10.6943 17.2697 8.88888 17.0346 7.85857C17.6666 7.21205 18.3596 6.62575 19.1015 6.10455C24.6276 2.22272 32.7336 3.65408 38.971 9.4582C41.154 11.4904 42.2042 15.7581 42.7507 20.3627C43.6025 27.5322 43.1171 35.5398 43.0499 37.8859C43.0346 38.4652 43.0896 38.809 43.1201 38.8777C43.2636 39.2155 43.517 39.3033 43.6941 39.3366C43.9506 39.382 44.1551 39.3336 44.32 39.2488C44.5428 39.1326 44.7261 38.928 44.8115 38.6123C44.8573 38.4379 44.8695 38.1952 44.8634 37.9364C44.8573 37.7569 44.8207 37.5608 44.8573 37.4321C45.0954 36.6083 45.3824 35.8037 45.6633 34.9935C46.6006 32.2697 47.8127 29.7172 49.1591 27.1678C53.4365 19.067 57.5734 10.5076 64.5863 4.33571C64.9008 4.05876 64.9313 3.57993 64.6504 3.26756C64.3726 2.9552 63.8902 2.92674 63.5727 3.204C56.4193 9.49785 52.1694 18.2046 47.8066 26.4659C46.6617 28.6346 45.6114 30.8063 44.7382 33.0779C44.8268 29.0595 44.7932 23.4972 44.0513 18.5757C43.3918 14.1987 42.137 10.3305 40.0151 8.35494C33.1823 1.99662 24.2704 0.617333 18.2192 4.86993C17.5719 5.32516 16.9552 5.82579 16.3813 6.3688C13.2152 0.701182 6.43737 -1.57042 0.447226 1.14035C0.062538 1.31378 -0.105378 1.76296 0.0686472 2.14282C0.245726 2.52268 0.697565 2.69037 1.08225 2.51693C6.4801 0.0743361 12.6016 2.2542 15.273 7.52955ZM15.7157 9.42702C15.4684 9.77328 15.2394 10.1323 15.0257 10.5033C14.9127 10.7025 14.7173 11.0854 14.6349 11.4601C14.6166 11.5479 14.6135 11.6853 14.6135 11.7489C14.8242 11.8518 14.989 11.9014 15.1234 11.8345C15.2913 11.7522 15.3768 11.5585 15.4592 11.3421C15.6668 10.7991 15.734 10.0793 15.7157 9.42702Z" fill="#212121"/>
</svg>
