<svg width="20" height="22" viewBox="0 0 20 22" fill="none" xmlns="http://www.w3.org/2000/svg">
<path fill-rule="evenodd" clip-rule="evenodd" d="M9.51947 1.52339C9.67181 1.49481 9.82813 1.49481 9.98047 1.52339C10.1282 1.55111 10.282 1.62044 10.8456 1.90225L18.4145 5.68671C18.785 5.87195 19.2355 5.72178 19.4208 5.3513C19.606 4.98081 19.4558 4.53031 19.0853 4.34507L11.5165 0.56061L11.4382 0.521411C10.9902 0.297028 10.6378 0.120545 10.2571 0.0491119C9.92193 -0.0137657 9.57802 -0.0137665 9.24288 0.0491098C8.86214 0.120541 8.50978 0.297023 8.06179 0.521405L7.98348 0.560603L0.414512 4.34506C0.0440272 4.53031 -0.106142 4.98081 0.079099 5.35129C0.26434 5.72178 0.714844 5.87195 1.08533 5.68671L8.6543 1.90225C9.21791 1.62044 9.37173 1.55111 9.51947 1.52339ZM12.5 21.2658L12.4959 21.2659C12.4722 21.2662 12.3664 21.2678 12.2647 21.2476C11.8878 21.1726 11.5932 20.878 11.5182 20.5012C11.498 20.3994 11.4996 20.2936 11.4999 20.2699L11.5 20.2658V16.0825C11.5 15.116 10.7165 14.3325 9.74999 14.3325C8.78349 14.3325 7.99999 15.116 7.99999 16.0825V20.2658L8.00004 20.2699C8.0004 20.2936 8.00197 20.3994 7.98174 20.5011C7.90678 20.878 7.61219 21.1726 7.23533 21.2475C7.13361 21.2678 7.02782 21.2662 7.00412 21.2658L7 21.2658L6.89897 21.2658C5.83369 21.2659 5.18459 21.266 4.62827 21.1553C2.34727 20.7016 0.564184 18.9185 0.110471 16.6376C-0.000187097 16.0812 -0.000123499 15.4321 -1.92503e-05 14.3669L-1.27534e-05 14.2658L-1.49587e-05 12.1958L-4.80393e-05 12.0715C-0.00042039 11.1448 -0.000677703 10.5044 0.195399 9.92107C0.36825 9.40681 0.650631 8.93617 1.02305 8.54165C1.44551 8.09412 2.01067 7.79299 2.82856 7.35721L2.93823 7.29876L7.89121 4.65719L7.97363 4.61318C8.44336 4.36222 8.81267 4.16491 9.21452 4.08513C9.56808 4.01494 9.93198 4.01494 10.2855 4.08513C10.6874 4.16491 11.0567 4.36222 11.5264 4.61318L11.6089 4.6572L16.5618 7.29876L16.6714 7.35721C17.4893 7.79299 18.0545 8.09412 18.4769 8.54165C18.8493 8.93617 19.1317 9.40681 19.3046 9.92107C19.5006 10.5044 19.5004 11.1448 19.5 12.0715L19.5 12.1958V14.2658L19.5 14.3668C19.5001 15.4321 19.5002 16.0813 19.3895 16.6376C18.9358 18.9186 17.1527 20.7016 14.8717 21.1553C14.3154 21.266 13.6663 21.2659 12.601 21.2658L12.5 21.2658Z" fill="white"/>
</svg>
