<svg width="18" height="18" viewBox="0 0 18 18" fill="none" xmlns="http://www.w3.org/2000/svg">
<path fill-rule="evenodd" clip-rule="evenodd" d="M9.04646 0.5C6.72558 0.5 6.43431 0.510148 5.52276 0.55163C4.613 0.59329 3.99201 0.73732 3.44864 0.948647C2.88658 1.16692 2.4098 1.45889 1.9348 1.93407C1.45944 2.40906 1.16746 2.88584 0.948474 3.44772C0.73661 3.99126 0.592401 4.61242 0.551453 5.52182C0.510682 6.43336 0.5 6.7248 0.5 9.04566C0.5 11.3665 0.510326 11.6569 0.551631 12.5684C0.593469 13.4782 0.737501 14.0992 0.948652 14.6425C1.1671 15.2046 1.45908 15.6814 1.93426 16.1564C2.40908 16.6317 2.88587 16.9244 3.44757 17.1427C3.99129 17.354 4.61246 17.498 5.52205 17.5397C6.4336 17.5812 6.72469 17.5913 9.04539 17.5913C11.3665 17.5913 11.6568 17.5812 12.5684 17.5397C13.4781 17.498 14.0998 17.354 14.6436 17.1427C15.2054 16.9244 15.6815 16.6317 16.1563 16.1564C16.6317 15.6814 16.9237 15.2046 17.1427 14.6427C17.3527 14.0992 17.497 13.478 17.5397 12.5686C17.5806 11.6571 17.5913 11.3665 17.5913 9.04566C17.5913 6.7248 17.5806 6.43353 17.5397 5.522C17.497 4.61224 17.3527 3.99126 17.1427 3.4479C16.9237 2.88584 16.6317 2.40906 16.1563 1.93407C15.681 1.45872 15.2056 1.16674 14.643 0.948647C14.0982 0.73732 13.4769 0.59329 12.5671 0.55163C11.6556 0.510148 11.3654 0.5 9.04379 0.5H9.04646ZM8.27799 2.04102C8.50552 2.04067 8.7594 2.04102 9.04462 2.04102C11.3263 2.04102 11.5968 2.04921 12.4978 2.09016C13.331 2.12826 13.7832 2.26748 14.0845 2.38445C14.4833 2.53934 14.7676 2.7245 15.0665 3.02359C15.3656 3.32269 15.5508 3.60755 15.706 4.00635C15.823 4.30722 15.9624 4.75943 16.0003 5.59263C16.0413 6.49349 16.0502 6.7641 16.0502 9.04472C16.0502 11.3253 16.0413 11.596 16.0003 12.4968C15.9622 13.33 15.823 13.7822 15.706 14.0831C15.5511 14.4819 15.3656 14.7659 15.0665 15.0648C14.7674 15.3639 14.4835 15.549 14.0845 15.7039C13.7836 15.8214 13.331 15.9603 12.4978 15.9984C11.5969 16.0393 11.3263 16.0482 9.04462 16.0482C6.76273 16.0482 6.49229 16.0393 5.59142 15.9984C4.75821 15.9599 4.306 15.8207 4.00459 15.7037C3.60578 15.5489 3.32093 15.3637 3.02182 15.0646C2.72272 14.7655 2.53757 14.4814 2.38232 14.0824C2.26535 13.7815 2.12595 13.3293 2.08802 12.4961C2.04708 11.5952 2.03889 11.3246 2.03889 9.04259C2.03889 6.76054 2.04708 6.49135 2.08802 5.5905C2.12612 4.7573 2.26535 4.30509 2.38232 4.00385C2.53721 3.60506 2.72272 3.3202 3.02182 3.0211C3.32093 2.722 3.60578 2.53685 4.00459 2.3816C4.30582 2.2641 4.75821 2.12523 5.59142 2.08696C6.37977 2.05135 6.68528 2.04067 8.27799 2.03889V2.04102ZM13.6114 3.45934C13.0453 3.45934 12.5859 3.91814 12.5859 4.48446C12.5859 5.05061 13.0453 5.50994 13.6114 5.50994C14.1776 5.50994 14.6369 5.05061 14.6369 4.48446C14.6369 3.91831 14.1776 3.45898 13.6114 3.45898V3.45934ZM9.04485 4.6582C6.62124 4.6582 4.65625 6.62317 4.65625 9.04675C4.65625 11.4703 6.62124 13.4344 9.04485 13.4344C11.4685 13.4344 13.4327 11.4703 13.4327 9.04675C13.4327 6.62317 11.4683 4.6582 9.04467 4.6582H9.04485ZM9.04389 6.19727C10.617 6.19727 11.8925 7.47253 11.8925 9.04582C11.8925 10.6189 10.617 11.8944 9.04389 11.8944C7.47059 11.8944 6.19531 10.6189 6.19531 9.04582C6.19531 7.47253 7.47059 6.19727 9.04389 6.19727V6.19727Z" fill="white"/>
</svg>
