<svg width="87" height="88" viewBox="0 0 87 88" fill="none" xmlns="http://www.w3.org/2000/svg">
<path d="M0.601562 0.855469H86.9153V87.1692H0.601562V0.855469Z" fill="#F5F5F5"/>
<path d="M79.8532 66.583C79.2209 62.6453 76.6532 59.3378 69.0474 56.2538C66.4053 55.0396 63.4597 54.1701 62.582 52.1679C62.2703 51.0026 62.229 50.3462 62.4262 49.6409C62.9922 47.3518 65.7247 46.6381 67.8904 47.2945C69.2853 47.762 70.6057 48.8369 71.402 50.5517C75.1267 48.1399 75.1191 48.1557 77.7199 46.4982C76.7677 45.022 76.2595 44.3408 75.6362 43.7092C73.396 41.207 70.3436 39.9184 65.462 40.017L62.9192 40.3459C60.4825 40.9616 58.1603 42.2406 56.7985 43.9553C52.7126 48.5915 53.8778 56.7054 58.8498 60.0446C63.7479 63.7209 70.9435 64.5573 71.8626 67.9951C72.7569 72.2037 68.7695 73.5662 64.8063 73.0821C61.8856 72.4747 60.2612 70.9902 58.505 68.2909C55.2727 70.1615 55.2727 70.1615 51.9493 72.0727C52.7374 73.7957 53.5655 74.5756 54.8865 76.0683C61.1389 82.4102 76.7849 82.0986 79.5912 72.4995C79.7049 72.1699 80.4606 69.9718 79.8532 66.583ZM47.5262 40.5251H39.4529L39.4198 61.3974C39.4198 65.8363 39.6494 69.9057 38.9275 71.1529C37.7464 73.6061 34.6857 73.3021 33.2909 72.8263C31.8712 72.1286 31.1493 71.1364 30.3129 69.734C30.0833 69.3313 29.911 69.0197 29.8531 68.9955L23.2891 73.0153C24.3805 75.2554 25.9884 77.1998 28.048 78.4629C31.1245 80.3094 35.2594 80.8754 39.5839 79.8826C42.3984 79.0628 44.8268 77.3645 46.0982 74.7797C47.9364 71.3908 47.542 67.289 47.5255 62.7522C47.5669 55.3505 47.5262 47.9502 47.5262 40.5251Z" fill="#212121"/>
</svg>
