<svg width="30" height="30" viewBox="0 0 30 30" fill="none" xmlns="http://www.w3.org/2000/svg">
<path d="M9.5 23.2002C9.5 23.2002 7.97243 23.8669 10.5886 24.0918C13.7584 24.3634 15.3783 24.3245 18.8705 23.8294C18.8705 23.8294 19.7905 24.2608 21.0729 24.6348C13.2415 27.1511 3.34966 24.4889 9.5 23.2002ZM8.5425 19.916C8.5425 19.916 6.82875 20.8675 9.44712 21.0708C12.8333 21.333 15.5068 21.3544 20.1353 20.6863C20.1353 20.6863 20.774 21.173 21.7798 21.4388C12.3132 23.5153 1.76921 21.6022 8.5425 19.916Z" fill="#212121"/>
<path d="M16.6052 14.3433C18.5359 16.01 16.0989 17.5085 16.0989 17.5085C16.0989 17.5085 20.9982 15.612 18.7487 13.2361C16.6469 11.0214 15.0357 9.92137 23.7589 6.12695C23.7589 6.12719 10.0659 8.69133 16.6052 14.3433Z" fill="#212121"/>
<path d="M26.9668 25.6307C26.9668 25.6307 28.0977 26.33 25.7209 26.8705C21.202 27.8973 6.90874 28.2068 2.93904 26.9116C1.51273 26.4459 4.18846 25.8001 5.03028 25.6638C5.90798 25.5213 6.40916 25.5473 6.40916 25.5473C4.82199 24.7092 -3.84931 27.1936 2.00526 27.9062C17.9702 29.8471 31.1073 27.0321 26.9668 25.6307ZM10.2359 16.5135C10.2359 16.5135 2.96628 17.8087 7.66179 18.2795C9.64472 18.4785 13.5958 18.4329 17.2787 18.2012C20.2877 18.0115 23.3073 17.6066 23.3073 17.6066C23.3073 17.6066 22.2473 17.9476 21.4795 18.3403C14.0957 19.797 -0.164812 19.1185 3.94108 17.6294C7.41216 16.3703 10.2359 16.5135 10.2359 16.5135ZM23.2772 21.9804C30.7824 19.0563 27.3119 16.246 24.8897 16.6246C24.2975 16.7171 24.0318 16.7976 24.0318 16.7976C24.0318 16.7976 24.2523 16.5383 24.6727 16.4268C29.4644 15.1638 33.1489 20.1527 23.1272 22.1287C23.1272 22.1283 23.2422 22.0501 23.2772 21.9804Z" fill="#212121"/>
<path d="M18.7466 0C18.7466 0 22.9022 3.11859 14.8042 7.91256C8.31 11.7594 13.3234 13.9522 14.8019 16.4586C11.0107 13.8935 8.22988 11.6351 10.0952 9.53338C12.8344 6.44892 20.4229 4.95283 18.7466 0Z" fill="#212121"/>
<path d="M10.9831 29.9067C18.1854 30.252 29.2485 29.7144 29.5103 27.1582C29.5103 27.1582 29.0069 28.1272 23.5574 28.8961C17.4093 29.7642 9.82496 29.663 5.32812 29.1061C5.32812 29.1064 6.24941 29.6784 10.9831 29.9067Z" fill="#212121"/>
</svg>
