<svg width="54" height="54" viewBox="0 0 54 54" fill="none" xmlns="http://www.w3.org/2000/svg">
<rect width="54" height="54" rx="27" fill="#212121"/>
<path fill-rule="evenodd" clip-rule="evenodd" d="M18 28C18 25.3766 20.1266 23.25 22.75 23.25H30.75C33.3734 23.25 35.5 25.3766 35.5 28V32C35.5 34.6234 33.3734 36.75 30.75 36.75H22.75C20.1266 36.75 18 34.6234 18 32V28ZM24.2197 30.5303L25.7197 32.0303C26.0126 32.3232 26.4874 32.3232 26.7803 32.0303L29.7803 29.0303C30.0732 28.7374 30.0732 28.2626 29.7803 27.9697C29.4874 27.6768 29.0126 27.6768 28.7197 27.9697L26.25 30.4393L25.2803 29.4697C24.9874 29.1768 24.5126 29.1768 24.2197 29.4697C23.9268 29.7626 23.9268 30.2374 24.2197 30.5303Z" fill="white"/>
<path d="M30.75 24V22C30.75 19.7909 28.9591 18 26.75 18V18C24.5409 18 22.75 19.7909 22.75 22L22.75 24" stroke="white" stroke-width="1.5"/>
</svg>
