<svg width="18" height="18" viewBox="0 0 18 18" fill="none" xmlns="http://www.w3.org/2000/svg">
<path fill-rule="evenodd" clip-rule="evenodd" d="M5.53682 3.6316C5.51642 2.70543 4.85411 2 3.77861 2C2.70312 2 2 2.70543 2 3.6316C2 4.53859 2.68234 5.26433 3.7378 5.26433H3.7579C4.85411 5.26433 5.53682 4.53859 5.53682 3.6316ZM5.33136 6.55469H2.1875V16.0007H5.33136V6.55469ZM13.0483 6.33203C15.1171 6.33203 16.6681 7.68239 16.6681 10.5838L16.6679 15.9998H13.5242V10.9462C13.5242 9.67686 13.0693 8.81069 11.9312 8.81069C11.0626 8.81069 10.5453 9.39461 10.3181 9.95861C10.235 10.1607 10.2145 10.4424 10.2145 10.7247V16.0001H7.07031C7.07031 16.0001 7.11175 7.44045 7.07031 6.55409H10.2145V7.89204C10.6318 7.24886 11.3791 6.33203 13.0483 6.33203Z" fill="white"/>
</svg>
