<svg width="22" height="18" viewBox="0 0 22 18" fill="none" xmlns="http://www.w3.org/2000/svg">
<path fill-rule="evenodd" clip-rule="evenodd" d="M0 5.75C0 2.57436 2.57436 0 5.75 0H15.75C18.9256 0 21.5 2.57436 21.5 5.75V11.75C21.5 14.9256 18.9256 17.5 15.75 17.5H5.75C2.57436 17.5 0 14.9256 0 11.75V5.75ZM5.2 5.15C4.86863 4.90147 4.39853 4.96863 4.15 5.3C3.90147 5.63137 3.96863 6.10147 4.3 6.35L9.1 9.95C10.0778 10.6833 11.4222 10.6833 12.4 9.95L17.2 6.35C17.5314 6.10147 17.5985 5.63137 17.35 5.3C17.1015 4.96863 16.6314 4.90147 16.3 5.15L11.5 8.75C11.0556 9.08333 10.4444 9.08333 10 8.75L5.2 5.15Z" fill="white"/>
</svg>
