<svg width="54" height="54" viewBox="0 0 54 54" fill="none" xmlns="http://www.w3.org/2000/svg">
<rect width="54" height="54" rx="27" fill="#212121"/>
<path fill-rule="evenodd" clip-rule="evenodd" d="M20.6741 18.7777C20 19.7866 20 21.1911 20 24V30C20 32.8089 20 34.2134 20.6741 35.2223C20.966 35.659 21.341 36.034 21.7777 36.3259C22.7866 37 24.1911 37 27 37C29.8089 37 31.2134 37 32.2223 36.3259C32.659 36.034 33.034 35.659 33.3259 35.2223C34 34.2134 34 32.8089 34 30V24C34 21.1911 34 19.7866 33.3259 18.7777C33.034 18.341 32.659 17.966 32.2223 17.6741C31.2134 17 29.8089 17 27 17C24.1911 17 22.7866 17 21.7777 17.6741C21.341 17.966 20.966 18.341 20.6741 18.7777ZM26.7 33.6C26.3134 33.6 26 33.9134 26 34.3C26 34.6866 26.3134 35 26.7 35H27.3C27.6866 35 28 34.6866 28 34.3C28 33.9134 27.6866 33.6 27.3 33.6H26.7Z" fill="white"/>
</svg>
