<svg width="54" height="54" viewBox="0 0 54 54" fill="none" xmlns="http://www.w3.org/2000/svg">
<rect width="54" height="54" rx="27" fill="#212121"/>
<path fill-rule="evenodd" clip-rule="evenodd" d="M16 21.75C16 18.5744 18.5744 16 21.75 16H31.75C34.9256 16 37.5 18.5744 37.5 21.75V31.75C37.5 34.9256 34.9256 37.5 31.75 37.5H21.75C18.5744 37.5 16 34.9256 16 31.75V21.75ZM21.7969 28.0498C22.4872 28.0498 23.0469 27.4902 23.0469 26.7998C23.0469 26.1094 22.4872 25.5498 21.7969 25.5498C21.1065 25.5498 20.5469 26.1094 20.5469 26.7998C20.5469 27.4902 21.1065 28.0498 21.7969 28.0498ZM28.0469 26.7998C28.0469 27.4902 27.4872 28.0498 26.7969 28.0498C26.1065 28.0498 25.5469 27.4902 25.5469 26.7998C25.5469 26.1094 26.1065 25.5498 26.7969 25.5498C27.4872 25.5498 28.0469 26.1094 28.0469 26.7998ZM31.7969 28.0498C32.4872 28.0498 33.0469 27.4902 33.0469 26.7998C33.0469 26.1094 32.4872 25.5498 31.7969 25.5498C31.1065 25.5498 30.5469 26.1094 30.5469 26.7998C30.5469 27.4902 31.1065 28.0498 31.7969 28.0498Z" fill="white"/>
</svg>
