<svg width="146" height="73" viewBox="0 0 146 73" fill="none" xmlns="http://www.w3.org/2000/svg">
<path d="M129.344 30.5234C129.017 30.5234 128.7 30.5908 128.419 30.7497L119.534 35.8809C118.959 36.212 118.609 36.8379 118.609 37.5033V47.7473C118.609 48.4125 118.959 49.0373 119.534 49.3695L121.854 50.7067C122.982 51.2625 123.398 51.2536 123.911 51.2536C125.58 51.2536 126.533 50.2408 126.533 48.4804V38.3741C126.533 38.2312 126.409 38.1289 126.269 38.1289H125.156C125.013 38.1289 124.892 38.2338 124.892 38.3741V48.4856C124.892 49.2659 124.079 50.0509 122.76 49.3913L120.348 47.9765C120.263 47.93 120.197 47.8454 120.197 47.7502V37.5062C120.197 37.4092 120.262 37.3101 120.348 37.2611L129.214 32.1483C129.298 32.1005 129.396 32.1005 129.478 32.1483L138.345 37.2611C138.43 37.3117 138.496 37.4061 138.496 37.5062V47.7502C138.496 47.848 138.447 47.9481 138.364 47.9953L129.479 53.1081C129.4 53.1535 129.295 53.1535 129.215 53.1081L126.932 51.75C126.864 51.7101 126.771 51.7133 126.706 51.75C126.076 52.1071 125.957 52.1485 125.366 52.3535C125.221 52.4041 124.999 52.4831 125.442 52.7311L128.423 54.4878C128.706 54.6519 129.022 54.733 129.347 54.733C129.676 54.733 129.988 54.6543 130.272 54.4878L139.157 49.375C139.732 49.0404 140.081 48.418 140.081 47.7528V37.5088C140.081 36.8434 139.732 36.2188 139.157 35.8864L130.272 30.7552C129.993 30.5963 129.674 30.5289 129.347 30.5289L129.344 30.5234ZM131.721 37.8434C129.191 37.8434 127.684 38.9202 127.684 40.7108C127.684 42.651 129.179 43.1869 131.608 43.4271C134.513 43.7116 134.739 44.1382 134.739 44.71C134.739 45.7019 133.949 46.1248 132.079 46.1248C129.731 46.1248 129.215 45.5386 129.042 44.3681C129.022 44.2428 128.925 44.1418 128.797 44.1418H127.643C127.574 44.1434 127.508 44.1717 127.458 44.2209C127.409 44.2701 127.381 44.3363 127.379 44.4059C127.379 45.9012 128.193 47.6694 132.077 47.6694C134.888 47.6694 136.51 46.5682 136.51 44.6322C136.51 42.7181 135.2 42.2008 132.473 41.8398C129.72 41.4727 129.455 41.297 129.455 40.6512C129.455 40.1185 129.677 39.4058 131.718 39.4058C133.541 39.4058 134.215 39.7991 134.492 41.0283C134.516 41.1436 134.617 41.238 134.737 41.238H135.89C135.961 41.238 136.03 41.1945 136.079 41.1436C136.127 41.0894 136.162 41.0283 136.155 40.9549C135.976 38.8379 134.565 37.8421 131.722 37.8421L131.721 37.8434Z" fill="#212121" fill-opacity="0.46"/>
<path d="M77.1091 17.0921C77.0098 17.0923 76.9123 17.1183 76.8261 17.1677C76.7404 17.2178 76.6693 17.2894 76.6197 17.3754C76.57 17.4615 76.5437 17.5589 76.5432 17.6582V32.0903C76.5432 32.2319 76.4771 32.3588 76.3544 32.4298C76.2943 32.4649 76.226 32.4833 76.1563 32.4833C76.0867 32.4833 76.0184 32.4649 75.9583 32.4298L73.6 31.0716C73.428 30.9721 73.2328 30.9197 73.0341 30.9197C72.8353 30.9197 72.6401 30.9721 72.4681 31.0716L63.0546 36.5047C62.7027 36.7076 62.4883 37.0983 62.4883 37.5044V48.3708C62.488 48.5697 62.5402 48.7651 62.6396 48.9373C62.7389 49.1095 62.882 49.2525 63.0543 49.3517L72.4681 54.785C72.64 54.8848 72.8353 54.9374 73.0341 54.9374C73.2329 54.9374 73.4281 54.8848 73.6 54.785L83.0138 49.3517C83.1861 49.2525 83.3292 49.1095 83.4286 48.9373C83.528 48.7651 83.5802 48.5697 83.5799 48.3708V21.2803C83.5799 20.8681 83.3549 20.4813 82.9952 20.2805L77.3922 17.1485C77.3041 17.0995 77.2066 17.0908 77.1091 17.0919V17.0921ZM16.5513 30.6563C16.3717 30.6636 16.2031 30.6948 16.0418 30.7884L6.62833 36.2215C6.45589 36.3206 6.31271 36.4635 6.21334 36.6358C6.11397 36.808 6.06193 37.0035 6.0625 37.2024L6.08165 51.7857C6.08165 51.9887 6.18653 52.1769 6.36482 52.276C6.53971 52.3809 6.75655 52.3809 6.93065 52.276L12.5147 49.0688C12.8687 48.859 13.0994 48.493 13.0994 48.0882V41.2775C13.0994 40.8711 13.3131 40.4988 13.6658 40.2969L16.0429 38.9198C16.2147 38.8199 16.41 38.7678 16.6087 38.7688C16.8075 38.7676 17.003 38.8197 17.1748 38.9198L19.5509 40.2961C19.903 40.498 20.1167 40.8708 20.1167 41.2767V48.0871C20.1167 48.4925 20.3527 48.8606 20.7014 49.0677L26.2855 52.275C26.4612 52.3799 26.6775 52.3799 26.8513 52.275C27.0244 52.1753 27.1345 51.9873 27.1345 51.7847L27.1534 37.2019C27.1545 37.0029 27.1027 36.8072 27.0032 36.6348C26.9038 36.4625 26.7603 36.3196 26.5875 36.221L17.174 30.7882C17.0149 30.6948 16.8455 30.6634 16.6646 30.656H16.5518L16.5513 30.6563ZM101.143 30.7884C100.945 30.7879 100.749 30.84 100.577 30.9395L91.1635 36.3728C90.8122 36.576 90.5972 36.9475 90.5972 37.3534V48.2198C90.5972 48.6283 90.8274 48.9985 91.1819 49.2004L100.52 54.5231C100.865 54.7197 101.286 54.7347 101.633 54.5414L107.293 51.3908C107.472 51.2912 107.594 51.105 107.594 50.9005C107.595 50.696 107.489 50.5119 107.311 50.4102L97.8404 44.9769C97.6632 44.8757 97.5389 44.6709 97.5389 44.4674V41.0696C97.5389 40.8666 97.6648 40.6805 97.8404 40.5793L100.783 38.8813C100.959 38.7801 101.174 38.7801 101.35 38.8813L104.294 40.5793C104.38 40.6288 104.452 40.7002 104.501 40.7863C104.551 40.8725 104.577 40.9702 104.577 41.0696V43.7485C104.577 43.8479 104.603 43.9456 104.652 44.0317C104.702 44.1178 104.774 44.1893 104.86 44.2388C105.036 44.3405 105.25 44.3411 105.426 44.2388L111.067 40.9568C111.417 40.7534 111.633 40.3808 111.633 39.9762V37.3542C111.633 37.1554 111.581 36.9601 111.481 36.7879C111.382 36.6158 111.239 36.4728 111.067 36.3733L101.71 30.94C101.538 30.8404 101.342 30.7883 101.144 30.789L101.143 30.7884ZM72.9962 38.9009C73.0489 38.9007 73.1008 38.9136 73.1472 38.9384L76.3731 40.8061C76.4606 40.8567 76.5241 40.9503 76.5241 41.0512V44.7865C76.5241 44.888 76.4612 44.9814 76.3731 45.0317L73.1472 46.8993C73.0594 46.9492 72.9521 46.9492 72.864 46.8993L69.6382 45.0317C69.5504 44.9811 69.4872 44.8875 69.4872 44.7865V41.0507C69.4872 40.9495 69.5506 40.8567 69.6382 40.8055L72.864 38.9382C72.9081 38.9127 72.9469 38.9007 72.9962 38.9007V38.9004V38.9009Z" fill="#212121"/>
<path d="M44.8348 30.7327C44.636 30.7323 44.4407 30.7844 44.2685 30.8837L34.8549 36.298C34.503 36.501 34.2891 36.8919 34.2891 37.2978V48.164C34.2885 48.3628 34.3406 48.5582 34.44 48.7304C34.5393 48.9026 34.6825 49.0455 34.8549 49.1446L44.2685 54.5778C44.4404 54.6776 44.6356 54.7301 44.8344 54.7301C45.0332 54.7301 45.2285 54.6776 45.4004 54.5778L54.814 49.1446C54.9863 49.0453 55.1294 48.9024 55.2288 48.7302C55.3281 48.5579 55.3803 48.3625 55.3801 48.1637V37.2975C55.3801 36.8911 55.1661 36.5005 54.8137 36.2978L45.4001 30.8835C45.2281 30.7837 45.0326 30.7316 44.8338 30.7324L44.8348 30.7327ZM101.128 40.4295C101.091 40.4295 101.049 40.4295 101.015 40.4478L99.2039 41.5045C99.1702 41.5232 99.1419 41.5505 99.122 41.5836C99.1022 41.6167 99.0913 41.6544 99.0906 41.693V43.7683C99.0906 43.8464 99.136 43.9177 99.2039 43.957L101.015 44.9945C101.046 45.0138 101.082 45.024 101.118 45.024C101.155 45.024 101.191 45.0138 101.222 44.9945L103.033 43.957C103.1 43.9185 103.146 43.8464 103.146 43.7683V41.693C103.146 41.6148 103.1 41.5435 103.033 41.5042L101.222 40.4476C101.188 40.4276 101.165 40.4292 101.128 40.4292L101.128 40.4295Z" fill="#212121" fill-opacity="0.46"/>
</svg>
