<svg width="92" height="83" viewBox="0 0 92 83" fill="none" xmlns="http://www.w3.org/2000/svg">
<path fill-rule="evenodd" clip-rule="evenodd" d="M19.5868 0.863281C20.2073 1.13254 20.8845 1.09089 21.5331 1.16916C26.4761 1.75793 30.4845 4.10297 33.9637 7.47118C36.8087 10.2226 39.2662 13.3086 41.8726 16.2669C44.0044 18.6902 46.2872 20.9426 49.0596 22.6701C51.9859 24.4903 55.1652 25.5063 58.6365 25.5925C58.7602 25.5961 58.881 25.6011 59.0046 25.6068C59.0161 25.6097 59.0212 25.6377 59.0636 25.7109C57.7716 26.5912 56.3674 27.2396 54.8367 27.5921C51.3711 28.3949 48.2421 27.7192 45.5013 25.4524C44.7341 24.8213 43.9986 24.1514 43.2149 23.5425C41.9854 22.5861 40.5834 22.0842 38.9995 22.2716C36.7778 22.533 35.567 24.188 36.084 26.3356C36.8928 29.6938 38.8507 32.3239 41.5886 34.4248C44.5407 36.6915 47.93 37.9251 51.6098 38.4356C55.2609 38.9382 58.8954 38.9353 62.4673 37.8777C62.701 37.8073 62.9282 37.7822 63.0432 38.0407C63.1532 38.2848 62.8836 38.3293 62.7599 38.4277C61.9201 39.0955 61.0832 39.7704 60.2147 40.4051C57.0749 42.6956 53.5446 44.0146 49.6491 44.2975C46.8271 44.4971 44.3667 43.5321 42.1817 41.8103C40.4626 40.4554 39.1231 38.753 37.7075 37.1173C36.5305 35.7545 35.365 34.386 34.1801 33.034C33.4467 32.1953 32.6602 31.407 31.7305 30.7708C30.2645 29.7692 28.6604 29.4295 26.9032 29.7749C24.5104 30.2459 23.204 32.1946 23.8504 34.5231C25.2452 39.5715 28.5094 42.7186 33.7897 43.7453C33.9385 43.7762 34.124 43.7231 34.2448 43.9442C31.5177 44.4914 28.8466 44.3535 26.2288 43.5098C20.9485 41.8074 16.6878 38.8399 14.093 33.8697C12.4724 30.765 11.7872 27.422 11.6189 23.9611C11.5118 21.736 11.5966 19.5008 11.2451 17.2936C10.8324 14.6822 10.1953 12.1412 8.6495 9.91459C6.90883 7.4044 4.51315 6.12203 1.39849 6.18378C1.03325 6.18952 0.665123 6.18378 0.289092 6.18378C0.286216 5.93463 0.497598 5.88652 0.626298 5.79102C3.21538 3.8811 6.21284 2.84357 9.27071 1.96041C10.9956 1.46067 12.765 1.16916 14.5538 0.98678C14.6833 0.97242 14.8486 1.03417 14.9277 0.863281H19.5868ZM10.8439 4.59122C11.5089 5.28051 12.2085 5.75799 13.1072 5.89226C14.2109 6.05238 15.3541 5.45786 15.7308 4.54598C15.9918 3.91198 15.9609 3.86746 15.2836 3.92059C14.922 3.94572 14.5538 3.96583 14.1886 4.0046C13.0878 4.12523 11.9842 4.26021 10.8439 4.59122ZM91.6065 43.3555C90.817 43.6664 90.0844 44.1015 89.2137 44.2278C87.1099 44.528 85.2111 44.1438 83.5962 42.7128C83.2986 42.4472 82.9923 42.1829 82.7227 41.8914C81.4055 40.4611 79.7712 39.6613 77.8192 39.4932C77.6646 39.4789 77.5129 39.4372 77.3389 39.4035C79.2348 37.7542 82.512 37.4318 84.9048 38.6352C85.8912 39.1314 86.7138 39.8242 87.4522 40.6148C88.6069 41.8519 89.9686 42.7494 91.6065 43.232V43.3555ZM60.0299 62.8453C59.802 62.6155 59.4705 62.6464 59.1901 62.5566C57.5695 62.0433 56.2049 61.168 55.0387 59.979C52.7954 57.6906 51.717 56.992 48.8015 55.8899C48.8827 55.7132 49.0509 55.7326 49.2084 55.7297C50.6378 55.691 52.0535 55.7886 53.4411 56.1196C56.0273 56.74 58.016 58.153 59.3505 60.3631C59.8782 61.2391 60.4937 62.0016 61.3924 62.5344C61.5182 62.6069 61.6304 62.6916 61.6419 62.8453H60.0299Z" fill="#212121"/>
<path fill-rule="evenodd" clip-rule="evenodd" d="M55.9313 55.0101C55.0606 54.7861 54.2489 54.5864 53.4429 54.3624C50.7999 53.6279 48.1404 53.7988 45.4722 54.1635C44.0961 54.3509 42.7257 54.5642 41.343 54.7071C37.1391 55.1479 33.235 54.1327 29.5811 52.0763C25.9387 50.0263 22.7061 47.4795 20.2515 44.0244C20.0669 43.7592 19.8871 43.4906 19.7122 43.2188C19.6554 43.1348 19.6109 43.0451 19.5469 42.9359C19.8438 42.8095 20.0149 43.0393 20.2033 43.1434C22.1554 44.2291 24.0679 45.3872 26.2026 46.1052C29.9686 47.3704 33.693 47.412 37.4059 45.8805C39.1918 45.1431 40.9979 45.0332 42.7674 45.9817C42.9306 46.0715 43.152 46.111 43.2304 46.3494C42.4524 46.5597 41.6774 46.7443 40.9196 46.9776C40.2538 47.1794 39.6894 47.5219 39.6326 48.3268C39.5851 48.9967 39.9532 49.4828 40.7959 49.849C42.5092 50.5986 44.3233 50.7896 46.1631 50.8176C48.2748 50.8477 50.3304 51.1428 52.2796 52.0203C53.3919 52.52 54.3747 53.2208 55.3188 53.9804C55.6193 54.2246 55.8415 54.5225 55.9313 55.0101ZM78.7477 27.2265C78.5738 26.8423 78.4753 26.6204 78.371 26.3993C76.7252 22.8509 73.9622 21.5132 70.3054 22.54C68.6287 23.011 66.9966 23.6816 65.2581 23.8827C56.9537 24.8534 49.7603 22.6376 44.1917 15.8423C44.0371 15.6542 43.6855 15.3792 43.843 15.2105C44.1068 14.9189 44.3146 15.3627 44.5116 15.5048C48.7716 18.6383 53.4789 20.108 58.7059 19.6844C61.0541 19.4905 63.3003 18.8206 65.5478 18.1278C67.5358 17.5167 69.5468 17.0866 71.6391 17.5304C76.186 18.4925 78.9749 22.209 78.7477 27.2265ZM58.0711 44.899C58.1501 44.8631 58.2005 44.8344 58.2565 44.8178C60.2985 44.1788 61.8824 42.8462 63.3398 41.3175C64.767 39.8169 66.1007 38.2236 67.648 36.8414C70.9402 33.9076 74.7149 33.0467 78.9246 34.0225C79.9743 34.2666 80.8458 34.78 81.6151 35.5088C80.7782 35.4413 80.0398 35.4226 79.3071 35.3206C77.821 35.111 76.6131 35.6265 75.6108 36.715C74.8048 37.5864 74.009 38.4672 73.2238 39.3573C70.35 42.6099 66.6824 44.209 62.5144 44.7676C61.2504 44.9356 59.9864 45.0648 58.7088 45.0282C58.5262 45.0253 58.3241 45.0928 58.0711 44.899ZM77.3349 31.9582C76.5822 32.1183 76.0177 31.8627 75.4533 31.7729C71.9425 31.2093 68.7099 31.7643 65.66 33.6943C61.0311 36.6195 55.9874 37.0992 50.7208 35.8175C50.0867 35.6631 49.4482 35.4413 48.7975 34.9286C49.5359 34.8862 50.1032 35.0514 50.6762 35.1332C53.3387 35.5203 55.7207 34.7965 57.9193 33.349C59.706 32.1743 61.5538 31.1088 63.585 30.4123C67.533 29.0639 71.4651 28.8614 75.3326 30.7182C75.9983 31.0355 76.6354 31.3974 77.3349 31.9582Z" fill="#212121"/>
<path fill-rule="evenodd" clip-rule="evenodd" d="M60.2148 15.8841C58.2009 17.1012 56.1669 17.3625 54.0495 17.211C48.0114 16.7788 43.2172 13.7215 39.0579 9.31861C38.9313 9.18362 38.7602 9.03499 38.8278 8.83897C38.909 8.60921 39.142 8.73199 39.3023 8.73199C43.3322 8.73773 47.0314 9.80614 50.1936 12.5691C50.8507 13.1413 51.5359 13.682 52.2211 14.2241C54.3055 15.8727 56.6285 16.4507 59.1895 15.9315C59.5268 15.8632 59.8727 15.8473 60.2148 15.8841Z" fill="#212121"/>
<path fill-rule="evenodd" clip-rule="evenodd" d="M38.2669 73.1899C37.8514 73.1899 37.4861 73.2653 37.1741 73.4168C36.8636 73.5697 36.5985 73.8009 36.4048 74.0874C36.2056 74.3789 36.0539 74.7322 35.9532 75.1443C35.8488 75.6063 35.7989 76.0788 35.8044 76.5524C35.8044 77.0406 35.8461 77.4922 35.9274 77.9044C36.0093 78.3165 36.1409 78.6755 36.3235 78.9785C36.5033 79.2844 36.7506 79.5199 37.0626 79.6858C37.374 79.8538 37.7615 79.9349 38.2224 79.9349C38.6466 79.9349 39.014 79.8595 39.326 79.708C39.636 79.5583 39.9012 79.3301 40.0953 79.046C40.2952 78.7574 40.4469 78.407 40.5418 77.9941C40.6375 77.582 40.6856 77.1131 40.6856 76.5868C40.6856 76.0957 40.6461 75.6441 40.5706 75.2312C40.5035 74.8525 40.3694 74.4888 40.1744 74.1571C39.9941 73.8586 39.7381 73.613 39.4324 73.4448C39.1233 73.2768 38.7364 73.1899 38.2677 73.1899H38.2669ZM50.0713 72.9565C49.7147 72.9565 49.4062 73.024 49.1417 73.1562C48.8845 73.2847 48.6598 73.4698 48.4845 73.6975C48.3105 73.9244 48.1753 74.1908 48.0833 74.4996C47.9886 74.8197 47.9338 75.1504 47.9201 75.484H52.1132C52.1355 74.6956 51.9759 74.0788 51.6387 73.63C51.3015 73.1813 50.7795 72.9565 50.0713 72.9565ZM76.2332 71.1644C76.5617 71.1644 76.8227 71.1701 77.0197 71.1816C77.216 71.1924 77.3706 71.2096 77.4828 71.2319C77.5957 71.2513 77.6769 71.2879 77.7272 71.336C77.784 71.388 77.8299 71.4507 77.8624 71.5205L79.634 74.8392L81.3955 71.5205C81.4176 71.4618 81.4519 71.4085 81.4962 71.364C81.5568 71.3107 81.6289 71.2722 81.7068 71.2513C81.8053 71.2233 81.9369 71.201 82.103 71.1866C82.2712 71.173 82.4984 71.1651 82.7882 71.1651C83.1168 71.1651 83.3778 71.173 83.5748 71.1866C83.771 71.201 83.912 71.2347 83.999 71.285C84.0831 71.3389 84.1255 71.4114 84.1226 71.504C84.1169 71.5966 84.0745 71.7172 83.9932 71.8659L81.5192 76.3729L84.2485 81.3401C84.3074 81.4665 84.3362 81.5699 84.3333 81.6517C84.3304 81.7329 84.2743 81.7975 84.1701 81.8506C84.0666 81.9037 83.9062 81.9375 83.6927 81.9576C83.477 81.9741 83.1894 81.9856 82.8335 81.9856C82.4992 81.9856 82.2295 81.9798 82.0246 81.9684C81.8635 81.9632 81.7034 81.9406 81.5472 81.9009C81.4531 81.879 81.3648 81.8372 81.2884 81.7781C81.2323 81.7282 81.189 81.6657 81.1618 81.5957L79.3227 78.0674L77.4828 81.5957C77.4567 81.6655 77.4143 81.728 77.3591 81.7781C77.29 81.8368 77.2084 81.8788 77.1204 81.9009C76.9729 81.9413 76.8211 81.9639 76.6682 81.9684C76.4776 81.9798 76.2245 81.9856 75.9103 81.9856C75.5846 81.9856 75.3229 81.9741 75.1295 81.9569C74.9383 81.9375 74.7981 81.9037 74.7082 81.8506C74.6183 81.7975 74.573 81.7329 74.568 81.6517C74.5651 81.5706 74.596 81.4665 74.6629 81.3401L77.4159 76.4518L74.8736 71.8659C74.8154 71.7612 74.7801 71.6455 74.77 71.5263C74.7643 71.4336 74.8117 71.3611 74.9074 71.308C75.0059 71.2577 75.1576 71.2204 75.3711 71.1981C75.5818 71.1759 75.8708 71.1644 76.2332 71.1644ZM71.3067 71.1644C71.582 71.1644 71.8099 71.1759 71.9868 71.1981C72.1666 71.2204 72.3096 71.2513 72.4161 71.2915C72.5261 71.3331 72.6016 71.3805 72.6461 71.4365C72.6893 71.4925 72.7108 71.5571 72.7108 71.6332V81.5397C72.7119 81.6098 72.6891 81.6782 72.6461 81.7336C72.5842 81.8008 72.5044 81.8491 72.4161 81.8729C72.3096 81.9095 72.1666 81.9375 71.9868 81.9576C71.8099 81.9741 71.582 81.9856 71.3067 81.9856C71.032 81.9856 70.807 81.9741 70.6272 81.9569C70.4814 81.9436 70.3373 81.9154 70.1973 81.8729C70.1099 81.8483 70.0312 81.7998 69.9701 81.7329C69.9251 81.6784 69.9011 81.6096 69.9025 81.539V71.634C69.9025 71.5578 69.9255 71.4932 69.9701 71.4372C70.0322 71.3702 70.1104 71.32 70.1973 71.2915C70.3073 71.252 70.4503 71.2211 70.6272 71.1988C70.807 71.1766 71.032 71.1651 71.3067 71.1651V71.1644ZM63.6257 70.9741C64.3023 70.9741 64.8753 71.0861 65.339 71.308C65.7822 71.5156 66.1685 71.8272 66.465 72.2163C66.7511 72.5975 66.9568 73.0463 67.0833 73.5568C67.2091 74.0702 67.2738 74.6841 67.2738 75.4057V81.5397C67.2739 81.6101 67.2501 81.6784 67.2063 81.7336C67.1456 81.7996 67.068 81.8478 66.9819 81.8729C66.8422 81.9168 66.698 81.9452 66.552 81.9576C66.3722 81.9741 66.1479 81.9856 65.8783 81.9856C65.6029 81.9856 65.375 81.9741 65.1931 81.9569C65.0471 81.9447 64.9029 81.9166 64.7631 81.8729C64.6775 81.8477 64.6006 81.7992 64.541 81.7329C64.4962 81.6783 64.4725 81.6095 64.4741 81.539V75.8738C64.4741 75.3913 64.4403 75.0122 64.367 74.7379C64.3073 74.4863 64.2036 74.2471 64.0607 74.0314C63.9311 73.837 63.7532 73.6794 63.5444 73.574C63.3131 73.4633 63.0589 73.4085 62.8024 73.4139C62.4458 73.4139 62.0863 73.5432 61.7211 73.8016C61.3566 74.0616 60.9769 74.4407 60.5836 74.9368V81.5397C60.5852 81.6102 60.5615 81.679 60.5168 81.7336C60.4553 81.8003 60.3764 81.8486 60.2889 81.8729C60.1824 81.9095 60.0394 81.9375 59.8596 81.9576C59.682 81.9741 59.4548 81.9856 59.1795 81.9856C58.9041 81.9856 58.6769 81.9741 58.5 81.9569C58.3541 81.9442 58.21 81.916 58.0701 81.8729C57.9636 81.837 57.8846 81.7889 57.8429 81.7329C57.7979 81.6784 57.7739 81.6096 57.7753 81.539V71.611C57.7728 71.5414 57.7924 71.4728 57.8314 71.415C57.868 71.359 57.9356 71.3144 58.0312 71.2778C58.129 71.2383 58.2527 71.2103 58.4051 71.1931C58.5561 71.1737 58.7502 71.1651 58.9803 71.1651C59.2161 71.1651 59.4124 71.1737 59.5699 71.1938C59.7273 71.2103 59.8452 71.2383 59.9322 71.2778C60.0053 71.3046 60.0688 71.3523 60.1149 71.415C60.1538 71.4728 60.1734 71.5414 60.171 71.611V72.7555C60.7217 72.1638 61.2803 71.718 61.8476 71.42C62.395 71.1286 63.0055 70.9758 63.6257 70.9748V70.9741ZM50.1389 70.9741C50.9729 70.9741 51.6833 71.0976 52.2736 71.341C52.8631 71.588 53.3492 71.9276 53.7281 72.3592C54.114 72.8081 54.3993 73.3342 54.565 73.9022C54.7419 74.4967 54.8317 75.1415 54.8317 75.8408V76.286C54.8317 76.6256 54.7562 76.8776 54.6045 77.0399C54.45 77.2058 54.2422 77.2876 53.9725 77.2876H47.9201C47.9201 77.7112 47.9704 78.0954 48.0718 78.4372C48.1725 78.7854 48.3306 79.0762 48.5521 79.3182C48.7843 79.5689 49.0746 79.7588 49.3976 79.871C49.7427 79.9967 50.1583 80.0584 50.6415 80.0584C51.1304 80.0584 51.5625 80.0225 51.9335 79.9522C52.3074 79.8818 52.6273 79.8035 52.8969 79.7188C53.1694 79.6327 53.3938 79.5565 53.5735 79.4862C53.7504 79.4137 53.897 79.3799 54.0063 79.3799C54.0739 79.3799 54.13 79.3943 54.1746 79.4187C54.2261 79.4526 54.2656 79.5018 54.2875 79.5594C54.3155 79.624 54.3349 79.7188 54.3486 79.8423C54.3572 79.9629 54.363 80.1173 54.363 80.3018C54.363 80.4677 54.3601 80.6056 54.3515 80.7204C54.3479 80.8193 54.3369 80.9177 54.3184 81.0148C54.3066 81.0869 54.2849 81.157 54.2537 81.2231C54.2213 81.281 54.1817 81.3345 54.1358 81.3825C54.0876 81.4356 53.956 81.506 53.7396 81.5957C53.5239 81.6855 53.2478 81.7723 52.9135 81.8563C52.5799 81.9404 52.1974 82.0165 51.7652 82.0804C51.3353 82.1421 50.8744 82.1737 50.3833 82.1737C49.499 82.1737 48.7261 82.061 48.061 81.8398C47.3952 81.6172 46.8387 81.2783 46.393 80.8274C45.9486 80.3729 45.6143 79.8035 45.395 79.1135C45.1764 78.4235 45.0664 77.6129 45.0664 76.6845C45.0664 75.8035 45.1815 75.0072 45.4115 74.2978C45.6423 73.5877 45.9767 72.9874 46.4145 72.4941C46.855 72.0004 47.4027 71.6138 48.0157 71.364C48.6448 71.1055 49.353 70.9741 50.1389 70.9741ZM38.3683 70.9741C39.2584 70.9741 40.0306 71.0947 40.6856 71.336C41.3399 71.5772 41.882 71.9334 42.3084 72.3986C42.7355 72.8668 43.0533 73.4419 43.261 74.1262C43.4688 74.8083 43.5724 75.5909 43.5724 76.4741C43.5724 77.3214 43.4631 78.0925 43.238 78.7883C43.0166 79.4862 42.6794 80.0893 42.2243 80.5941C41.772 81.0967 41.2019 81.4859 40.5203 81.7609C39.8343 82.0359 39.037 82.173 38.121 82.173C37.2395 82.173 36.4695 82.0524 35.8152 81.8061C35.1609 81.562 34.6188 81.2058 34.1888 80.737C33.7567 80.2717 33.4368 79.6937 33.2283 79.0123C33.0205 78.3302 32.9169 77.5511 32.9169 76.6759C32.9169 75.8286 33.0291 75.0546 33.257 74.3538C33.4842 73.6523 33.8243 73.052 34.2766 72.5501C34.731 72.0475 35.2954 71.6612 35.9784 71.3862C36.6578 71.1112 37.4523 70.9741 38.3683 70.9741ZM12.361 69.7736V74.6597H13.6782C14.1449 74.6597 14.5374 74.5979 14.8523 74.4716C15.1694 74.3452 15.4275 74.1685 15.6274 73.9417C15.834 73.7045 15.9899 73.4277 16.0854 73.1281C16.1916 72.7954 16.2438 72.4478 16.24 72.0985C16.24 71.5937 16.1523 71.1787 15.9725 70.8535C15.7957 70.5253 15.5771 70.2841 15.3154 70.1297C15.0648 69.9768 14.7861 69.8757 14.4957 69.8325C14.2026 69.7928 13.9071 69.7731 13.6114 69.7736H12.361ZM10.4234 67.5125H13.8213C14.1643 67.5125 14.49 67.5269 14.7963 67.552C15.1054 67.5772 15.4757 67.6332 15.9057 67.7172C16.3629 67.8129 16.8044 67.9724 17.2171 68.1911C17.6448 68.4114 18.0284 68.7084 18.3488 69.0671C18.6654 69.4274 18.9078 69.8466 19.062 70.3006C19.2252 70.7716 19.3065 71.3022 19.3065 71.8881C19.3065 72.6959 19.1799 73.4139 18.9276 74.0364C18.6876 74.6407 18.3097 75.1806 17.8239 75.6132C17.3408 76.039 16.7483 76.3621 16.0459 76.5861C15.3434 76.808 14.518 76.92 13.5653 76.92H12.3618V81.5167C12.3633 81.5901 12.3372 81.6614 12.2884 81.7163C12.241 81.7781 12.1626 81.8255 12.0497 81.8621C11.9376 81.898 11.7887 81.9296 11.6039 81.9518C11.3668 81.977 11.1284 81.9883 10.89 81.9856C10.6537 81.9877 10.4175 81.9764 10.1825 81.9518C10.029 81.9362 9.87736 81.9062 9.72954 81.8621C9.62097 81.8255 9.5426 81.7781 9.4973 81.7163C9.45257 81.6595 9.42871 81.589 9.42972 81.5167V68.5587C9.42972 68.2112 9.52247 67.9477 9.70221 67.7739C9.88771 67.5994 10.1264 67.5125 10.4241 67.5125H10.4234ZM71.3182 66.8003C71.9444 66.8003 72.3657 66.9073 72.5908 67.1176C72.8122 67.3302 72.9244 67.7064 72.9244 68.2478C72.9244 68.8114 72.8093 69.2013 72.5793 69.4174C72.3492 69.6307 71.9192 69.7398 71.2959 69.7398C70.6632 69.7398 70.2397 69.6357 70.0204 69.4282C69.8018 69.2207 69.6918 68.8452 69.6918 68.3038C69.6918 67.7402 69.8047 67.3474 70.0319 67.1284C70.2591 66.9101 70.6862 66.8003 71.3189 66.8003H71.3182ZM22.795 66.4219C23.0704 66.4219 23.2976 66.4334 23.4745 66.4556C23.6542 66.4779 23.798 66.5088 23.9044 66.5511C23.9929 66.5777 24.0718 66.6293 24.1316 66.6997C24.176 66.7573 24.1998 66.8281 24.1992 66.9008V72.3872C24.6824 71.9133 25.177 71.56 25.6767 71.3245C26.167 71.0941 26.7022 70.9744 27.2441 70.9741C27.92 70.9741 28.4908 71.0861 28.9539 71.308C29.3988 71.5157 29.7857 71.8296 30.0805 72.222C30.3667 72.6061 30.5716 73.0578 30.6981 73.574C30.8247 74.0903 30.8894 74.7157 30.8894 75.4502V81.539C30.8908 81.6096 30.8668 81.6784 30.8218 81.7329C30.7611 81.7992 30.6832 81.8477 30.5968 81.8729C30.4582 81.9168 30.3152 81.9452 30.1704 81.9576C29.9878 81.9741 29.7627 81.9856 29.496 81.9856C29.2206 81.9856 28.9905 81.9741 28.8108 81.9569C28.6648 81.945 28.5206 81.9169 28.3808 81.8729C28.2946 81.8476 28.2171 81.7991 28.1565 81.7329C28.1115 81.6784 28.0876 81.6096 28.0889 81.539V75.8738C28.0889 75.3913 28.0551 75.0122 27.9854 74.7379C27.9232 74.4871 27.8197 74.2483 27.6791 74.0314C27.5475 73.8373 27.3686 73.6799 27.1593 73.574C26.9283 73.4629 26.6743 73.408 26.418 73.4139C26.0614 73.4139 25.7019 73.5432 25.3366 73.8016C24.9714 74.0616 24.5954 74.4407 24.1992 74.9368V81.5397C24.2006 81.6103 24.1766 81.6791 24.1316 81.7336C24.0708 81.8008 23.992 81.8492 23.9044 81.8729C23.7973 81.9095 23.6542 81.9375 23.4745 81.9576C23.2485 81.9773 23.0218 81.9867 22.795 81.9856C22.5196 81.9856 22.2946 81.9741 22.1148 81.9569C21.9693 81.9435 21.8255 81.9154 21.6856 81.8729C21.598 81.8484 21.5191 81.7999 21.4577 81.7329C21.413 81.6783 21.3893 81.6095 21.3908 81.539V66.9022C21.3908 66.8261 21.4124 66.7586 21.4577 66.7005C21.5182 66.6306 21.5972 66.579 21.6856 66.5518C21.8244 66.5032 21.9685 66.4711 22.1148 66.4563C22.2946 66.4341 22.5196 66.4226 22.795 66.4226V66.4219Z" fill="#212121"/>
</svg>
