<svg width="27" height="25" viewBox="0 0 27 25" fill="none" xmlns="http://www.w3.org/2000/svg">
<mask id="path-1-outside-1_283_2600" maskUnits="userSpaceOnUse" x="0" y="0" width="27" height="25" fill="black">
<rect fill="white" width="27" height="25"/>
<path d="M1.228 12.6904C1.12667 12.6144 1.057 12.5321 1.019 12.4434C0.993667 12.3421 0.993667 12.2471 1.019 12.1584C1.057 12.0698 1.12033 12.0001 1.209 11.9494C1.29767 11.8988 1.40533 11.8798 1.532 11.8924C1.78533 11.9938 2.007 12.1521 2.197 12.3674C2.387 12.5701 2.558 12.7791 2.71 12.9944C3.02667 13.4124 3.29267 13.8114 3.508 14.1914C3.736 14.5714 3.93233 14.9451 4.097 15.3124C4.23633 14.7551 4.39467 14.2104 4.572 13.6784C4.762 13.1464 4.99 12.6144 5.256 12.0824C5.332 11.9178 5.47767 11.6644 5.693 11.3224C5.921 10.9678 6.17433 10.6321 6.453 10.3154C6.74433 9.99876 7.03567 9.75176 7.327 9.57443C7.631 9.38443 7.90333 9.3781 8.144 9.55543C8.258 9.63143 8.372 9.70743 8.486 9.78343C8.6 9.85943 8.70133 9.95443 8.79 10.0684C9.00533 10.3344 9.18267 10.6954 9.322 11.1514C9.46133 11.5948 9.55 12.0634 9.588 12.5574C9.63867 13.0388 9.626 13.5074 9.55 13.9634C9.48667 14.4194 9.34733 14.7994 9.132 15.1034L8.372 16.1674C8.24533 16.3321 8.05533 16.4904 7.802 16.6424C7.56133 16.7944 7.29533 16.9148 7.004 17.0034C6.72533 17.0921 6.44033 17.1364 6.149 17.1364C5.87033 17.1364 5.62967 17.0668 5.427 16.9274C5.351 16.8261 5.313 16.7248 5.313 16.6234C5.313 16.5094 5.33833 16.4208 5.389 16.3574C5.45233 16.2814 5.53467 16.2371 5.636 16.2244C5.73733 16.1991 5.845 16.2118 5.959 16.2624C6.04767 16.3258 6.11733 16.3511 6.168 16.3384C6.23133 16.3131 6.37067 16.2751 6.586 16.2244C6.776 16.1231 6.97233 16.0281 7.175 15.9394C7.37767 15.8381 7.56767 15.7178 7.745 15.5784C8.07433 15.2998 8.32767 14.9261 8.505 14.4574C8.695 13.9761 8.79633 13.4821 8.809 12.9754C8.82167 12.4561 8.74567 11.9621 8.581 11.4934C8.41633 11.0121 8.15667 10.6384 7.802 10.3724C7.612 10.4104 7.43467 10.5054 7.27 10.6574C7.118 10.7968 6.97233 10.9614 6.833 11.1514C6.70633 11.3288 6.57967 11.5188 6.453 11.7214C6.339 11.9114 6.23767 12.0888 6.149 12.2534C5.71833 12.9754 5.38267 13.7354 5.142 14.5334C4.90133 15.3188 4.71767 16.1294 4.591 16.9654C4.71767 17.6114 4.77467 18.2954 4.762 19.0174C4.74933 19.7394 4.71133 20.5754 4.648 21.5254C4.62267 21.9561 4.61633 22.3994 4.629 22.8554C4.64167 23.3114 4.59733 23.7548 4.496 24.1854C4.33133 24.4894 4.097 24.5464 3.793 24.3564C3.65367 24.1918 3.55867 23.9701 3.508 23.6914C3.45733 23.4254 3.42567 23.1468 3.413 22.8554C3.40033 22.5641 3.40033 22.2791 3.413 22.0004C3.43833 21.7218 3.451 21.4938 3.451 21.3164C3.46367 20.5944 3.489 19.8788 3.527 19.1694C3.57767 18.4601 3.65367 17.7571 3.755 17.0604C3.641 16.4904 3.451 15.9331 3.185 15.3884C2.919 14.8311 2.54533 14.2231 2.064 13.5644C1.96267 13.4124 1.84233 13.2478 1.703 13.0704C1.56367 12.8931 1.40533 12.7664 1.228 12.6904Z"/>
<path d="M14.7479 11.2274C14.8365 11.2274 14.9125 11.2338 14.9759 11.2464C15.0519 11.2464 15.1342 11.2591 15.2229 11.2844C15.3115 10.2584 15.4065 9.33376 15.5079 8.51043C15.6219 7.67443 15.7105 7.0411 15.7739 6.61043C15.9005 5.77443 16.0525 5.00809 16.2299 4.31143C16.4199 3.60209 16.7429 2.91809 17.1989 2.25943C17.3002 2.14543 17.3952 2.0821 17.4839 2.06943C17.5852 2.05676 17.6865 2.07576 17.7879 2.12643C17.9145 2.21509 18.0222 2.37343 18.1109 2.60143C18.2122 2.81676 18.2882 3.07643 18.3389 3.38043C18.4022 3.68443 18.4529 4.00743 18.4909 4.34943C18.5289 4.69143 18.5605 5.02076 18.5859 5.33743C18.6112 5.65409 18.6239 5.93909 18.6239 6.19243C18.6365 6.44576 18.6492 6.62943 18.6619 6.74343C18.6745 7.5161 18.6365 8.2951 18.5479 9.08043C18.4719 9.8531 18.3262 10.6131 18.1109 11.3604C17.8955 12.0951 17.6042 12.7918 17.2369 13.4504C16.8822 14.1091 16.4389 14.6981 15.9069 15.2174C15.9069 15.9268 15.9259 16.5601 15.9639 17.1174C16.0019 17.6748 16.0652 18.1118 16.1539 18.4284C16.1919 18.5804 16.2235 18.7578 16.2489 18.9604C16.2869 19.1758 16.3312 19.3911 16.3819 19.6064C16.4325 19.8218 16.4959 20.0308 16.5719 20.2334C16.6479 20.4488 16.7429 20.6324 16.8569 20.7844C17.0342 20.7211 17.1862 20.7591 17.3129 20.8984C17.4522 21.0504 17.4712 21.2531 17.3699 21.5064L17.2369 21.6964C17.1355 21.7851 17.0342 21.8231 16.9329 21.8104C16.8442 21.8104 16.7302 21.7851 16.5909 21.7344C16.3122 21.4938 16.0715 21.1708 15.8689 20.7654C15.6789 20.3728 15.5205 19.9231 15.3939 19.4164C15.2799 18.9224 15.1912 18.3778 15.1279 17.7824C15.0645 17.1871 15.0202 16.5728 14.9949 15.9394L14.6149 16.2054C14.4122 16.3321 14.1842 16.4588 13.9309 16.5854C13.6902 16.6994 13.4369 16.8071 13.1709 16.9084C12.9175 16.9971 12.6515 17.0668 12.3729 17.1174C12.1069 17.1681 11.8535 17.1871 11.6129 17.1744C11.0809 17.1238 10.7009 16.9464 10.4729 16.6424C10.2449 16.3384 10.1182 15.9838 10.0929 15.5784C10.0675 15.1604 10.1182 14.7361 10.2449 14.3054C10.3715 13.8621 10.5235 13.4884 10.7009 13.1844C10.9415 12.8044 11.2139 12.4941 11.5179 12.2534C11.8219 12.0001 12.1512 11.8038 12.5059 11.6644C12.8605 11.5251 13.2279 11.4238 13.6079 11.3604C13.9879 11.2971 14.3679 11.2528 14.7479 11.2274ZM14.9949 14.9514C14.9949 14.4701 15.0075 13.9951 15.0329 13.5264C15.0709 13.0578 15.1025 12.5954 15.1279 12.1394C15.1025 12.1141 15.0582 12.1078 14.9949 12.1204C14.9315 12.1331 14.8492 12.1394 14.7479 12.1394C14.4059 12.1521 14.0829 12.1838 13.7789 12.2344C13.4749 12.2724 13.1835 12.3484 12.9049 12.4624C12.6262 12.5764 12.3665 12.7348 12.1259 12.9374C11.8852 13.1274 11.6572 13.3744 11.4419 13.6784C11.3279 13.8304 11.2139 14.0458 11.0999 14.3244C10.9985 14.6031 10.9352 14.8818 10.9099 15.1604C10.8972 15.4264 10.9415 15.6671 11.0429 15.8824C11.1569 16.0851 11.3722 16.1928 11.6889 16.2054C12.3602 16.2561 12.9682 16.1674 13.5129 15.9394C14.0702 15.7114 14.5642 15.3821 14.9949 14.9514ZM15.9829 12.5384L15.9069 13.9064C16.2489 13.4124 16.5402 12.8804 16.7809 12.3104C17.0342 11.7278 17.2369 11.1388 17.3889 10.5434C17.5409 9.93543 17.6485 9.33376 17.7119 8.73843C17.7752 8.1431 17.8005 7.58576 17.7879 7.06643C17.7879 7.02843 17.7815 6.88909 17.7689 6.64843C17.7562 6.3951 17.7372 6.09743 17.7119 5.75543C17.6992 5.40076 17.6739 5.03343 17.6359 4.65343C17.5979 4.26076 17.5535 3.91876 17.5029 3.62743C17.3002 4.10876 17.1165 4.6661 16.9519 5.29943C16.7872 5.93276 16.6415 6.61676 16.5149 7.35143C16.4009 8.0861 16.2932 8.85243 16.1919 9.65043C16.1032 10.4358 16.0335 11.2211 15.9829 12.0064L16.0779 12.2724L15.9829 12.5384Z"/>
<path d="M18.7665 8.52943C18.7285 8.3901 18.7222 8.26976 18.7475 8.16843C18.7855 8.0671 18.8362 7.9911 18.8995 7.94043C18.9755 7.88976 19.0579 7.87076 19.1465 7.88343C19.2479 7.88343 19.3365 7.9151 19.4125 7.97843C19.6659 7.97843 19.9255 7.96576 20.1915 7.94043C20.4702 7.90243 20.7425 7.8581 21.0085 7.80743C21.1099 6.8701 21.2112 6.05309 21.3125 5.35643C21.4139 4.64709 21.5089 4.1341 21.5975 3.81743C21.6989 3.46276 21.8762 3.12076 22.1295 2.79143C22.3829 2.46209 22.6679 2.17076 22.9845 1.91743C23.3012 1.65143 23.6369 1.43609 23.9915 1.27143C24.3589 1.10676 24.7072 1.0181 25.0365 1.00543C25.3659 0.980095 25.6635 1.04343 25.9295 1.19543C26.1955 1.34743 26.3982 1.60076 26.5375 1.95543C26.5755 2.09476 26.5692 2.2151 26.5185 2.31643C26.4679 2.4051 26.3982 2.46843 26.3095 2.50643C26.2209 2.54443 26.1259 2.55076 26.0245 2.52543C25.9232 2.5001 25.8345 2.43043 25.7585 2.31643C25.6952 2.16443 25.5749 2.0821 25.3975 2.06943C25.2329 2.05676 25.0809 2.05043 24.9415 2.05043C24.6755 2.05043 24.4285 2.06943 24.2005 2.10743C23.9725 2.13276 23.7572 2.2151 23.5545 2.35443C23.3519 2.49376 23.1555 2.70276 22.9655 2.98143C22.7882 3.2601 22.6045 3.64643 22.4145 4.14043C22.1992 4.71043 22.0409 5.28676 21.9395 5.86943C21.8382 6.43943 21.7559 7.0221 21.6925 7.61743C22.4019 7.46543 23.1112 7.28809 23.8205 7.08543C24.5299 6.8701 25.2519 6.73076 25.9865 6.66743C26.1385 6.69276 26.2462 6.74976 26.3095 6.83843C26.3855 6.9271 26.4235 7.0221 26.4235 7.12343C26.4235 7.22476 26.3855 7.31976 26.3095 7.40843C26.2462 7.4971 26.1385 7.5541 25.9865 7.57943C25.1632 7.64276 24.3969 7.77576 23.6875 7.97843C22.9909 8.16843 22.3069 8.3521 21.6355 8.52943C21.5975 9.36543 21.5849 10.2078 21.5975 11.0564C21.6229 11.9051 21.6355 12.7411 21.6355 13.5644C21.6355 13.7671 21.6165 14.0394 21.5785 14.3814C21.5532 14.7234 21.5342 15.0844 21.5215 15.4644C21.5089 15.8444 21.5152 16.2118 21.5405 16.5664C21.5785 16.9211 21.6545 17.2188 21.7685 17.4594C21.9205 17.5481 22.0029 17.6811 22.0155 17.8584C22.0409 18.0358 21.9332 18.1751 21.6925 18.2764H21.5975C21.4075 18.3144 21.2365 18.2384 21.0845 18.0484C20.9199 17.7698 20.7995 17.3011 20.7235 16.6424C20.6602 15.9711 20.6285 15.2048 20.6285 14.3434C20.6285 13.4694 20.6539 12.5448 20.7045 11.5694C20.7552 10.5814 20.8249 9.63143 20.9135 8.71943C20.6095 8.78276 20.3119 8.8271 20.0205 8.85243C19.7419 8.87776 19.4505 8.89043 19.1465 8.89043C19.0579 8.83976 18.9882 8.8081 18.9375 8.79543C18.8995 8.7701 18.8552 8.7131 18.8045 8.62443C18.8045 8.61176 18.7982 8.5991 18.7855 8.58643C18.7855 8.57376 18.7855 8.5611 18.7855 8.54843L18.7665 8.52943Z"/>
</mask>
<path d="M1.228 12.6904C1.12667 12.6144 1.057 12.5321 1.019 12.4434C0.993667 12.3421 0.993667 12.2471 1.019 12.1584C1.057 12.0698 1.12033 12.0001 1.209 11.9494C1.29767 11.8988 1.40533 11.8798 1.532 11.8924C1.78533 11.9938 2.007 12.1521 2.197 12.3674C2.387 12.5701 2.558 12.7791 2.71 12.9944C3.02667 13.4124 3.29267 13.8114 3.508 14.1914C3.736 14.5714 3.93233 14.9451 4.097 15.3124C4.23633 14.7551 4.39467 14.2104 4.572 13.6784C4.762 13.1464 4.99 12.6144 5.256 12.0824C5.332 11.9178 5.47767 11.6644 5.693 11.3224C5.921 10.9678 6.17433 10.6321 6.453 10.3154C6.74433 9.99876 7.03567 9.75176 7.327 9.57443C7.631 9.38443 7.90333 9.3781 8.144 9.55543C8.258 9.63143 8.372 9.70743 8.486 9.78343C8.6 9.85943 8.70133 9.95443 8.79 10.0684C9.00533 10.3344 9.18267 10.6954 9.322 11.1514C9.46133 11.5948 9.55 12.0634 9.588 12.5574C9.63867 13.0388 9.626 13.5074 9.55 13.9634C9.48667 14.4194 9.34733 14.7994 9.132 15.1034L8.372 16.1674C8.24533 16.3321 8.05533 16.4904 7.802 16.6424C7.56133 16.7944 7.29533 16.9148 7.004 17.0034C6.72533 17.0921 6.44033 17.1364 6.149 17.1364C5.87033 17.1364 5.62967 17.0668 5.427 16.9274C5.351 16.8261 5.313 16.7248 5.313 16.6234C5.313 16.5094 5.33833 16.4208 5.389 16.3574C5.45233 16.2814 5.53467 16.2371 5.636 16.2244C5.73733 16.1991 5.845 16.2118 5.959 16.2624C6.04767 16.3258 6.11733 16.3511 6.168 16.3384C6.23133 16.3131 6.37067 16.2751 6.586 16.2244C6.776 16.1231 6.97233 16.0281 7.175 15.9394C7.37767 15.8381 7.56767 15.7178 7.745 15.5784C8.07433 15.2998 8.32767 14.9261 8.505 14.4574C8.695 13.9761 8.79633 13.4821 8.809 12.9754C8.82167 12.4561 8.74567 11.9621 8.581 11.4934C8.41633 11.0121 8.15667 10.6384 7.802 10.3724C7.612 10.4104 7.43467 10.5054 7.27 10.6574C7.118 10.7968 6.97233 10.9614 6.833 11.1514C6.70633 11.3288 6.57967 11.5188 6.453 11.7214C6.339 11.9114 6.23767 12.0888 6.149 12.2534C5.71833 12.9754 5.38267 13.7354 5.142 14.5334C4.90133 15.3188 4.71767 16.1294 4.591 16.9654C4.71767 17.6114 4.77467 18.2954 4.762 19.0174C4.74933 19.7394 4.71133 20.5754 4.648 21.5254C4.62267 21.9561 4.61633 22.3994 4.629 22.8554C4.64167 23.3114 4.59733 23.7548 4.496 24.1854C4.33133 24.4894 4.097 24.5464 3.793 24.3564C3.65367 24.1918 3.55867 23.9701 3.508 23.6914C3.45733 23.4254 3.42567 23.1468 3.413 22.8554C3.40033 22.5641 3.40033 22.2791 3.413 22.0004C3.43833 21.7218 3.451 21.4938 3.451 21.3164C3.46367 20.5944 3.489 19.8788 3.527 19.1694C3.57767 18.4601 3.65367 17.7571 3.755 17.0604C3.641 16.4904 3.451 15.9331 3.185 15.3884C2.919 14.8311 2.54533 14.2231 2.064 13.5644C1.96267 13.4124 1.84233 13.2478 1.703 13.0704C1.56367 12.8931 1.40533 12.7664 1.228 12.6904Z" fill="white"/>
<path d="M14.7479 11.2274C14.8365 11.2274 14.9125 11.2338 14.9759 11.2464C15.0519 11.2464 15.1342 11.2591 15.2229 11.2844C15.3115 10.2584 15.4065 9.33376 15.5079 8.51043C15.6219 7.67443 15.7105 7.0411 15.7739 6.61043C15.9005 5.77443 16.0525 5.00809 16.2299 4.31143C16.4199 3.60209 16.7429 2.91809 17.1989 2.25943C17.3002 2.14543 17.3952 2.0821 17.4839 2.06943C17.5852 2.05676 17.6865 2.07576 17.7879 2.12643C17.9145 2.21509 18.0222 2.37343 18.1109 2.60143C18.2122 2.81676 18.2882 3.07643 18.3389 3.38043C18.4022 3.68443 18.4529 4.00743 18.4909 4.34943C18.5289 4.69143 18.5605 5.02076 18.5859 5.33743C18.6112 5.65409 18.6239 5.93909 18.6239 6.19243C18.6365 6.44576 18.6492 6.62943 18.6619 6.74343C18.6745 7.5161 18.6365 8.2951 18.5479 9.08043C18.4719 9.8531 18.3262 10.6131 18.1109 11.3604C17.8955 12.0951 17.6042 12.7918 17.2369 13.4504C16.8822 14.1091 16.4389 14.6981 15.9069 15.2174C15.9069 15.9268 15.9259 16.5601 15.9639 17.1174C16.0019 17.6748 16.0652 18.1118 16.1539 18.4284C16.1919 18.5804 16.2235 18.7578 16.2489 18.9604C16.2869 19.1758 16.3312 19.3911 16.3819 19.6064C16.4325 19.8218 16.4959 20.0308 16.5719 20.2334C16.6479 20.4488 16.7429 20.6324 16.8569 20.7844C17.0342 20.7211 17.1862 20.7591 17.3129 20.8984C17.4522 21.0504 17.4712 21.2531 17.3699 21.5064L17.2369 21.6964C17.1355 21.7851 17.0342 21.8231 16.9329 21.8104C16.8442 21.8104 16.7302 21.7851 16.5909 21.7344C16.3122 21.4938 16.0715 21.1708 15.8689 20.7654C15.6789 20.3728 15.5205 19.9231 15.3939 19.4164C15.2799 18.9224 15.1912 18.3778 15.1279 17.7824C15.0645 17.1871 15.0202 16.5728 14.9949 15.9394L14.6149 16.2054C14.4122 16.3321 14.1842 16.4588 13.9309 16.5854C13.6902 16.6994 13.4369 16.8071 13.1709 16.9084C12.9175 16.9971 12.6515 17.0668 12.3729 17.1174C12.1069 17.1681 11.8535 17.1871 11.6129 17.1744C11.0809 17.1238 10.7009 16.9464 10.4729 16.6424C10.2449 16.3384 10.1182 15.9838 10.0929 15.5784C10.0675 15.1604 10.1182 14.7361 10.2449 14.3054C10.3715 13.8621 10.5235 13.4884 10.7009 13.1844C10.9415 12.8044 11.2139 12.4941 11.5179 12.2534C11.8219 12.0001 12.1512 11.8038 12.5059 11.6644C12.8605 11.5251 13.2279 11.4238 13.6079 11.3604C13.9879 11.2971 14.3679 11.2528 14.7479 11.2274ZM14.9949 14.9514C14.9949 14.4701 15.0075 13.9951 15.0329 13.5264C15.0709 13.0578 15.1025 12.5954 15.1279 12.1394C15.1025 12.1141 15.0582 12.1078 14.9949 12.1204C14.9315 12.1331 14.8492 12.1394 14.7479 12.1394C14.4059 12.1521 14.0829 12.1838 13.7789 12.2344C13.4749 12.2724 13.1835 12.3484 12.9049 12.4624C12.6262 12.5764 12.3665 12.7348 12.1259 12.9374C11.8852 13.1274 11.6572 13.3744 11.4419 13.6784C11.3279 13.8304 11.2139 14.0458 11.0999 14.3244C10.9985 14.6031 10.9352 14.8818 10.9099 15.1604C10.8972 15.4264 10.9415 15.6671 11.0429 15.8824C11.1569 16.0851 11.3722 16.1928 11.6889 16.2054C12.3602 16.2561 12.9682 16.1674 13.5129 15.9394C14.0702 15.7114 14.5642 15.3821 14.9949 14.9514ZM15.9829 12.5384L15.9069 13.9064C16.2489 13.4124 16.5402 12.8804 16.7809 12.3104C17.0342 11.7278 17.2369 11.1388 17.3889 10.5434C17.5409 9.93543 17.6485 9.33376 17.7119 8.73843C17.7752 8.1431 17.8005 7.58576 17.7879 7.06643C17.7879 7.02843 17.7815 6.88909 17.7689 6.64843C17.7562 6.3951 17.7372 6.09743 17.7119 5.75543C17.6992 5.40076 17.6739 5.03343 17.6359 4.65343C17.5979 4.26076 17.5535 3.91876 17.5029 3.62743C17.3002 4.10876 17.1165 4.6661 16.9519 5.29943C16.7872 5.93276 16.6415 6.61676 16.5149 7.35143C16.4009 8.0861 16.2932 8.85243 16.1919 9.65043C16.1032 10.4358 16.0335 11.2211 15.9829 12.0064L16.0779 12.2724L15.9829 12.5384Z" fill="white"/>
<path d="M18.7665 8.52943C18.7285 8.3901 18.7222 8.26976 18.7475 8.16843C18.7855 8.0671 18.8362 7.9911 18.8995 7.94043C18.9755 7.88976 19.0579 7.87076 19.1465 7.88343C19.2479 7.88343 19.3365 7.9151 19.4125 7.97843C19.6659 7.97843 19.9255 7.96576 20.1915 7.94043C20.4702 7.90243 20.7425 7.8581 21.0085 7.80743C21.1099 6.8701 21.2112 6.05309 21.3125 5.35643C21.4139 4.64709 21.5089 4.1341 21.5975 3.81743C21.6989 3.46276 21.8762 3.12076 22.1295 2.79143C22.3829 2.46209 22.6679 2.17076 22.9845 1.91743C23.3012 1.65143 23.6369 1.43609 23.9915 1.27143C24.3589 1.10676 24.7072 1.0181 25.0365 1.00543C25.3659 0.980095 25.6635 1.04343 25.9295 1.19543C26.1955 1.34743 26.3982 1.60076 26.5375 1.95543C26.5755 2.09476 26.5692 2.2151 26.5185 2.31643C26.4679 2.4051 26.3982 2.46843 26.3095 2.50643C26.2209 2.54443 26.1259 2.55076 26.0245 2.52543C25.9232 2.5001 25.8345 2.43043 25.7585 2.31643C25.6952 2.16443 25.5749 2.0821 25.3975 2.06943C25.2329 2.05676 25.0809 2.05043 24.9415 2.05043C24.6755 2.05043 24.4285 2.06943 24.2005 2.10743C23.9725 2.13276 23.7572 2.2151 23.5545 2.35443C23.3519 2.49376 23.1555 2.70276 22.9655 2.98143C22.7882 3.2601 22.6045 3.64643 22.4145 4.14043C22.1992 4.71043 22.0409 5.28676 21.9395 5.86943C21.8382 6.43943 21.7559 7.0221 21.6925 7.61743C22.4019 7.46543 23.1112 7.28809 23.8205 7.08543C24.5299 6.8701 25.2519 6.73076 25.9865 6.66743C26.1385 6.69276 26.2462 6.74976 26.3095 6.83843C26.3855 6.9271 26.4235 7.0221 26.4235 7.12343C26.4235 7.22476 26.3855 7.31976 26.3095 7.40843C26.2462 7.4971 26.1385 7.5541 25.9865 7.57943C25.1632 7.64276 24.3969 7.77576 23.6875 7.97843C22.9909 8.16843 22.3069 8.3521 21.6355 8.52943C21.5975 9.36543 21.5849 10.2078 21.5975 11.0564C21.6229 11.9051 21.6355 12.7411 21.6355 13.5644C21.6355 13.7671 21.6165 14.0394 21.5785 14.3814C21.5532 14.7234 21.5342 15.0844 21.5215 15.4644C21.5089 15.8444 21.5152 16.2118 21.5405 16.5664C21.5785 16.9211 21.6545 17.2188 21.7685 17.4594C21.9205 17.5481 22.0029 17.6811 22.0155 17.8584C22.0409 18.0358 21.9332 18.1751 21.6925 18.2764H21.5975C21.4075 18.3144 21.2365 18.2384 21.0845 18.0484C20.9199 17.7698 20.7995 17.3011 20.7235 16.6424C20.6602 15.9711 20.6285 15.2048 20.6285 14.3434C20.6285 13.4694 20.6539 12.5448 20.7045 11.5694C20.7552 10.5814 20.8249 9.63143 20.9135 8.71943C20.6095 8.78276 20.3119 8.8271 20.0205 8.85243C19.7419 8.87776 19.4505 8.89043 19.1465 8.89043C19.0579 8.83976 18.9882 8.8081 18.9375 8.79543C18.8995 8.7701 18.8552 8.7131 18.8045 8.62443C18.8045 8.61176 18.7982 8.5991 18.7855 8.58643C18.7855 8.57376 18.7855 8.5611 18.7855 8.54843L18.7665 8.52943Z" fill="white"/>
<path d="M1.228 12.6904C1.12667 12.6144 1.057 12.5321 1.019 12.4434C0.993667 12.3421 0.993667 12.2471 1.019 12.1584C1.057 12.0698 1.12033 12.0001 1.209 11.9494C1.29767 11.8988 1.40533 11.8798 1.532 11.8924C1.78533 11.9938 2.007 12.1521 2.197 12.3674C2.387 12.5701 2.558 12.7791 2.71 12.9944C3.02667 13.4124 3.29267 13.8114 3.508 14.1914C3.736 14.5714 3.93233 14.9451 4.097 15.3124C4.23633 14.7551 4.39467 14.2104 4.572 13.6784C4.762 13.1464 4.99 12.6144 5.256 12.0824C5.332 11.9178 5.47767 11.6644 5.693 11.3224C5.921 10.9678 6.17433 10.6321 6.453 10.3154C6.74433 9.99876 7.03567 9.75176 7.327 9.57443C7.631 9.38443 7.90333 9.3781 8.144 9.55543C8.258 9.63143 8.372 9.70743 8.486 9.78343C8.6 9.85943 8.70133 9.95443 8.79 10.0684C9.00533 10.3344 9.18267 10.6954 9.322 11.1514C9.46133 11.5948 9.55 12.0634 9.588 12.5574C9.63867 13.0388 9.626 13.5074 9.55 13.9634C9.48667 14.4194 9.34733 14.7994 9.132 15.1034L8.372 16.1674C8.24533 16.3321 8.05533 16.4904 7.802 16.6424C7.56133 16.7944 7.29533 16.9148 7.004 17.0034C6.72533 17.0921 6.44033 17.1364 6.149 17.1364C5.87033 17.1364 5.62967 17.0668 5.427 16.9274C5.351 16.8261 5.313 16.7248 5.313 16.6234C5.313 16.5094 5.33833 16.4208 5.389 16.3574C5.45233 16.2814 5.53467 16.2371 5.636 16.2244C5.73733 16.1991 5.845 16.2118 5.959 16.2624C6.04767 16.3258 6.11733 16.3511 6.168 16.3384C6.23133 16.3131 6.37067 16.2751 6.586 16.2244C6.776 16.1231 6.97233 16.0281 7.175 15.9394C7.37767 15.8381 7.56767 15.7178 7.745 15.5784C8.07433 15.2998 8.32767 14.9261 8.505 14.4574C8.695 13.9761 8.79633 13.4821 8.809 12.9754C8.82167 12.4561 8.74567 11.9621 8.581 11.4934C8.41633 11.0121 8.15667 10.6384 7.802 10.3724C7.612 10.4104 7.43467 10.5054 7.27 10.6574C7.118 10.7968 6.97233 10.9614 6.833 11.1514C6.70633 11.3288 6.57967 11.5188 6.453 11.7214C6.339 11.9114 6.23767 12.0888 6.149 12.2534C5.71833 12.9754 5.38267 13.7354 5.142 14.5334C4.90133 15.3188 4.71767 16.1294 4.591 16.9654C4.71767 17.6114 4.77467 18.2954 4.762 19.0174C4.74933 19.7394 4.71133 20.5754 4.648 21.5254C4.62267 21.9561 4.61633 22.3994 4.629 22.8554C4.64167 23.3114 4.59733 23.7548 4.496 24.1854C4.33133 24.4894 4.097 24.5464 3.793 24.3564C3.65367 24.1918 3.55867 23.9701 3.508 23.6914C3.45733 23.4254 3.42567 23.1468 3.413 22.8554C3.40033 22.5641 3.40033 22.2791 3.413 22.0004C3.43833 21.7218 3.451 21.4938 3.451 21.3164C3.46367 20.5944 3.489 19.8788 3.527 19.1694C3.57767 18.4601 3.65367 17.7571 3.755 17.0604C3.641 16.4904 3.451 15.9331 3.185 15.3884C2.919 14.8311 2.54533 14.2231 2.064 13.5644C1.96267 13.4124 1.84233 13.2478 1.703 13.0704C1.56367 12.8931 1.40533 12.7664 1.228 12.6904Z" stroke="white" stroke-width="0.4" mask="url(#path-1-outside-1_283_2600)"/>
<path d="M14.7479 11.2274C14.8365 11.2274 14.9125 11.2338 14.9759 11.2464C15.0519 11.2464 15.1342 11.2591 15.2229 11.2844C15.3115 10.2584 15.4065 9.33376 15.5079 8.51043C15.6219 7.67443 15.7105 7.0411 15.7739 6.61043C15.9005 5.77443 16.0525 5.00809 16.2299 4.31143C16.4199 3.60209 16.7429 2.91809 17.1989 2.25943C17.3002 2.14543 17.3952 2.0821 17.4839 2.06943C17.5852 2.05676 17.6865 2.07576 17.7879 2.12643C17.9145 2.21509 18.0222 2.37343 18.1109 2.60143C18.2122 2.81676 18.2882 3.07643 18.3389 3.38043C18.4022 3.68443 18.4529 4.00743 18.4909 4.34943C18.5289 4.69143 18.5605 5.02076 18.5859 5.33743C18.6112 5.65409 18.6239 5.93909 18.6239 6.19243C18.6365 6.44576 18.6492 6.62943 18.6619 6.74343C18.6745 7.5161 18.6365 8.2951 18.5479 9.08043C18.4719 9.8531 18.3262 10.6131 18.1109 11.3604C17.8955 12.0951 17.6042 12.7918 17.2369 13.4504C16.8822 14.1091 16.4389 14.6981 15.9069 15.2174C15.9069 15.9268 15.9259 16.5601 15.9639 17.1174C16.0019 17.6748 16.0652 18.1118 16.1539 18.4284C16.1919 18.5804 16.2235 18.7578 16.2489 18.9604C16.2869 19.1758 16.3312 19.3911 16.3819 19.6064C16.4325 19.8218 16.4959 20.0308 16.5719 20.2334C16.6479 20.4488 16.7429 20.6324 16.8569 20.7844C17.0342 20.7211 17.1862 20.7591 17.3129 20.8984C17.4522 21.0504 17.4712 21.2531 17.3699 21.5064L17.2369 21.6964C17.1355 21.7851 17.0342 21.8231 16.9329 21.8104C16.8442 21.8104 16.7302 21.7851 16.5909 21.7344C16.3122 21.4938 16.0715 21.1708 15.8689 20.7654C15.6789 20.3728 15.5205 19.9231 15.3939 19.4164C15.2799 18.9224 15.1912 18.3778 15.1279 17.7824C15.0645 17.1871 15.0202 16.5728 14.9949 15.9394L14.6149 16.2054C14.4122 16.3321 14.1842 16.4588 13.9309 16.5854C13.6902 16.6994 13.4369 16.8071 13.1709 16.9084C12.9175 16.9971 12.6515 17.0668 12.3729 17.1174C12.1069 17.1681 11.8535 17.1871 11.6129 17.1744C11.0809 17.1238 10.7009 16.9464 10.4729 16.6424C10.2449 16.3384 10.1182 15.9838 10.0929 15.5784C10.0675 15.1604 10.1182 14.7361 10.2449 14.3054C10.3715 13.8621 10.5235 13.4884 10.7009 13.1844C10.9415 12.8044 11.2139 12.4941 11.5179 12.2534C11.8219 12.0001 12.1512 11.8038 12.5059 11.6644C12.8605 11.5251 13.2279 11.4238 13.6079 11.3604C13.9879 11.2971 14.3679 11.2528 14.7479 11.2274ZM14.9949 14.9514C14.9949 14.4701 15.0075 13.9951 15.0329 13.5264C15.0709 13.0578 15.1025 12.5954 15.1279 12.1394C15.1025 12.1141 15.0582 12.1078 14.9949 12.1204C14.9315 12.1331 14.8492 12.1394 14.7479 12.1394C14.4059 12.1521 14.0829 12.1838 13.7789 12.2344C13.4749 12.2724 13.1835 12.3484 12.9049 12.4624C12.6262 12.5764 12.3665 12.7348 12.1259 12.9374C11.8852 13.1274 11.6572 13.3744 11.4419 13.6784C11.3279 13.8304 11.2139 14.0458 11.0999 14.3244C10.9985 14.6031 10.9352 14.8818 10.9099 15.1604C10.8972 15.4264 10.9415 15.6671 11.0429 15.8824C11.1569 16.0851 11.3722 16.1928 11.6889 16.2054C12.3602 16.2561 12.9682 16.1674 13.5129 15.9394C14.0702 15.7114 14.5642 15.3821 14.9949 14.9514ZM15.9829 12.5384L15.9069 13.9064C16.2489 13.4124 16.5402 12.8804 16.7809 12.3104C17.0342 11.7278 17.2369 11.1388 17.3889 10.5434C17.5409 9.93543 17.6485 9.33376 17.7119 8.73843C17.7752 8.1431 17.8005 7.58576 17.7879 7.06643C17.7879 7.02843 17.7815 6.88909 17.7689 6.64843C17.7562 6.3951 17.7372 6.09743 17.7119 5.75543C17.6992 5.40076 17.6739 5.03343 17.6359 4.65343C17.5979 4.26076 17.5535 3.91876 17.5029 3.62743C17.3002 4.10876 17.1165 4.6661 16.9519 5.29943C16.7872 5.93276 16.6415 6.61676 16.5149 7.35143C16.4009 8.0861 16.2932 8.85243 16.1919 9.65043C16.1032 10.4358 16.0335 11.2211 15.9829 12.0064L16.0779 12.2724L15.9829 12.5384Z" stroke="white" stroke-width="0.4" mask="url(#path-1-outside-1_283_2600)"/>
<path d="M18.7665 8.52943C18.7285 8.3901 18.7222 8.26976 18.7475 8.16843C18.7855 8.0671 18.8362 7.9911 18.8995 7.94043C18.9755 7.88976 19.0579 7.87076 19.1465 7.88343C19.2479 7.88343 19.3365 7.9151 19.4125 7.97843C19.6659 7.97843 19.9255 7.96576 20.1915 7.94043C20.4702 7.90243 20.7425 7.8581 21.0085 7.80743C21.1099 6.8701 21.2112 6.05309 21.3125 5.35643C21.4139 4.64709 21.5089 4.1341 21.5975 3.81743C21.6989 3.46276 21.8762 3.12076 22.1295 2.79143C22.3829 2.46209 22.6679 2.17076 22.9845 1.91743C23.3012 1.65143 23.6369 1.43609 23.9915 1.27143C24.3589 1.10676 24.7072 1.0181 25.0365 1.00543C25.3659 0.980095 25.6635 1.04343 25.9295 1.19543C26.1955 1.34743 26.3982 1.60076 26.5375 1.95543C26.5755 2.09476 26.5692 2.2151 26.5185 2.31643C26.4679 2.4051 26.3982 2.46843 26.3095 2.50643C26.2209 2.54443 26.1259 2.55076 26.0245 2.52543C25.9232 2.5001 25.8345 2.43043 25.7585 2.31643C25.6952 2.16443 25.5749 2.0821 25.3975 2.06943C25.2329 2.05676 25.0809 2.05043 24.9415 2.05043C24.6755 2.05043 24.4285 2.06943 24.2005 2.10743C23.9725 2.13276 23.7572 2.2151 23.5545 2.35443C23.3519 2.49376 23.1555 2.70276 22.9655 2.98143C22.7882 3.2601 22.6045 3.64643 22.4145 4.14043C22.1992 4.71043 22.0409 5.28676 21.9395 5.86943C21.8382 6.43943 21.7559 7.0221 21.6925 7.61743C22.4019 7.46543 23.1112 7.28809 23.8205 7.08543C24.5299 6.8701 25.2519 6.73076 25.9865 6.66743C26.1385 6.69276 26.2462 6.74976 26.3095 6.83843C26.3855 6.9271 26.4235 7.0221 26.4235 7.12343C26.4235 7.22476 26.3855 7.31976 26.3095 7.40843C26.2462 7.4971 26.1385 7.5541 25.9865 7.57943C25.1632 7.64276 24.3969 7.77576 23.6875 7.97843C22.9909 8.16843 22.3069 8.3521 21.6355 8.52943C21.5975 9.36543 21.5849 10.2078 21.5975 11.0564C21.6229 11.9051 21.6355 12.7411 21.6355 13.5644C21.6355 13.7671 21.6165 14.0394 21.5785 14.3814C21.5532 14.7234 21.5342 15.0844 21.5215 15.4644C21.5089 15.8444 21.5152 16.2118 21.5405 16.5664C21.5785 16.9211 21.6545 17.2188 21.7685 17.4594C21.9205 17.5481 22.0029 17.6811 22.0155 17.8584C22.0409 18.0358 21.9332 18.1751 21.6925 18.2764H21.5975C21.4075 18.3144 21.2365 18.2384 21.0845 18.0484C20.9199 17.7698 20.7995 17.3011 20.7235 16.6424C20.6602 15.9711 20.6285 15.2048 20.6285 14.3434C20.6285 13.4694 20.6539 12.5448 20.7045 11.5694C20.7552 10.5814 20.8249 9.63143 20.9135 8.71943C20.6095 8.78276 20.3119 8.8271 20.0205 8.85243C19.7419 8.87776 19.4505 8.89043 19.1465 8.89043C19.0579 8.83976 18.9882 8.8081 18.9375 8.79543C18.8995 8.7701 18.8552 8.7131 18.8045 8.62443C18.8045 8.61176 18.7982 8.5991 18.7855 8.58643C18.7855 8.57376 18.7855 8.5611 18.7855 8.54843L18.7665 8.52943Z" stroke="white" stroke-width="0.4" mask="url(#path-1-outside-1_283_2600)"/>
</svg>
