<svg width="46" height="46" viewBox="0 0 46 46" fill="none" xmlns="http://www.w3.org/2000/svg">
<rect width="46" height="46" rx="23" fill="#212121"/>
<path fill-rule="evenodd" clip-rule="evenodd" d="M24.6415 14.5865C25.422 13.8049 26.6879 13.8044 27.4689 14.5855L29.6663 16.7829C30.4407 17.5572 30.4487 18.8109 29.6843 19.5952L28.2219 21.0956L23.1783 16.052L24.6415 14.5865ZM22.1184 17.1135L27.1748 22.1699L21.0895 28.4135C20.525 28.9926 19.7509 29.3192 18.9426 29.3192L16.5003 29.3191C15.6474 29.319 14.9663 28.6081 15.0022 27.7554L15.1074 25.254C15.139 24.5028 15.4512 23.7908 15.9823 23.2589L22.1184 17.1135ZM30.8281 30.0006C31.2422 30.0006 31.5778 29.6647 31.5778 29.2504C31.5778 28.836 31.2422 28.5001 30.8281 28.5001H25.0463C24.6323 28.5001 24.2966 28.836 24.2966 29.2504C24.2966 29.6647 24.6323 30.0006 25.0463 30.0006H30.8281Z" fill="white"/>
</svg>
