<svg width="54" height="54" viewBox="0 0 54 54" fill="none" xmlns="http://www.w3.org/2000/svg">
<rect width="54" height="54" rx="27" fill="#212121"/>
<path fill-rule="evenodd" clip-rule="evenodd" d="M25.3899 16.3939C26.0368 15.8687 26.9632 15.8687 27.6101 16.3939L29.5051 17.9324C29.7706 18.148 30.0931 18.2815 30.4333 18.3169L32.8612 18.569C33.6899 18.655 34.345 19.3101 34.431 20.1388L34.6831 22.5667C34.7185 22.9069 34.852 23.2294 35.0676 23.4949L36.6061 25.3899C37.1313 26.0368 37.1313 26.9632 36.6061 27.6101L35.0676 29.5051C34.852 29.7706 34.7185 30.0931 34.6831 30.4333L34.431 32.8612C34.345 33.6899 33.6899 34.345 32.8612 34.431L30.4333 34.6831C30.0931 34.7185 29.7706 34.852 29.5051 35.0676L27.6101 36.6061C26.9632 37.1313 26.0368 37.1313 25.3899 36.6061L23.4949 35.0676C23.2294 34.852 22.9069 34.7185 22.5667 34.6831L20.1388 34.431C19.3101 34.345 18.655 33.6899 18.569 32.8612L18.3169 30.4333C18.2815 30.0931 18.148 29.7706 17.9324 29.5051L16.3939 27.6101C15.8687 26.9632 15.8687 26.0368 16.3939 25.3899L17.9324 23.4949C18.148 23.2294 18.2815 22.9069 18.3169 22.5667L18.569 20.1388C18.655 19.3101 19.3101 18.655 20.1388 18.569L22.5667 18.3169C22.9069 18.2815 23.2294 18.148 23.4949 17.9324L25.3899 16.3939Z" fill="white"/>
</svg>
