<svg width="150" height="77" viewBox="0 0 150 77" fill="none" xmlns="http://www.w3.org/2000/svg">
<path d="M33.0116 42.5336C35.3868 42.5336 37.3123 40.5547 37.3123 38.1135C37.3123 35.6723 35.3868 33.6934 33.0116 33.6934C30.6364 33.6934 28.7109 35.6723 28.7109 38.1135C28.7109 40.5547 30.6364 42.5336 33.0116 42.5336Z" fill="#212121"/>
<path fill-rule="evenodd" clip-rule="evenodd" d="M33.006 29.127C38.7802 29.127 44.1444 29.9785 48.1889 31.4096C53.062 33.1339 56.0581 35.7474 56.0581 38.114C56.0581 40.5802 52.8828 43.3567 47.6497 45.1387C43.6934 46.4859 38.4872 47.1892 33.006 47.1892C27.3863 47.1892 22.0647 46.5291 18.0638 45.1239C13.0019 43.3457 9.95312 40.5332 9.95312 38.114C9.95312 35.7666 12.8138 33.1732 17.6184 31.4516C21.678 29.9969 27.1746 29.127 33.0052 29.127H33.006Z" stroke="#212121" stroke-width="1.66272"/>
<path fill-rule="evenodd" clip-rule="evenodd" d="M25.3925 33.6453C28.2772 28.5044 31.6746 24.1539 34.9014 21.2678C38.7891 17.7906 42.4888 16.4287 44.4834 17.6109C46.5622 18.8429 47.316 23.0572 46.2037 28.6065C45.3636 32.802 43.3547 37.7884 40.6164 42.6686C37.8088 47.6721 34.5941 52.0803 31.4113 54.9396C27.3838 58.558 23.4901 59.8675 21.4511 58.6589C19.4725 57.4871 18.7158 53.6438 19.665 48.5059C20.467 44.1648 22.4796 38.8365 25.3916 33.6452L25.3925 33.6453Z" stroke="#212121" stroke-width="1.66272"/>
<path fill-rule="evenodd" clip-rule="evenodd" d="M25.3955 42.6826C22.5026 37.5474 20.5331 32.3486 19.7109 28.0341C18.7213 22.8357 19.421 18.8611 21.4138 17.6755C23.4905 16.4399 27.4194 17.8733 31.5416 21.6351C34.6583 24.4793 37.8587 28.7576 40.605 33.6331C43.4206 38.6318 45.5308 43.696 46.3518 47.958C47.3905 53.3513 46.5498 57.4723 44.5127 58.6843C42.536 59.8603 38.919 58.6152 35.0621 55.204C31.8034 52.322 28.3169 47.8687 25.3955 42.6825V42.6826Z" stroke="#212121" stroke-width="1.66272"/>
<path fill-rule="evenodd" clip-rule="evenodd" d="M80.7567 49.408L75.4853 41.2229C78.1494 40.9813 80.55 38.9973 80.55 35.3728C80.55 31.6846 78.0034 29.3242 74.4311 29.3242H66.5859V49.3928H69.0162V41.4188H72.9103L77.8871 49.3928L80.7567 49.408ZM74.1403 39.2377H69.0174V31.5651H74.1403C76.4542 31.5651 78.0344 33.1294 78.0344 35.3868C78.0344 37.6442 76.453 39.2402 74.1403 39.2402V39.2377ZM89.8033 49.768C92.1172 49.768 94.0191 48.9858 95.4248 47.5424L94.3705 46.0671C93.2569 47.2409 91.6186 47.9023 90.0087 47.9023C86.9647 47.9023 85.09 45.6156 84.9143 42.8788H96.3603V42.3065C96.3603 37.9443 93.8422 34.5131 89.5669 34.5131C85.5268 34.5131 82.6004 37.9138 82.6004 42.1259C82.6004 46.6699 85.6159 49.7565 89.802 49.7565L89.8033 49.768ZM94.1961 41.2216H84.9156C85.0331 38.996 86.5242 36.3762 89.541 36.3762C92.7619 36.3762 94.1664 39.0545 94.1961 41.2216ZM110.943 49.4068V39.417C110.943 35.8967 108.456 34.5118 105.469 34.5118C103.155 34.5118 101.341 35.2939 99.8188 36.9192L100.843 38.4835C102.102 37.0998 103.479 36.4678 105.177 36.4678C107.226 36.4678 108.749 37.5806 108.749 39.5366V42.1539C107.607 40.7994 105.997 40.1674 104.064 40.1674C101.664 40.1674 99.1147 41.7024 99.1147 44.9518C99.1147 48.1108 101.661 49.7667 104.064 49.7667C105.967 49.7667 107.579 49.0748 108.749 47.7509V49.4042L110.943 49.4068ZM104.855 48.1426C102.806 48.1426 101.371 46.82 101.371 44.9836C101.371 43.1179 102.806 41.7939 104.855 41.7939C106.407 41.7939 107.899 42.3955 108.749 43.5999V46.338C107.9 47.5411 106.407 48.1439 104.855 48.1439V48.1426ZM121.56 49.768C124.136 49.768 125.658 48.6844 126.742 47.2409L125.278 45.8573C124.342 47.1507 123.141 47.7522 121.69 47.7522C118.674 47.7522 116.802 45.3447 116.802 42.1259C116.802 38.907 118.676 36.5301 121.69 36.5301C123.154 36.5301 124.354 37.1024 125.278 38.425L126.742 37.0413C125.659 35.5966 124.136 34.5143 121.56 34.5143C117.344 34.5143 114.504 37.8247 114.504 42.1272C114.504 46.4601 117.344 49.7578 121.56 49.7578V49.768ZM133.389 49.768C134.676 49.768 135.468 49.3763 136.025 48.8357L135.382 47.1507C135.088 47.4813 134.516 47.7522 133.888 47.7522C132.923 47.7522 132.453 46.9701 132.453 45.8865V36.8595H135.324V34.8742H132.453V30.9025H130.256V34.8742H127.914V36.8607H130.256V46.3698C130.256 48.5369 131.311 49.7705 133.389 49.7705V49.768Z" fill="#212121"/>
</svg>
