<svg width="22" height="22" viewBox="0 0 22 22" fill="none" xmlns="http://www.w3.org/2000/svg">
<path fill-rule="evenodd" clip-rule="evenodd" d="M10.7755 21.5508H11.2245C17.1756 21.5508 22 16.7264 22 10.7753C22 4.82412 17.1756 -0.000238419 11.2245 -0.000238419H10.7755C4.82436 -0.000238419 0 4.82412 0 10.7753C0 16.7264 4.82436 21.5508 10.7755 21.5508ZM8.7261 6.11458C7.28188 6.11458 6.11111 7.28535 6.11111 8.72957V13.2774C6.11111 14.7216 7.28188 15.8924 8.7261 15.8924H13.2739C14.7181 15.8924 15.8889 14.7216 15.8889 13.2774V8.72957C15.8889 7.28535 14.7181 6.11458 13.2739 6.11458H8.7261ZM10.1047 13.171C9.98348 13.1751 9.86873 13.1163 9.80144 13.0153L8.99579 11.8068H8.27354C8.08024 11.8068 7.92354 11.6501 7.92354 11.4568C7.92354 11.2635 8.08024 11.1068 8.27354 11.1068H9.1831C9.30012 11.1068 9.4094 11.1653 9.47432 11.2627L10.0697 12.1558L11.6079 9.46407C11.6719 9.352 11.7925 9.28427 11.9215 9.28785C12.0505 9.29143 12.1671 9.36574 12.2248 9.48119L13.0377 11.1068H13.7309C13.9242 11.1068 14.0809 11.2635 14.0809 11.4568C14.0809 11.6501 13.9242 11.8068 13.7309 11.8068H12.8213C12.6888 11.8068 12.5676 11.7319 12.5083 11.6134L11.8912 10.3792L10.3965 12.9948C10.3364 13.1001 10.2259 13.1668 10.1047 13.171Z" fill="#212121"/>
</svg>
