<svg width="99" height="31" viewBox="0 0 99 31" fill="none" xmlns="http://www.w3.org/2000/svg">
<path d="M19.4871 15.9892C15.5113 18.5755 11.5718 21.1386 7.52832 23.7684L25.5963 26.2584L19.4871 15.9892ZM27.306 4.54456C26.7721 5.35345 26.2373 6.16203 25.7043 6.97154C23.8733 9.75157 22.0433 12.5323 20.2142 15.3136C20.1124 15.4689 19.9804 15.5919 20.1238 15.8305C21.8913 18.7762 23.6444 21.7313 25.4018 24.6829C25.6791 25.1492 25.9597 25.6136 26.3185 26.0609L27.3842 4.56786L27.306 4.54456ZM3.18111 13.7294C3.26389 13.8086 3.47037 13.8542 3.56607 13.8067C5.26132 12.9655 6.96734 12.1433 8.62567 11.2328C9.16603 10.9365 9.58145 10.4043 10.0477 9.97318C11.5899 8.54465 13.1307 7.11449 14.67 5.68272C14.7644 5.59481 14.8755 5.51001 14.9322 5.39911C15.4851 4.30786 16.0283 3.21163 16.5911 2.0831C15.9199 1.82932 15.2839 1.57988 14.6401 1.35312C14.5527 1.32236 14.4155 1.38356 14.3201 1.43699C12.8298 2.27756 11.3115 3.07309 9.86825 3.98977C9.14603 4.44826 8.55766 5.12389 7.91821 5.71285C6.88826 6.66215 5.85892 7.61361 4.84343 8.57968C4.5725 8.83878 4.32958 9.12617 4.11874 9.43703C3.4239 10.4578 2.7506 11.4931 2.04561 12.5583C2.44011 12.9702 2.79799 13.3634 3.18111 13.7294ZM9.37651 12.3337C8.53366 15.9299 7.6948 19.5056 6.82887 23.199L18.7996 15.413L9.37651 12.3337ZM16.0963 6.29467L19.5489 14.7725C21.8027 11.3552 24.0115 8.00532 26.2705 4.57904L16.0963 6.29467ZM9.51806 11.5981L18.7535 14.6246C17.5961 11.7783 16.4785 9.03165 15.3374 6.22664L9.51806 11.5981ZM3.30882 15.8264L0.0764858 23.6261L6.2325 23.4425L3.30882 15.8264ZM6.30574 21.6337L6.38205 21.6169C7.1209 18.5143 7.87082 15.4332 8.62567 12.2097L3.6867 14.8007C4.52832 17.0099 5.42626 19.3397 6.30574 21.6337ZM25.0283 4.07613C24.0451 3.81333 23.0628 3.54929 22.0787 3.28836C20.6654 2.91343 19.2507 2.54253 17.838 2.16387C17.6617 2.11665 17.5337 2.0859 17.4299 2.30055C16.9308 3.33309 16.4157 4.35818 15.9086 5.38669C15.8929 5.41868 15.8959 5.46031 15.8839 5.53952L25.0264 4.14105L25.0283 4.07613ZM19.3255 1.72712L27.3377 3.96461L26.0139 0.15687L19.3375 1.65132L19.3255 1.72712ZM21.751 26.3783L15.1777 25.4725C12.4473 25.0963 9.72178 24.6823 6.98519 24.3639C5.99278 24.2486 4.97391 24.3549 3.96765 24.3719C3.1408 24.3862 2.31394 24.4179 1.4874 24.4443C1.40216 24.4468 1.31723 24.4642 1.2326 24.5565C8.06715 25.1945 14.9023 25.8322 21.7365 26.4706L21.751 26.3783ZM0.211269 21.2454C1.09259 19.1825 1.96899 17.118 2.85338 15.057C2.94201 14.8498 2.93555 14.7097 2.7623 14.5435C2.39211 14.1878 2.04869 13.8048 1.64403 13.3805L0.03125 21.4169L0.0906409 21.4455C0.131568 21.379 0.181112 21.3169 0.211269 21.2454ZM17.5706 1.18258C19.056 0.795531 20.5629 0.493596 22.0609 0.155938C22.1575 0.133883 22.2523 0.101577 22.3477 0.0739307L22.3332 0L15.8969 0.87381C16.5015 1.14064 16.9671 1.33976 17.5706 1.18258Z" fill="#212121"/>
<path fill-rule="evenodd" clip-rule="evenodd" d="M77.5843 9.62355C79.2765 9.62355 80.6019 10.2681 81.5603 11.5547C82.5171 12.8413 82.995 14.6051 82.995 16.8461C82.995 19.1528 82.5011 20.9396 81.5149 22.2049C80.527 23.4718 79.1831 24.104 77.4817 24.104C75.7978 24.104 74.4776 23.5079 73.52 22.3164H73.2507L72.5977 23.8539H69.6096V4.41406H73.52V8.93721C73.52 9.51203 73.4678 10.4321 73.3651 11.699H73.52C74.4338 10.3164 75.7894 9.62355 77.5843 9.62355ZM74.2125 13.5408C74.6568 12.9619 75.3619 12.6724 76.3271 12.6724C77.1568 12.6724 77.8106 13.016 78.2886 13.7032C78.7674 14.3903 79.0072 15.4219 79.0072 16.7962C79.0072 18.1706 78.7699 19.2185 78.2953 19.9385C77.8207 20.6584 77.1821 21.0192 76.3793 21.0192C75.3872 21.0192 74.6627 20.6945 74.2049 20.0451C73.748 19.3948 73.5199 18.3206 73.5199 16.8208V16.4092C73.5359 15.0759 73.7682 14.1205 74.2125 13.5408Z" fill="#212121"/>
<path fill-rule="evenodd" clip-rule="evenodd" d="M39.2994 23.8555V16.847L41.4149 16.8461L45.889 23.8547H50.3001L44.7858 15.8966C45.8983 15.4218 46.7566 14.765 47.3633 13.9278C47.9709 13.0913 48.2746 12.1352 48.2746 11.0602C48.2746 9.22011 47.6629 7.84742 46.4402 6.94378C45.2175 6.04013 43.3326 5.58831 40.7863 5.58831H35.3242V23.8555H39.2994ZM39.2994 13.6974H40.5818C41.8373 13.6974 42.7654 13.4924 43.3637 13.0849C43.9612 12.6765 44.2607 12.0353 44.2607 11.1611C44.2607 10.2944 43.9553 9.67858 43.3435 9.31204C42.7326 8.9455 41.7859 8.76182 40.5044 8.76182H39.2985L39.2994 13.6974Z" fill="#212121"/>
<path d="M61.9807 22.0688L62.5058 23.8555L65.5065 23.8564V9.88759H61.5961V16.4599C61.5961 18.109 61.3521 19.2889 60.8649 20.0015C60.3777 20.7125 59.5875 21.0692 58.4928 21.0692C57.6891 21.0692 57.1043 20.8183 56.7374 20.3139C56.3697 19.8096 56.1854 19.0536 56.1854 18.0458V9.88677H52.275V18.9954C52.275 20.6444 52.7017 21.908 53.5566 22.7871C54.4116 23.6661 55.6805 24.1048 57.3652 24.1048C58.3472 24.1048 59.224 23.9285 59.994 23.5743C60.7622 23.22 61.3563 22.719 61.7754 22.0688H61.9807Z" fill="#212121"/>
<path d="M88.2005 9.88677H83.9182L89.6091 23.7547L89.3785 24.4427C89.0891 25.2758 88.6852 25.8982 88.1676 26.3098C87.6501 26.7223 87.0451 26.9281 86.3534 26.9281C85.836 26.932 85.3199 26.8778 84.8152 26.7666V29.7899C85.464 29.9318 86.1262 30.0023 86.8019 30.0023C88.1786 30.0023 89.3811 29.6407 90.4119 28.9158C91.441 28.1909 92.2337 27.0995 92.7891 25.6423L98.8536 9.88677H94.6614L92.0073 17.7457C91.7338 18.5034 91.5504 19.3119 91.457 20.1696H91.3796C91.2954 19.2365 91.1364 18.4288 90.9058 17.7457L88.2005 9.88677Z" fill="#212121"/>
</svg>
