<svg width="125" height="44" viewBox="0 0 125 44" fill="none" xmlns="http://www.w3.org/2000/svg">
<g clip-path="url(#clip0_327_2759)">
<path d="M53.5715 36.6318C53.5715 36.6318 59.0359 36.1659 59.0359 29.1388C59.0359 22.1116 52.4183 21.4609 52.4183 21.4609H40.4922V43.6269H46.4862V38.2807L51.6684 43.6269H60.5331L53.5715 36.6318ZM51.2699 32.0941H46.4936V27.0265H51.2947C51.2947 27.0265 52.636 27.5194 52.636 29.543C52.636 31.5666 51.2699 32.0941 51.2699 32.0941ZM73.8401 21.6162H67.7521C63.4138 21.6162 61.9462 25.5328 61.9462 27.3986V43.6269H68.0243V39.7424H73.7387V43.6269H79.6386V27.3962C79.6386 22.6736 75.33 21.6162 73.8327 21.6162H73.8401ZM73.7461 33.462H67.9946V28.0838C67.9946 28.0838 67.9946 26.8712 69.8978 26.8712H71.989C73.6743 26.8712 73.7065 28.0838 73.7065 28.0838V33.462H73.7461ZM82.4227 21.6162H88.7607V43.6269H82.4153L82.4227 21.6162ZM97.6576 37.9381V21.6162H91.3444V43.6269H106.171V37.9381H97.6576ZM108.27 37.9998V43.6269H118.478C120.569 43.6269 124.17 42.1036 124.284 37.8445V35.668C124.284 32.03 121.287 29.8856 118.478 29.8856H113.387V27.2754H123.47V21.6064H113.793C111.296 21.6064 107.955 23.6571 107.955 27.4824V29.4543C107.955 33.2772 111.264 35.2367 113.793 35.2367C120.817 35.2663 112.108 35.2367 118.599 35.2367V37.9726L108.27 37.9998Z" fill="#212121"/>
<path d="M2.72431 43.5973H27.3857C27.3857 43.5973 22.6712 22.1757 38.2748 13.5021C41.6826 11.8531 52.5099 5.70591 70.2443 18.7694C70.8061 18.301 71.3357 17.9289 71.3357 17.9289C71.3357 17.9289 55.1035 1.79427 37.03 3.59604C27.9475 4.40449 16.7713 12.6443 10.2155 23.524C3.65979 34.4036 2.72431 43.5973 2.72431 43.5973ZM54.1061 5.32387L54.2422 3.2411C53.9626 3.08582 53.1805 2.71364 51.2155 2.15413L51.0893 4.20484C52.109 4.54745 53.1063 4.91964 54.1061 5.32387ZM51.1364 11.9172L51.0101 13.8743C52.0497 13.9066 53.0842 14.032 54.1012 14.2489L54.2249 12.3214C53.208 12.1137 52.1775 11.9786 51.1413 11.9172H51.1364ZM39.5914 2.21575H39.9032L39.2771 0.320312C38.2753 0.32245 37.2745 0.38418 36.2801 0.505173L36.8741 2.34145C37.7771 2.25285 38.6841 2.21089 39.5914 2.21575ZM41.0887 13.6574L41.8064 15.8017C42.6857 15.3731 43.5956 15.0098 44.5286 14.7148L43.8481 12.6616C42.9074 12.9331 41.9856 13.2657 41.0887 13.6574ZM26.9155 5.48161L25.5123 3.33477C24.7302 3.739 23.921 4.17526 23.0771 4.67315L24.5125 6.84958C25.3242 6.35169 26.1037 5.88584 26.9155 5.48161ZM33.3153 19.4718L34.815 21.7099C35.3645 20.9198 35.9805 20.1777 36.6563 19.4915L35.2506 17.3792C34.5482 18.0219 33.9008 18.7219 33.3153 19.4718ZM28.7889 29.4814L31.3182 31.4705C31.4439 30.2442 31.6615 29.0289 31.969 27.8349L29.7219 26.0627C29.3424 27.1826 29.0309 28.3243 28.7889 29.4814ZM15.1181 14.7148L12.8908 12.7873C12.0791 13.5637 11.2995 14.3401 10.5818 15.119L12.9848 17.1697C13.6531 16.3154 14.3651 15.496 15.1181 14.7148ZM5.68912 28.6113L2.10066 27.305C1.50671 28.6434 0.850887 30.1962 0.539062 31.0367L4.13 32.343C4.53587 31.2856 5.18921 29.7624 5.68912 28.6113ZM28.3212 37.3786C28.3636 38.6906 28.4884 39.9987 28.6949 41.2952L32.4417 42.6336C32.1265 41.2994 31.8787 39.9502 31.6993 38.5913L28.3212 37.3786Z" fill="#212121"/>
</g>
<defs>
<clipPath id="clip0_327_2759">
<rect width="123.744" height="43.3102" fill="white" transform="translate(0.539062 0.320312)"/>
</clipPath>
</defs>
</svg>
