<svg width="62" height="82" viewBox="0 0 62 82" fill="none" xmlns="http://www.w3.org/2000/svg">
<path d="M43.872 34.5933C34.9627 40.1295 26.1347 45.6159 17.0736 51.2452L57.5623 56.5753L43.872 34.5933ZM61.3936 10.0952C60.1971 11.8266 58.9986 13.5575 57.8043 15.2903C53.7012 21.2412 49.6003 27.1934 45.5015 33.1471C45.2733 33.4795 44.9774 33.7429 45.2988 34.2535C49.2597 40.5591 53.1883 46.8846 57.1264 53.2028C57.7477 54.2009 58.3766 55.1949 59.1807 56.1524L61.5687 10.145L61.3936 10.0952ZM7.33196 29.7559C7.51746 29.9255 7.98017 30.0232 8.19463 29.9215C11.9935 28.1208 15.8165 26.3608 19.5327 24.4118C20.7436 23.7775 21.6745 22.6385 22.7192 21.7155C26.1753 18.6577 29.628 15.5963 33.0774 12.5315C33.2891 12.3433 33.538 12.1618 33.6649 11.9244C34.9041 9.58848 36.1212 7.24193 37.3824 4.82623C35.8785 4.28298 34.4531 3.74904 33.0105 3.26364C32.8147 3.19781 32.5071 3.3288 32.2933 3.44317C28.9537 5.24248 25.5513 6.94537 22.3172 8.90759C20.6988 9.88903 19.3803 11.3353 17.9473 12.596C15.6393 14.628 13.3327 16.6647 11.0571 18.7326C10.4499 19.2873 9.90557 19.9024 9.43311 20.5679C7.87604 22.7528 6.36725 24.9691 4.78742 27.2491C5.67146 28.1308 6.47344 28.9726 7.33196 29.7559ZM21.2153 26.7684C19.3265 34.4663 17.4467 42.1203 15.5062 50.0264L42.3315 33.3598L21.2153 26.7684ZM36.2736 13.8414L44.0107 31.9888C49.0611 24.6738 54.0109 17.5032 59.0731 10.169L36.2736 13.8414ZM21.5325 25.1938L42.2281 31.6722C39.6346 25.5795 37.13 19.7001 34.5731 13.6958L21.5325 25.1938ZM7.61814 34.2449L0.374806 50.9407L14.1698 50.5477L7.61814 34.2449ZM14.3339 46.6758L14.505 46.6399C16.1606 39.9985 17.8411 33.4031 19.5327 26.5031L8.46494 32.0493C10.3509 36.7783 12.3631 41.7653 14.3339 46.6758ZM56.2893 9.09244C54.0861 8.52991 51.885 7.96472 49.6797 7.40617C46.5124 6.6036 43.3424 5.80967 40.1766 4.99911C39.7815 4.89804 39.4946 4.83221 39.2622 5.29168C38.1437 7.50192 36.9894 9.6962 35.8529 11.8978C35.8178 11.9663 35.8247 12.0554 35.7978 12.2249L56.2852 9.23141L56.2893 9.09244ZM43.51 4.06422L61.4646 8.85373L58.498 0.702979L43.5369 3.90197L43.51 4.06422ZM48.9453 56.832L34.2152 54.893C28.0966 54.0878 21.989 53.2015 15.8565 52.5199C13.6326 52.2732 11.3495 52.5006 9.09453 52.5372C7.24163 52.5678 5.38873 52.6356 3.53652 52.6921C3.34551 52.6974 3.15519 52.7347 2.96555 52.9322C18.2811 54.2979 33.598 55.663 48.9129 57.0295L48.9453 56.832ZM0.676842 45.8446C2.65179 41.4288 4.61572 37.0097 6.59756 32.5978C6.79616 32.1543 6.78168 31.8544 6.39345 31.4987C5.56388 30.7374 4.79432 29.9175 3.88752 29.0092L0.273438 46.2117L0.406527 46.2729C0.498241 46.1306 0.609263 45.9976 0.676842 45.8446ZM39.5774 2.89859C42.9059 2.07008 46.2828 1.42377 49.6397 0.700984C49.8562 0.653774 50.0686 0.584621 50.2824 0.525442L50.25 0.367188L35.8267 2.23764C37.1818 2.80882 38.2251 3.23504 39.5774 2.89859ZM8.3291 71.0097V76.6929H5.07153V61.8802H9.54758C11.6342 61.8802 13.1789 62.2465 14.1809 62.9793C15.1828 63.7121 15.6841 64.8252 15.6841 66.3173C15.6841 67.189 15.4352 67.9643 14.9373 68.6425C14.4401 69.3214 13.7368 69.854 12.8251 70.239L17.344 76.6922H13.7292L10.0627 71.009H8.3291V71.0097ZM8.3291 68.4564H9.38001C10.4089 68.4564 11.1695 68.2901 11.6598 67.9597C12.1494 67.6285 12.3949 67.1085 12.3949 66.3997C12.3949 65.6969 12.1445 65.1975 11.6432 64.9003C11.1426 64.6031 10.3668 64.4541 9.31657 64.4541H8.32841V68.4564H8.3291ZM27.3463 76.6929L26.916 75.244H26.7477C26.4043 75.7713 25.9175 76.1776 25.2879 76.4648C24.6569 76.7521 23.9384 76.895 23.1337 76.895C21.7531 76.895 20.7132 76.5393 20.0126 75.8265C19.312 75.1137 18.9624 74.089 18.9624 72.7518V65.3657H22.1669V71.9818C22.1669 72.799 22.3179 73.4121 22.6192 73.821C22.9199 74.23 23.3991 74.4334 24.0577 74.4334C24.9548 74.4334 25.6024 74.1442 26.0016 73.5677C26.4009 72.9899 26.6009 72.033 26.6009 70.6959V65.3664H29.8053V76.6936H27.3463V76.6929ZM39.7029 65.1523C41.0896 65.1523 42.1757 65.6749 42.9611 66.7182C43.7452 67.7615 44.1368 69.1918 44.1368 71.009C44.1368 72.8795 43.7321 74.3284 42.9239 75.3544C42.1143 76.3817 41.0131 76.8944 39.6187 76.8944C38.2389 76.8944 37.1569 76.411 36.3722 75.4448H36.1515L35.6164 76.6916H33.1677V60.928H36.3722V64.5958C36.3722 65.0619 36.3294 65.8079 36.2453 66.8353H36.3722C37.1211 65.7142 38.232 65.1523 39.7029 65.1523ZM38.6726 67.6252C37.8817 67.6252 37.3038 67.8599 36.9397 68.3294C36.5756 68.7995 36.3853 69.5741 36.3722 70.6553V70.9891C36.3722 72.2053 36.5591 73.0763 36.9335 73.6036C37.3086 74.1302 37.9024 74.3936 38.7154 74.3936C39.3732 74.3936 39.8966 74.101 40.2855 73.5172C40.6745 72.9334 40.8689 72.0836 40.8689 70.9691C40.8689 69.8547 40.6724 69.0182 40.28 68.461C39.8884 67.9038 39.3525 67.6252 38.6726 67.6252ZM44.8933 65.3657H48.4026L50.6196 71.7385C50.8085 72.2924 50.9388 72.9473 51.0078 73.704H51.0713C51.1478 73.0085 51.2981 72.3529 51.5222 71.7385L53.6972 65.3657H57.1326L52.1629 78.1418C51.7077 79.3234 51.0582 80.2084 50.2148 80.7962C49.3701 81.384 48.3847 81.6772 47.2565 81.6772C46.7028 81.6772 46.1601 81.62 45.6284 81.505V79.0534C46.042 79.1436 46.4649 79.1876 46.889 79.1844C47.4558 79.1844 47.9516 79.0175 48.3757 78.683C48.7998 78.3492 49.1308 77.8446 49.368 77.169L49.5569 76.6111L44.8933 65.3657Z" fill="#212121"/>
</svg>
