<svg width="18" height="18" viewBox="0 0 18 18" fill="none" xmlns="http://www.w3.org/2000/svg">
<path fill-rule="evenodd" clip-rule="evenodd" d="M8.81633 17.6328H9.18367C14.0528 17.6328 18 13.6856 18 8.81649C18 3.94736 14.0528 0.000160217 9.18367 0.000160217H8.81633C3.9472 0.000160217 0 3.94736 0 8.81649C0 13.6856 3.9472 17.6328 8.81633 17.6328ZM7.13953 5C5.9579 5 5 5.9579 5 7.13953L5 10.8605C5 12.0421 5.9579 13 7.13953 13H10.8605C12.0421 13 13 12.0421 13 10.8605V7.13953C13 5.9579 12.0421 5 10.8605 5H7.13953ZM8.26968 10.8381C8.14845 10.8422 8.0337 10.7834 7.96641 10.6824L7.32613 9.722H6.76926C6.57596 9.722 6.41926 9.5653 6.41926 9.372C6.41926 9.1787 6.57596 9.022 6.76926 9.022H7.51344C7.63047 9.022 7.73975 9.08049 7.80466 9.17786L8.23471 9.82294L9.44212 7.70998C9.50616 7.59791 9.62669 7.53018 9.75571 7.53376C9.88474 7.53735 10.0013 7.61165 10.0591 7.72711L10.7065 9.022H11.2344C11.4277 9.022 11.5844 9.1787 11.5844 9.372C11.5844 9.5653 11.4277 9.722 11.2344 9.722H10.4902C10.3576 9.722 10.2364 9.6471 10.1771 9.52853L9.72542 8.62509L8.56152 10.6619C8.50133 10.7672 8.39091 10.8339 8.26968 10.8381Z" fill="#212121"/>
</svg>
