<svg width="54" height="54" viewBox="0 0 54 54" fill="none" xmlns="http://www.w3.org/2000/svg">
<rect width="54" height="54" rx="27" fill="#212121"/>
<path fill-rule="evenodd" clip-rule="evenodd" d="M19.5144 21.2397C19.1969 21.4161 19 21.7507 19 22.1139V27.3151C19 30.9467 20.9689 34.2929 24.1436 36.0566L26.9194 37.5987C27.2214 37.7665 27.5886 37.7665 27.8906 37.5987L30.6664 36.0566C33.8411 34.2929 35.81 30.9467 35.81 27.3151V22.1139C35.81 21.7507 35.6131 21.4161 35.2956 21.2397L27.8906 17.1258C27.5886 16.9581 27.2214 16.9581 26.9194 17.1258L19.5144 21.2397ZM26.3525 29.9938C26.6454 30.2867 27.1202 30.2867 27.4131 29.9938L31.6156 25.7913C31.9085 25.4984 31.9085 25.0235 31.6156 24.7306C31.3227 24.4377 30.8479 24.4377 30.555 24.7306L26.8828 28.4028L25.3119 26.8319C25.019 26.539 24.5441 26.539 24.2512 26.8319C23.9583 27.1248 23.9583 27.5997 24.2512 27.8925L26.3525 29.9938Z" fill="white"/>
</svg>
