<svg width="36" height="30" viewBox="0 0 36 30" fill="none" xmlns="http://www.w3.org/2000/svg">
<path d="M26.4719 27.9227C22.3389 30.2031 16.6584 30.4375 10.9407 28.0976C6.48264 26.2887 2.67096 23.1821 0 19.1806C1.24128 20.1308 2.59739 20.9207 4.03626 21.5317C9.93998 24.1729 15.84 23.9906 19.9953 21.5317C14.0804 17.1941 9.05833 11.5545 5.31595 6.94906C4.57744 6.17074 3.91823 5.32086 3.34805 4.41198C7.87163 8.35896 15.0662 13.3401 17.6256 14.75C13.9713 11.0057 10.6132 6.98343 7.58147 2.71936C12.6211 7.61675 18.1665 11.9651 24.1245 15.6912C24.3887 15.8325 24.5933 15.9516 24.7569 16.0632C24.9316 15.6368 25.0819 15.2009 25.2071 14.7574C26.5872 9.9623 25.0099 4.51242 21.5651 0C29.5409 4.6017 34.284 13.2471 32.2975 20.4863C32.2454 20.6835 32.1896 20.8583 32.1301 21.0629L32.2008 21.1448C36.1403 25.8432 35.0578 30.8169 34.563 29.8869C32.424 25.8767 28.4696 27.1155 26.4719 27.9227Z" fill="#212121"/>
</svg>
