<svg width="54" height="54" viewBox="0 0 54 54" fill="none" xmlns="http://www.w3.org/2000/svg">
<rect width="54" height="54" rx="27" fill="#212121"/>
<path fill-rule="evenodd" clip-rule="evenodd" d="M24.5911 16.328C25.438 16.1137 26.3242 16 27.2359 16C28.1476 16 29.0339 16.1137 29.8808 16.328C30.572 16.5029 30.9289 17.0998 31.0437 17.596C31.1797 18.1838 31.5486 18.7133 32.111 19.038C32.628 19.3365 33.2126 19.4066 33.7518 19.2795C34.2473 19.1627 34.9391 19.2183 35.4022 19.7587C36.263 20.7634 36.9421 21.9294 37.3877 23.2057C37.6537 23.9677 37.2415 24.6538 36.8064 25.0124C36.304 25.4262 35.9859 26.0506 35.9859 26.75C35.9859 27.4494 36.304 28.0738 36.8064 28.4876C37.2415 28.8462 37.6537 29.5323 37.3877 30.2943C36.9421 31.5705 36.2632 32.7364 35.4024 33.741C34.9394 34.2814 34.2474 34.337 33.7519 34.2202C33.2127 34.093 32.628 34.1631 32.1109 34.4617C31.5485 34.7864 31.1796 35.316 31.0436 35.9038C30.9289 36.4001 30.572 36.9971 29.8807 37.172C29.0338 37.3863 28.1476 37.5 27.2359 37.5C26.3242 37.5 25.438 37.3863 24.5912 37.1721C23.8999 36.9971 23.543 36.4001 23.4282 35.9038C23.2922 35.316 22.9233 34.7864 22.3609 34.4617C21.8438 34.1631 21.2591 34.093 20.7199 34.2202C20.2244 34.3371 19.5324 34.2814 19.0693 33.741C18.2086 32.7364 17.5296 31.5705 17.0841 30.2943C16.8181 29.5323 17.2302 28.8462 17.6654 28.4876C18.1677 28.0738 18.4859 27.4494 18.4859 26.75C18.4859 26.0506 18.1677 25.4262 17.6654 25.0123C17.2302 24.6538 16.8181 23.9677 17.0841 23.2057C17.5297 21.9293 18.2087 20.7633 19.0696 19.7587C19.5326 19.2183 20.2245 19.1627 20.7201 19.2795C21.2592 19.4066 21.8438 19.3365 22.3609 19.038C22.9233 18.7133 23.2921 18.1838 23.4281 17.596C23.543 17.0998 23.8999 16.5029 24.5911 16.328ZM27.2344 29.75C25.5775 29.75 24.2344 28.4069 24.2344 26.75C24.2344 25.0931 25.5775 23.75 27.2344 23.75C28.8912 23.75 30.2344 25.0931 30.2344 26.75C30.2344 28.4069 28.8912 29.75 27.2344 29.75Z" fill="white"/>
</svg>
