<svg width="18" height="18" viewBox="0 0 18 18" fill="none" xmlns="http://www.w3.org/2000/svg">
<path fill-rule="evenodd" clip-rule="evenodd" d="M8.74003 6.72422L8.77905 7.32976L8.12875 7.25561C5.76165 6.97138 3.6937 6.00746 1.93789 4.38857L1.0795 3.5853L0.858396 4.17848C0.39018 5.50078 0.689318 6.89723 1.66477 7.83643C2.18501 8.35547 2.06795 8.42962 1.17054 8.12067C0.858396 8.0218 0.58527 7.94766 0.559258 7.98473C0.468216 8.07124 0.78036 9.19581 1.02747 9.64069C1.36563 10.2586 2.05495 10.8641 2.80929 11.2225L3.44659 11.5067L2.69224 11.5191C1.9639 11.5191 1.93789 11.5315 2.01593 11.791C2.27605 12.5942 3.30352 13.4469 4.44805 13.8177L5.25442 14.0772L4.5521 14.4727C3.51162 15.0411 2.28905 15.3624 1.06649 15.3871C0.481222 15.3995 0 15.4489 0 15.486C0 15.6096 1.58673 16.3016 2.51016 16.5735C5.28043 17.3768 8.57095 17.0307 11.0421 15.659C12.7979 14.6827 14.5537 12.7425 15.3731 10.8641C15.8153 9.86314 16.2575 8.03416 16.2575 7.15675C16.2575 6.58828 16.2965 6.51413 17.0248 5.83445C17.454 5.43899 17.8572 5.00646 17.9353 4.88288C18.0653 4.64808 18.0523 4.64808 17.389 4.85817C16.2835 5.22891 16.1274 5.17948 16.6737 4.62337C17.0769 4.22791 17.5581 3.51115 17.5581 3.30107C17.5581 3.26399 17.363 3.32578 17.1419 3.437C16.9078 3.56058 16.3876 3.74595 15.9974 3.85718L15.295 4.06726L14.6578 3.65945C14.3066 3.437 13.8124 3.18985 13.5522 3.1157C12.8889 2.94269 11.8745 2.9674 11.2762 3.16513C9.65045 3.72124 8.62297 5.15476 8.74003 6.72422Z" fill="white"/>
</svg>
