<svg width="54" height="54" viewBox="0 0 54 54" fill="none" xmlns="http://www.w3.org/2000/svg">
<rect width="54" height="54" rx="27" fill="#212121"/>
<path fill-rule="evenodd" clip-rule="evenodd" d="M35.6754 34.4913C35.7359 34.4993 35.7965 34.5075 35.857 34.516L36.1644 34.5592C37.503 34.747 38.7006 33.7268 38.7006 32.3986V31.385C38.7006 30.4351 38.0926 29.5877 37.1819 29.2682C36.1306 28.8994 35.0452 28.6591 33.9496 28.5475C35.0934 29.3747 35.8028 30.7141 35.8028 32.1753V33.4337C35.8028 33.7994 35.7586 34.1534 35.6754 34.4913ZM31.0371 27.1993C31.4927 27.3872 31.9931 27.491 32.5182 27.491C34.6329 27.491 36.3473 25.8071 36.3473 23.7299C36.3473 21.6527 34.6329 19.9688 32.5182 19.9688C32.4563 19.9688 32.3947 19.9702 32.3334 19.9731C32.718 20.792 32.9329 21.7065 32.9329 22.6711C32.9329 24.4436 32.2074 26.0466 31.0371 27.1993Z" fill="white"/>
<path fill-rule="evenodd" clip-rule="evenodd" d="M18.0277 34.4913C17.9672 34.4993 17.9067 34.5075 17.8461 34.516L17.5387 34.5592C16.2002 34.747 15.0026 33.7268 15.0026 32.3986V31.385C15.0026 30.4351 15.6105 29.5877 16.5212 29.2682C17.5725 28.8994 18.6579 28.6591 19.7536 28.5475C18.6097 29.3747 17.9003 30.7141 17.9003 32.1753V33.4337C17.9003 33.7994 17.9445 34.1534 18.0277 34.4913ZM22.666 27.1993C22.2104 27.3872 21.71 27.491 21.1849 27.491C19.0702 27.491 17.3559 25.8071 17.3559 23.7299C17.3559 21.6527 19.0702 19.9688 21.1849 19.9688C21.2468 19.9688 21.3084 19.9702 21.3697 19.9731C20.9851 20.792 20.7702 21.7065 20.7702 22.6711C20.7702 24.4436 21.4957 26.0466 22.666 27.1993Z" fill="white"/>
<path fill-rule="evenodd" clip-rule="evenodd" d="M31.8342 22.6696C31.8342 20.0907 29.7435 18 27.1646 18C24.5856 18 22.4949 20.0907 22.4949 22.6696C22.4949 25.2486 24.5856 27.3393 27.1646 27.3393C29.7435 27.3393 31.8342 25.2486 31.8342 22.6696Z" fill="white"/>
<path fill-rule="evenodd" clip-rule="evenodd" d="M21.477 29.5457C25.155 28.2322 29.1742 28.2322 32.8521 29.5457C33.9628 29.9424 34.7041 30.9944 34.7041 32.1738V33.4322C34.7041 35.0812 33.2436 36.3479 31.6112 36.1147L31.2363 36.0611C28.5355 35.6753 25.7936 35.6753 23.0929 36.0611L22.7179 36.1147C21.0855 36.3479 19.625 35.0812 19.625 33.4322V32.1738C19.625 30.9944 20.3664 29.9424 21.477 29.5457Z" fill="white"/>
</svg>
