<svg width="141" height="71" viewBox="0 0 141 71" fill="none" xmlns="http://www.w3.org/2000/svg">
<path fill-rule="evenodd" clip-rule="evenodd" d="M50.8196 14.5742H60.7322L35.7024 57.7068L10.5078 14.5742H20.6459L35.7024 40.5408L50.8196 14.5742Z" fill="#212121" fill-opacity="0.46"/>
<path fill-rule="evenodd" clip-rule="evenodd" d="M41.4479 14.5664H50.8757L35.6855 40.5872L20.6172 14.5664H29.8976L35.6855 24.584L41.4479 14.5664Z" fill="#212121"/>
<path fill-rule="evenodd" clip-rule="evenodd" d="M66.6406 23.0805C66.6406 22.7623 66.8173 22.4971 67.1705 22.285C67.5238 22.0729 67.8931 21.9668 68.2785 21.9668C68.8138 21.9668 69.1456 22.1683 69.2741 22.5714L74.9264 41.4722L80.5466 22.5714C80.6965 22.1683 81.0176 21.9668 81.51 21.9668C81.9168 21.9668 82.2969 22.0835 82.6501 22.3168C83.0034 22.5502 83.18 22.8153 83.18 23.1123C83.18 23.1335 83.1748 23.1653 83.164 23.2078C83.1532 23.2502 83.1479 23.2926 83.1479 23.335L76.6285 44.4951C76.393 45.1103 75.8257 45.4179 74.9264 45.4179C74.0272 45.4179 73.4812 45.1103 73.2885 44.4951L66.7052 23.3351C66.6623 23.2078 66.6409 23.1229 66.6409 23.0805H66.6406ZM83.4331 39.3719V31.099C83.4331 30.8445 83.5669 30.6217 83.8345 30.4308C84.1022 30.2399 84.418 30.1444 84.782 30.1444C85.1245 30.1444 85.4296 30.2452 85.6973 30.4467C85.9649 30.6482 86.0987 30.8657 86.0987 31.099V39.3719C86.0987 40.3265 86.4627 41.1856 87.1906 41.9493C87.9186 42.7129 88.7857 43.0948 89.792 43.0948C90.7769 43.0948 91.6332 42.7182 92.3612 41.9652C93.0891 41.2121 93.4531 40.3477 93.4531 39.3719V31.0667C93.4531 30.8334 93.5869 30.6212 93.8546 30.4303C94.1222 30.2394 94.438 30.144 94.802 30.144C95.1874 30.144 95.5031 30.2341 95.7494 30.4144C95.9956 30.5947 96.1187 30.8122 96.1187 31.0667V39.3719C96.1187 41.0053 95.4925 42.4319 94.24 43.6516C92.9875 44.8714 91.5048 45.4812 89.792 45.4812C88.0578 45.4812 86.5645 44.8714 85.3119 43.6516C84.0595 42.4319 83.4332 41.0053 83.4332 39.3719H83.4331ZM98.2982 39.3083V35.9672C98.2982 34.3338 98.9245 32.9232 100.177 31.7352C101.429 30.5473 102.933 29.9533 104.689 29.9533C106.359 29.9533 107.804 30.5102 109.025 31.6239C110.245 32.7375 110.855 34.1323 110.855 35.8081C110.855 36.4233 110.78 36.9165 110.631 37.2878C110.481 37.659 110.25 37.9241 109.94 38.0833C109.63 38.2424 109.341 38.3431 109.073 38.3856C108.805 38.428 108.447 38.4492 107.997 38.4492H100.964V39.4038C100.964 40.5705 101.386 41.5039 102.232 42.2039C103.078 42.904 104.175 43.254 105.524 43.254C106.231 43.254 106.846 43.1479 107.371 42.9358C107.895 42.7236 108.318 42.5168 108.639 42.3153C108.96 42.1138 109.217 42.013 109.41 42.013C109.71 42.013 109.967 42.1456 110.181 42.4108C110.395 42.6759 110.502 42.9464 110.502 43.2221C110.502 43.71 110.015 44.2086 109.041 44.7176C108.067 45.2268 106.862 45.4813 105.428 45.4813C103.329 45.4813 101.617 44.9139 100.289 43.779C98.9618 42.6441 98.2981 41.1539 98.2981 39.3083L98.2982 39.3083ZM100.964 36.6673H106.905C107.462 36.6673 107.836 36.5983 108.029 36.4604C108.222 36.3225 108.318 36.0521 108.318 35.6491C108.318 34.6945 107.965 33.8566 107.258 33.1353C106.552 32.414 105.685 32.0534 104.657 32.0534C103.651 32.0534 102.784 32.3875 102.056 33.0557C101.328 33.7239 100.964 34.5459 100.964 35.5217L100.964 36.6673ZM112.2 43.7629C112.2 43.2962 112.361 42.8985 112.682 42.5697C113.003 42.2409 113.399 42.0765 113.87 42.0765C114.32 42.0765 114.705 42.2409 115.026 42.5697C115.348 42.8985 115.508 43.2962 115.508 43.7629C115.508 44.2084 115.348 44.5955 115.026 44.9243C114.705 45.2531 114.32 45.4175 113.87 45.4175C113.399 45.4175 113.003 45.2531 112.682 44.9243C112.361 44.5955 112.2 44.2084 112.2 43.7629ZM114.573 51.3679C114.573 51.0285 114.68 50.7474 114.894 50.5247C115.108 50.3019 115.365 50.1906 115.665 50.1906C116.5 50.1906 117.046 49.883 117.303 49.2678C117.56 48.6526 117.688 47.7299 117.688 46.4995V31.067C117.688 30.7912 117.811 30.5684 118.057 30.3987C118.304 30.229 118.619 30.1442 119.005 30.1442C119.39 30.1442 119.711 30.229 119.968 30.3987C120.225 30.5684 120.354 30.7912 120.354 31.067V46.4995C120.354 48.3451 119.99 49.8087 119.262 50.8906C118.534 51.9725 117.431 52.5134 115.954 52.5134C115.033 52.5134 114.573 52.1316 114.573 51.3679L114.573 51.3679ZM117.335 24.4803C117.335 24.0772 117.495 23.7272 117.816 23.4302C118.138 23.1333 118.534 22.9848 119.005 22.9848C119.454 22.9848 119.84 23.1333 120.161 23.4302C120.482 23.7272 120.643 24.0772 120.643 24.4803C120.643 24.8833 120.482 25.2387 120.161 25.5462C119.84 25.8538 119.454 26.0076 119.005 26.0076C118.555 26.0076 118.164 25.8538 117.832 25.5462C117.501 25.2387 117.335 24.8833 117.335 24.4803H117.335ZM122.341 43.0627C122.341 42.7869 122.432 42.5164 122.614 42.2513C122.796 41.9861 123.015 41.8536 123.272 41.8536C123.443 41.8536 123.689 41.9808 124.011 42.2354C124.332 42.49 124.792 42.7392 125.392 42.9832C125.991 43.2271 126.698 43.3491 127.511 43.3491C128.582 43.3491 129.358 43.1582 129.84 42.7763C130.321 42.3945 130.562 41.9172 130.562 41.3444C130.562 40.6444 130.295 40.0876 129.759 39.6739C129.224 39.2602 128.571 38.9474 127.8 38.7352C127.029 38.5231 126.259 38.2898 125.488 38.0352C124.717 37.7806 124.064 37.3563 123.529 36.7624C122.994 36.1684 122.726 35.3835 122.726 34.4078C122.726 33.1986 123.159 32.1539 124.027 31.2735C124.894 30.3932 126.216 29.953 127.993 29.953C129.128 29.953 130.166 30.128 131.108 30.4781C132.05 30.8281 132.521 31.2258 132.521 31.6713C132.521 31.9258 132.419 32.2122 132.216 32.5304C132.013 32.8486 131.761 33.0077 131.461 33.0077C131.376 33.0077 130.963 32.8539 130.225 32.5463C129.486 32.2387 128.753 32.0849 128.025 32.0849C127.04 32.0849 126.307 32.313 125.825 32.769C125.343 33.2251 125.102 33.7396 125.102 34.3123C125.102 34.9063 125.37 35.373 125.905 35.7123C126.441 36.0518 127.099 36.3169 127.88 36.5078C128.662 36.6988 129.438 36.9321 130.209 37.2079C130.98 37.4837 131.633 37.9556 132.168 38.6239C132.703 39.2921 132.971 40.1565 132.971 41.2172C132.971 42.5324 132.5 43.5718 131.558 44.3355C130.616 45.0991 129.299 45.481 127.607 45.481C126.152 45.481 124.91 45.2211 123.882 44.7014C122.854 44.1816 122.341 43.6354 122.341 43.0627L122.341 43.0627Z" fill="#212121"/>
</svg>
