<svg width="118" height="16" viewBox="0 0 118 16" fill="none" xmlns="http://www.w3.org/2000/svg">
<path fill-rule="evenodd" clip-rule="evenodd" d="M31.451 9.42235C26.3815 10.8682 20.5283 12.3072 14.8977 12.6665C10.085 12.9731 5.43642 12.4968 1.63148 10.4702C1.09512 10.1849 0.423455 10.381 0.133387 10.9091C-0.157123 11.4368 0.0427387 12.0975 0.5791 12.3833C4.72982 14.5935 9.79096 15.1716 15.0405 14.8366C20.7724 14.4712 26.7312 13.0227 31.9025 11.5559C32.5025 12.7517 33.745 13.8666 35.9338 14.6892C39.2957 15.9528 43.8859 15.9371 48.7216 15.2251C55.7349 14.1928 63.2794 11.7313 68.1301 9.98217C68.329 9.91083 68.6253 9.79731 68.9879 9.64767C69.0984 9.88778 69.2222 10.1244 69.3593 10.3567C70.5487 12.3811 72.6535 14.018 74.7981 14.6026C88.3995 18.3096 104.274 13.8679 117.198 10.2532C117.782 10.0892 118.123 9.48717 117.959 8.90994C117.791 8.33272 117.181 7.99734 116.593 8.16133C104.03 11.6751 88.6073 16.1085 75.3862 12.5064C73.759 12.0627 72.176 10.8047 71.2739 9.26836C71.1722 9.09698 71.0838 8.92168 70.9998 8.74377C72.7817 7.8751 74.8777 6.6641 76.0052 5.36784C77.1637 4.03896 77.4511 2.62047 76.443 1.28071C75.5763 0.135389 74.263 0.0379499 72.8967 0.631707C71.4243 1.26766 69.9076 2.75442 69.4168 3.45214C68.497 4.75536 68.2052 6.16908 68.3732 7.54756C67.9399 7.72764 67.588 7.86161 67.3708 7.9399C62.6263 9.65027 55.2521 12.0645 48.3944 13.0741C43.9819 13.7239 39.7905 13.8105 36.7227 12.6578C35.4142 12.1658 34.5498 11.5916 34.0806 10.9252C35.0065 10.6529 35.8993 10.385 36.7523 10.1292C38.4392 9.62331 41.9514 8.78597 44.4608 7.29353C46.4563 6.10689 47.8094 4.49265 47.7307 2.46909C47.6904 1.42947 47.0789 0.735656 46.1056 0.346778C44.6513 -0.23393 42.1362 0.047066 41.1997 0.24281C38.3591 0.835262 34.5679 3.28773 32.6922 6.0512C31.9436 7.15389 31.4983 8.30748 31.451 9.42235ZM33.7844 8.74289C34.5869 8.50539 35.3625 8.27223 36.1076 8.04865C37.6822 7.57625 40.9737 6.8259 43.3168 5.4322C44.5576 4.69446 45.5706 3.81058 45.5215 2.55216C45.5175 2.45429 45.4189 2.42646 45.3318 2.38644C45.197 2.32511 45.0426 2.2829 44.8782 2.24984C43.7652 2.02626 42.2702 2.24244 41.6582 2.37033C39.2749 2.86752 36.1045 4.94023 34.5308 7.25915C34.1982 7.74894 33.9334 8.24788 33.7844 8.74289ZM70.5576 6.54622C71.5967 6.02032 72.6845 5.38436 73.5423 4.69229C73.9977 4.32473 74.3824 3.94674 74.6256 3.55438C74.829 3.22988 74.9086 2.89753 74.6654 2.57651C74.5681 2.44645 74.4222 2.44386 74.2719 2.46821C74.1127 2.49431 73.9491 2.54998 73.7855 2.62175C72.7066 3.08893 71.5923 4.18031 71.2341 4.69229C70.8141 5.28605 70.6062 5.91418 70.5576 6.54622Z" fill="#212121"/>
</svg>
