<svg width="128" height="24" viewBox="0 0 128 24" fill="none" xmlns="http://www.w3.org/2000/svg">
<path d="M40.1247 21.36C40.97 21.36 41.6517 20.6783 41.6517 19.8602V17.4607L43.1515 15.9609L47.1598 20.8146C47.4325 21.1691 47.8688 21.36 48.3051 21.36C48.6323 21.36 48.9868 21.2509 49.2595 21.0055C49.9139 20.4874 49.9957 19.533 49.4776 18.8786L45.2784 13.834L49.3685 9.74385C49.9684 9.17123 49.9684 8.21686 49.3685 7.61696C48.7959 7.04434 47.8143 7.04434 47.2416 7.61696L41.6517 13.2069V3.77219C41.6517 2.95416 40.97 2.27246 40.1247 2.27246C39.2794 2.27246 38.625 2.95416 38.625 3.77219V19.8602C38.625 20.6783 39.2794 21.36 40.1247 21.36Z" fill="#212121"/>
<path d="M58.6653 21.3607C60.465 21.3607 62.1011 20.57 63.219 19.2884C64.4461 18.0886 65.1278 16.398 65.1278 14.4892C65.1278 12.635 64.4461 11.0262 63.219 9.71738C62.1011 8.43579 60.465 7.64502 58.6653 7.64502C56.7838 7.64502 55.2023 8.43579 53.9752 9.71738C52.8027 11.0262 52.0938 12.635 52.0938 14.4892C52.0938 16.398 52.8027 18.0886 53.9752 19.2884C55.2023 20.57 56.7838 21.3607 58.6653 21.3607ZM56.0476 11.6534C56.7293 11.0535 57.6291 10.6172 58.6653 10.6172C59.6197 10.6172 60.4923 11.0535 61.1739 11.6534C61.8556 12.3896 62.2374 13.3713 62.2374 14.4892C62.2374 15.6618 61.8556 16.6161 61.1739 17.3796C60.4923 18.0341 59.6197 18.3886 58.6653 18.3886C57.6291 18.3886 56.7293 18.0341 56.0476 17.3796C55.4204 16.6161 55.0659 15.6618 55.0659 14.4892C55.0659 13.3713 55.4204 12.3896 56.0476 11.6534Z" fill="#212121"/>
<path d="M67.4062 3.77219V19.8602C67.4062 20.6783 68.0879 21.36 68.906 21.36C69.7513 21.36 70.433 20.6783 70.433 19.8602V3.77219C70.433 2.95416 69.7513 2.27246 68.906 2.27246C68.0879 2.27246 67.4062 2.95416 67.4062 3.77219Z" fill="#212121"/>
<path d="M79.2747 21.3607C81.0744 21.3607 82.7104 20.57 83.8284 19.2884C85.0555 18.0886 85.7372 16.398 85.7372 14.4892C85.7372 12.635 85.0555 11.0262 83.8284 9.71738C82.7104 8.43579 81.0744 7.64502 79.2747 7.64502C77.3932 7.64502 75.8117 8.43579 74.5846 9.71738C73.4121 11.0262 72.7031 12.635 72.7031 14.4892C72.7031 16.398 73.4121 18.0886 74.5846 19.2884C75.8117 20.57 77.3932 21.3607 79.2747 21.3607ZM76.657 11.6534C77.3387 11.0535 78.2385 10.6172 79.2747 10.6172C80.2291 10.6172 81.1016 11.0535 81.7833 11.6534C82.465 12.3896 82.8468 13.3713 82.8468 14.4892C82.8468 15.6618 82.465 16.6161 81.7833 17.3796C81.1016 18.0341 80.2291 18.3886 79.2747 18.3886C78.2385 18.3886 77.3387 18.0341 76.657 17.3796C76.0298 16.6161 75.6753 15.6618 75.6753 14.4892C75.6753 13.3713 76.0298 12.3896 76.657 11.6534Z" fill="#212121"/>
<path d="M88.5186 19.4771C89.6094 20.3496 91.2454 21.3313 93.3723 21.3585C94.7084 21.3585 95.9355 20.9495 96.9171 20.2678C97.8988 19.5589 98.635 18.4409 98.635 17.1047C98.635 16.4776 98.4441 15.8504 98.1169 15.3051C97.6534 14.5416 96.9171 14.0235 96.1809 13.6963C95.3901 13.3145 94.5448 13.0691 93.645 12.9055H93.6177L93.5905 12.8782C92.6634 12.7146 91.9544 12.4692 91.5999 12.2238C91.409 12.1147 91.3272 12.0057 91.3 11.9511C91.2454 11.8693 91.2454 11.8421 91.2454 11.733C91.2454 11.5966 91.3272 11.3512 91.6817 11.1058C92.0362 10.8331 92.6361 10.615 93.3178 10.615C94.1904 10.615 94.9539 11.0513 95.8264 11.6239C96.5081 12.0875 97.408 11.8966 97.8443 11.2422C98.2533 10.5605 98.0624 9.66063 97.408 9.22434C96.5354 8.62445 95.1993 7.72461 93.3178 7.72461C92.0635 7.72461 90.9182 8.07909 89.9638 8.73352C89.064 9.41522 88.355 10.4787 88.355 11.733C88.355 12.3601 88.5186 12.96 88.8186 13.4509C89.3094 14.1871 89.9638 14.6779 90.7001 15.0324C91.409 15.3596 92.2271 15.5778 93.0724 15.7414H93.0996C94.0813 15.9322 94.8993 16.2322 95.2811 16.5049C95.4992 16.6412 95.6083 16.7503 95.6356 16.8321C95.6901 16.9139 95.7174 16.9684 95.7174 17.1047C95.7174 17.3229 95.6083 17.5956 95.2265 17.9228C94.7903 18.1955 94.1086 18.4409 93.3723 18.4409C92.3089 18.4681 91.0818 17.841 90.3729 17.2411C89.773 16.723 88.8186 16.8048 88.3278 17.4592C87.8369 18.0591 87.9188 18.9862 88.5186 19.4771Z" fill="#212121"/>
<path d="M107.56 21.3585C109.496 21.3585 111.104 20.7859 112.441 19.5589C113.068 18.9862 112.795 18.1682 112.441 17.7864C112.086 17.3502 110.968 17.2684 110.395 17.8682C109.714 18.3863 108.541 18.6318 107.56 18.5499C106.605 18.4681 105.515 17.9773 104.942 17.3229C104.451 16.8593 104.151 16.1504 104.015 15.5232H112.686C113.449 15.5232 114.022 15.0869 114.104 14.4325C114.131 14.378 114.131 14.2416 114.131 14.1871C114.131 14.1326 114.131 14.078 114.131 14.0508C113.913 10.3696 111.104 7.72461 107.56 7.72461C103.824 7.72461 100.934 10.8331 100.906 14.5416C100.934 18.25 103.824 21.3313 107.56 21.3585ZM107.56 10.3151C109.932 10.5059 111.323 12.1147 111.595 13.2054H103.878C104.097 12.0875 105.242 10.4241 107.56 10.3151Z" fill="#212121"/>
<path d="M117.906 21.36C118.751 21.36 119.433 20.6783 119.433 19.8602V17.4607L120.933 15.9609L124.941 20.8146C125.214 21.1691 125.65 21.36 126.086 21.36C126.414 21.36 126.768 21.2509 127.041 21.0055C127.695 20.4874 127.777 19.533 127.259 18.8786L123.06 13.834L127.15 9.74385C127.75 9.17123 127.75 8.21686 127.15 7.61696C126.577 7.04434 125.596 7.04434 125.023 7.61696L119.433 13.2069V3.77219C119.433 2.95416 118.751 2.27246 117.906 2.27246C117.061 2.27246 116.406 2.95416 116.406 3.77219V19.8602C116.406 20.6783 117.061 21.36 117.906 21.36Z" fill="#212121"/>
<path d="M22.6563 0H4.6115L0 7.13257L13.6339 24L27.2679 7.13257L22.6563 0ZM13.6339 19.9028L3.17686 6.96541L6.01941 2.56621H21.2465L24.091 6.96541H7.88961L17.9149 9.45754C18.2862 9.55131 18.628 9.73611 18.909 9.99506C19.1899 10.254 19.4011 10.5788 19.5233 10.9399C19.6455 11.3009 19.6747 11.6866 19.6083 12.0618C19.5419 12.4369 19.382 12.7896 19.1433 13.0875L13.6339 19.9028Z" fill="url(#paint0_linear_760_16849)"/>
<path style="mix-blend-mode:multiply" d="M24.4166 10.6599L13.6328 24V19.9047L19.1403 13.0874C19.379 12.7897 19.539 12.4372 19.6055 12.0621C19.672 11.6871 19.6429 11.3015 19.521 10.9405C19.399 10.5795 19.188 10.2546 18.9073 9.99556C18.6265 9.73651 18.285 9.55153 17.9138 9.45752L24.4166 10.6599Z" fill="url(#paint1_linear_760_16849)"/>
<defs>
<linearGradient id="paint0_linear_760_16849" x1="27.2679" y1="9.62844e-07" x2="12.3052" y2="26.7966" gradientUnits="userSpaceOnUse">
<stop stop-color="#2193F4"/>
<stop offset="1" stop-color="#22C9F5"/>
</linearGradient>
<linearGradient id="paint1_linear_760_16849" x1="20.8328" y1="10.8479" x2="17.6487" y2="18.4607" gradientUnits="userSpaceOnUse">
<stop stop-color="#2193F4"/>
<stop offset="1" stop-color="white"/>
</linearGradient>
</defs>
</svg>
