<svg width="128" height="24" viewBox="0 0 128 24" fill="none" xmlns="http://www.w3.org/2000/svg">
<path d="M40.1291 21.3609C40.9744 21.3609 41.6561 20.6792 41.6561 19.8612V17.4616L43.1559 15.9619L47.1642 20.8156C47.4369 21.1701 47.8732 21.3609 48.3095 21.3609C48.6367 21.3609 48.9912 21.2519 49.2639 21.0065C49.9183 20.4884 50.0001 19.534 49.482 18.8796L45.2828 13.835L49.3729 9.74483C49.9728 9.17221 49.9728 8.21783 49.3729 7.61794C48.8003 7.04531 47.8187 7.04531 47.246 7.61794L41.6561 13.2079V3.77317C41.6561 2.95513 40.9744 2.27344 40.1291 2.27344C39.2838 2.27344 38.6294 2.95513 38.6294 3.77317V19.8612C38.6294 20.6792 39.2838 21.3609 40.1291 21.3609Z" fill="white"/>
<path d="M58.6668 21.3603C60.4664 21.3603 62.1025 20.5695 63.2205 19.2879C64.4476 18.0881 65.1293 16.3975 65.1293 14.4888C65.1293 12.6345 64.4476 11.0257 63.2205 9.71689C62.1025 8.4353 60.4664 7.64453 58.6668 7.64453C56.7853 7.64453 55.2038 8.4353 53.9767 9.71689C52.8042 11.0257 52.0952 12.6345 52.0952 14.4888C52.0952 16.3975 52.8042 18.0881 53.9767 19.2879C55.2038 20.5695 56.7853 21.3603 58.6668 21.3603ZM56.0491 11.6529C56.7308 11.053 57.6306 10.6167 58.6668 10.6167C59.6211 10.6167 60.4937 11.053 61.1754 11.6529C61.8571 12.3891 62.2389 13.3708 62.2389 14.4888C62.2389 15.6613 61.8571 16.6157 61.1754 17.3792C60.4937 18.0336 59.6211 18.3881 58.6668 18.3881C57.6306 18.3881 56.7308 18.0336 56.0491 17.3792C55.4219 16.6157 55.0674 15.6613 55.0674 14.4888C55.0674 13.3708 55.4219 12.3891 56.0491 11.6529Z" fill="white"/>
<path d="M67.4019 3.77317V19.8612C67.4019 20.6792 68.0836 21.3609 68.9016 21.3609C69.7469 21.3609 70.4286 20.6792 70.4286 19.8612V3.77317C70.4286 2.95513 69.7469 2.27344 68.9016 2.27344C68.0836 2.27344 67.4019 2.95513 67.4019 3.77317Z" fill="white"/>
<path d="M79.2722 21.3603C81.0719 21.3603 82.708 20.5695 83.826 19.2879C85.053 18.0881 85.7347 16.3975 85.7347 14.4888C85.7347 12.6345 85.053 11.0257 83.826 9.71689C82.708 8.4353 81.0719 7.64453 79.2722 7.64453C77.3908 7.64453 75.8092 8.4353 74.5822 9.71689C73.4096 11.0257 72.7007 12.6345 72.7007 14.4888C72.7007 16.3975 73.4096 18.0881 74.5822 19.2879C75.8092 20.5695 77.3908 21.3603 79.2722 21.3603ZM76.6545 11.6529C77.3362 11.053 78.2361 10.6167 79.2722 10.6167C80.2266 10.6167 81.0992 11.053 81.7809 11.6529C82.4626 12.3891 82.8443 13.3708 82.8443 14.4888C82.8443 15.6613 82.4626 16.6157 81.7809 17.3792C81.0992 18.0336 80.2266 18.3881 79.2722 18.3881C78.2361 18.3881 77.3362 18.0336 76.6545 17.3792C76.0274 16.6157 75.6729 15.6613 75.6729 14.4888C75.6729 13.3708 76.0274 12.3891 76.6545 11.6529Z" fill="white"/>
<path d="M88.5177 19.4771C89.6084 20.3496 91.2445 21.3313 93.3713 21.3585C94.7075 21.3585 95.9345 20.9495 96.9162 20.2678C97.8978 19.5589 98.634 18.4409 98.634 17.1047C98.634 16.4776 98.4432 15.8504 98.116 15.3051C97.6524 14.5416 96.9162 14.0235 96.1799 13.6963C95.3892 13.3145 94.5439 13.0691 93.644 12.9055H93.6168L93.5895 12.8782C92.6624 12.7146 91.9534 12.4692 91.5989 12.2238C91.4081 12.1147 91.3263 12.0057 91.299 11.9511C91.2445 11.8693 91.2445 11.8421 91.2445 11.733C91.2445 11.5966 91.3263 11.3512 91.6807 11.1058C92.0352 10.8331 92.6351 10.615 93.3168 10.615C94.1894 10.615 94.9529 11.0513 95.8255 11.6239C96.5071 12.0875 97.407 11.8966 97.8433 11.2422C98.2523 10.5605 98.0614 9.66063 97.407 9.22434C96.5344 8.62445 95.1983 7.72461 93.3168 7.72461C92.0625 7.72461 90.9172 8.07909 89.9629 8.73352C89.063 9.41522 88.3541 10.4787 88.3541 11.733C88.3541 12.3601 88.5177 12.96 88.8176 13.4509C89.3084 14.1871 89.9629 14.6779 90.6991 15.0324C91.4081 15.3596 92.2261 15.5778 93.0714 15.7414H93.0987C94.0803 15.9322 94.8983 16.2322 95.2801 16.5049C95.4982 16.6412 95.6073 16.7503 95.6346 16.8321C95.6891 16.9139 95.7164 16.9684 95.7164 17.1047C95.7164 17.3229 95.6073 17.5956 95.2256 17.9228C94.7893 18.1955 94.1076 18.4409 93.3713 18.4409C92.3079 18.4681 91.0808 17.841 90.3719 17.2411C89.772 16.723 88.8176 16.8048 88.3268 17.4592C87.836 18.0591 87.9178 18.9862 88.5177 19.4771Z" fill="white"/>
<path d="M107.56 21.3585C109.496 21.3585 111.105 20.7859 112.441 19.5589C113.068 18.9862 112.796 18.1682 112.441 17.7864C112.087 17.3502 110.969 17.2684 110.396 17.8682C109.714 18.3863 108.542 18.6318 107.56 18.5499C106.606 18.4681 105.515 17.9773 104.942 17.3229C104.452 16.8593 104.152 16.1504 104.015 15.5232H112.686C113.45 15.5232 114.023 15.0869 114.104 14.4325C114.132 14.378 114.132 14.2416 114.132 14.1871C114.132 14.1326 114.132 14.078 114.132 14.0508C113.914 10.3696 111.105 7.72461 107.56 7.72461C103.824 7.72461 100.934 10.8331 100.907 14.5416C100.934 18.25 103.824 21.3313 107.56 21.3585ZM107.56 10.3151C109.932 10.5059 111.323 12.1147 111.596 13.2054H103.879C104.097 12.0875 105.242 10.4241 107.56 10.3151Z" fill="white"/>
<path d="M117.904 21.3609C118.749 21.3609 119.431 20.6792 119.431 19.8612V17.4616L120.93 15.9619L124.939 20.8156C125.211 21.1701 125.648 21.3609 126.084 21.3609C126.411 21.3609 126.766 21.2519 127.038 21.0065C127.693 20.4884 127.775 19.534 127.256 18.8796L123.057 13.835L127.147 9.74483C127.747 9.17221 127.747 8.21783 127.147 7.61794C126.575 7.04531 125.593 7.04531 125.02 7.61794L119.431 13.2079V3.77317C119.431 2.95513 118.749 2.27344 117.904 2.27344C117.058 2.27344 116.404 2.95513 116.404 3.77317V19.8612C116.404 20.6792 117.058 21.3609 117.904 21.3609Z" fill="white"/>
<path d="M22.6563 0H4.6115L0 7.13257L13.6339 24L27.2679 7.13257L22.6563 0ZM13.6339 19.9028L3.17686 6.96541L6.01941 2.56621H21.2465L24.091 6.96541H7.88961L17.9149 9.45754C18.2862 9.55131 18.628 9.73611 18.909 9.99506C19.1899 10.254 19.4011 10.5788 19.5233 10.9399C19.6455 11.3009 19.6747 11.6866 19.6083 12.0618C19.5419 12.4369 19.382 12.7896 19.1433 13.0875L13.6339 19.9028Z" fill="url(#paint0_linear_283_2574)"/>
<path style="mix-blend-mode:multiply" d="M24.4175 10.6594L13.6338 23.9995V19.9042L19.1412 13.0869C19.38 12.7892 19.54 12.4367 19.6065 12.0617C19.673 11.6866 19.6439 11.301 19.5219 10.94C19.4 10.579 19.189 10.2541 18.9082 9.99507C18.6275 9.73602 18.286 9.55104 17.9148 9.45703L24.4175 10.6594Z" fill="url(#paint1_linear_283_2574)"/>
<defs>
<linearGradient id="paint0_linear_283_2574" x1="27.2679" y1="9.62844e-07" x2="12.3052" y2="26.7966" gradientUnits="userSpaceOnUse">
<stop stop-color="#2193F4"/>
<stop offset="1" stop-color="#22C9F5"/>
</linearGradient>
<linearGradient id="paint1_linear_283_2574" x1="20.8338" y1="10.8475" x2="17.6497" y2="18.4602" gradientUnits="userSpaceOnUse">
<stop stop-color="#2193F4"/>
<stop offset="1" stop-color="white"/>
</linearGradient>
</defs>
</svg>
