<svg width="417" height="33" viewBox="0 0 417 33" fill="none" xmlns="http://www.w3.org/2000/svg">
<path fill-rule="evenodd" clip-rule="evenodd" d="M177.104 3.16042C157.514 4.24347 138.153 5.57518 119.273 7.03108C92.5463 9.09065 65.83 11.2213 39.2748 14.5947C30.9157 15.66 22.4271 16.3346 14.1203 17.6662C8.90588 18.5007 1.99164 19.6901 1.08423 19.9387C0.60962 20.0807 0.402564 20.294 0.335658 20.365C-0.134772 20.8622 -0.048936 21.3413 0.216596 21.7142C0.323226 21.874 0.592864 22.2647 1.34137 22.318C51.3993 25.9578 102.586 18.8558 152.705 18.1101C239.619 16.8318 329.168 21.9097 415.393 32.9887C416.146 33.0775 416.877 32.6335 416.982 31.9766C417.107 31.3374 416.564 30.7159 415.811 30.6272C329.44 19.5304 239.745 14.4347 152.663 15.7308C105.955 16.4232 58.324 22.6553 11.5507 20.5247C12.6254 20.3472 13.6792 20.1696 14.641 20.0098C22.9143 18.6782 31.3674 18.0213 39.693 16.956C66.1917 13.5826 92.8537 11.452 119.545 9.41018C152.663 6.85347 187.224 4.65185 222.057 3.62207C234.518 3.78186 246.937 3.94172 259.356 4.13703C286.223 4.56314 313.216 5.80599 340.02 7.47495C348.09 7.98985 356.161 8.52245 364.231 8.98408C366.907 9.14387 373.807 9.60542 374.769 9.56991C375.961 9.5344 376.19 8.68224 376.211 8.5402C376.274 8.22062 376.232 7.77672 375.647 7.40386C375.584 7.3506 375.208 7.17294 374.371 7.06641C325.635 0.78118 273.595 -0.266193 222.099 1.24297C167.78 0.586041 113.251 0.301833 59.0705 0C58.2948 0 57.6613 0.532724 57.655 1.18966C57.6508 1.84659 58.2759 2.37933 59.0516 2.39708C98.2834 2.61014 137.714 2.82308 177.104 3.16042Z" fill="#212121"/>
</svg>
