<svg width="548" height="30" viewBox="0 0 548 30" fill="none" xmlns="http://www.w3.org/2000/svg">
<path fill-rule="evenodd" clip-rule="evenodd" d="M97.4361 10.8143C91.4527 12.1087 85.837 13.9826 80.7728 16.6099C80.2213 16.8996 80.054 17.3052 80.0039 17.4791C79.9203 17.7882 79.9538 18.0781 80.0875 18.3486C80.1711 18.5224 80.3049 18.735 80.589 18.8702C80.7896 18.9668 81.3076 19.044 81.9929 19.0247C83.1628 19.0054 84.9679 18.8509 85.837 18.8509C88.812 18.8895 91.787 18.87 94.762 18.928C104.238 19.1212 105.893 19.2757 118.077 19.1598C132.3 19.0246 146.557 18.7928 160.797 18.445C115.537 21.3428 70.3436 24.7235 25.3844 27.8724C24.883 27.9111 24.4986 28.4135 24.532 28.9931C24.5487 29.5919 24.9999 30.0363 25.5013 29.9977C130.412 22.6566 236.475 14.0019 342.188 13.4416C347.403 13.5768 352.6 13.712 357.781 13.8472C389.086 14.6972 420.407 15.7212 451.678 17.3053C461.856 17.8269 472.035 18.4064 482.23 18.9473C485.238 19.1019 488.263 19.2564 491.289 19.411C493.729 19.5269 500.013 19.9519 500.899 19.9713C501.701 19.9906 501.902 19.16 501.918 19.1214C501.968 18.8509 501.935 18.5417 501.734 18.2519C501.684 18.1746 501.551 17.9622 501.25 17.8656C501.2 17.8656 500.966 17.8269 500.481 17.7689C475.344 15.3928 450.14 13.7507 424.886 12.7075C428.279 12.7461 431.672 12.7656 435.064 12.8042C461.221 13.036 487.444 13.8667 513.584 12.8042C519.534 12.5724 525.501 12.3018 531.434 11.9734C535.429 11.7609 545.707 12.0314 547.161 11.5291C547.83 11.3166 547.98 10.7756 547.997 10.5052C548.014 10.1961 547.964 9.84835 547.663 9.53925C547.529 9.3847 547.111 9.13369 546.326 8.9405C520.671 2.50746 490.653 4.32326 464.53 2.52664C393.582 -2.39956 322.884 0.884716 251.952 3.87908C190.73 6.46775 129.509 6.60294 68.3212 10.1189C45.9251 11.3939 22.8273 9.9258 0.748808 14.794C0.247405 14.91 -0.0702567 15.4507 0.0133106 16.0302C0.113591 16.6098 0.598322 16.9963 1.09973 16.8804C23.0779 12.0314 46.0924 13.5189 68.4048 12.2439C78.0819 11.6836 87.759 11.22 97.4361 10.8143ZM286.716 12.2439C249.228 11.5677 211.739 11.2199 174.218 11.4324C148.479 11.5676 110.974 5.90756 85.4025 16.7259C85.5863 16.7259 85.7366 16.7259 85.8703 16.7259C88.8453 16.7645 91.8204 16.7257 94.7954 16.803C104.255 16.9962 105.91 17.1507 118.06 17.0348C149.131 16.7257 180.285 15.9531 211.338 14.7554C236.492 13.7895 261.612 12.92 286.716 12.2439ZM540.309 9.75173C516.058 4.84484 488.564 6.31325 464.413 4.65186C393.531 -0.274344 322.884 3.0097 252.019 6.00406C220.347 7.35635 188.692 8.03246 157.053 8.86315C163.12 9.13361 168.92 9.32676 174.218 9.30744C227.851 8.99834 281.468 9.82918 335.101 11.1428C368.411 10.5633 401.721 10.3508 435.081 10.6599C461.221 10.911 487.394 11.7224 513.534 10.6792C519.467 10.4474 525.417 10.1768 531.351 9.84841C533.373 9.75182 537.033 9.77104 540.309 9.75173Z" fill="#212121"/>
</svg>
